<?xml version="1.0" encoding="UTF-8"?>
<svg xmlns="http://www.w3.org/2000/svg" xmlns:xlink="http://www.w3.org/1999/xlink" width="184.956pt" height="63.595pt" viewBox="0 0 184.956 63.595" version="1.1">
<defs>
<clipPath id="clip1">
  <path d="M 0 0 L 184.957031 0 L 184.957031 63.59375 L 0 63.59375 Z M 0 0 "/>
</clipPath>
</defs>
<g id="surface1">
<g clip-path="url(#clip1)" clip-rule="nonzero">
<path style="fill:none;stroke-width:1.19553;stroke-linecap:butt;stroke-linejoin:miter;stroke:rgb(0%,0%,0%);stroke-opacity:1;stroke-miterlimit:10;" d="M 0.00159375 0.00021875 L 1.798469 1.797094 L 3.59925 3.586156 L 5.396125 5.3635 L 7.196906 7.117406 L 8.993781 8.843969 L 10.794563 10.535375 L 12.591438 12.179906 L 14.392219 13.781469 L 16.189094 15.324438 L 17.989875 16.804906 L 19.78675 18.218969 L 21.587531 19.558813 L 23.384406 20.820531 L 25.185188 22.000219 L 26.982063 23.086156 L 28.782844 24.086156 L 30.583625 24.984594 L 32.3805 25.781469 L 34.181281 26.476781 L 35.978156 27.066625 L 37.778937 27.547094 L 39.575812 27.914281 L 41.376594 28.172094 L 43.173469 28.312719 L 44.97425 28.343969 L 46.771125 28.258031 L 48.571906 28.058813 L 50.368781 27.746313 L 52.169562 27.320531 L 53.966437 26.789281 L 55.767219 26.14475 L 57.564094 25.398656 L 59.364875 24.551 L 61.16175 23.601781 L 62.962531 22.558813 L 64.759406 21.426 L 66.560187 20.203344 L 68.360969 18.902563 L 70.157844 17.527563 L 71.958625 16.078344 L 73.7555 14.566625 L 75.556281 12.992406 L 77.353156 11.371313 L 79.153937 9.699438 L 80.950812 7.992406 L 82.751594 6.250219 L 84.548469 4.484594 L 86.34925 2.699438 L 88.146125 0.906469 L 89.946906 -0.890406 L 91.743781 -2.687281 L 93.544562 -4.472437 L 95.341437 -6.238062 L 97.142219 -7.976344 L 98.939094 -9.687281 L 100.739875 -11.35525 L 102.540656 -12.98025 L 104.337531 -14.554469 L 106.138312 -16.066187 L 107.935187 -17.515406 L 109.735969 -18.894312 L 111.532844 -20.195094 L 113.333625 -21.41775 L 115.1305 -22.550562 L 116.931281 -23.593531 L 118.728156 -24.54275 L 120.528937 -25.394312 L 122.325812 -26.140406 L 124.126594 -26.784937 L 125.923469 -27.316187 L 127.72425 -27.741969 L 129.521125 -28.054469 L 131.321906 -28.253687 L 133.118781 -28.343531 L 134.919563 -28.312281 L 136.716438 -28.171656 L 138.517219 -27.91775 L 140.318 -27.550562 L 142.114875 -27.070094 L 143.915656 -26.484156 L 145.712531 -25.788844 L 147.513313 -24.991969 L 149.310188 -24.093531 L 151.110969 -23.097437 L 152.907844 -22.007594 L 154.708625 -20.831812 L 156.5055 -19.570094 L 158.306281 -18.23025 L 160.103156 -16.816187 L 161.903938 -15.335719 L 163.700813 -13.79275 L 165.501594 -12.195094 L 167.298469 -10.546656 L 169.09925 -8.859156 L 170.896125 -7.132594 L 172.696906 -5.378687 L 174.497688 -3.601344 L 176.294563 -1.812281 L 178.095344 -0.0154062 " transform="matrix(1,0,0,-1,3.432,31.801)"/>
<path style="fill:none;stroke-width:0.3985;stroke-linecap:butt;stroke-linejoin:miter;stroke:rgb(0%,0%,0%);stroke-opacity:1;stroke-miterlimit:10;" d="M 0.00159375 0.00021875 C 0.00159375 0.00021875 0.646125 0.367406 0.896125 0.6135 C 1.142219 0.8635 1.540656 1.586156 1.790656 1.785375 C 2.03675 1.984594 2.435188 2.2385 2.685188 2.047094 C 2.931281 1.851781 3.329719 1.051 3.579719 0.39475 C 3.829719 -0.2615 4.228156 -1.902125 4.47425 -2.683375 C 4.72425 -3.468531 5.122688 -4.921656 5.368781 -5.2615 C 5.618781 -5.60525 6.017219 -5.671656 6.263313 -5.156031 C 6.513313 -4.644312 6.91175 -2.835719 7.157844 -1.558375 C 7.407844 -0.277125 7.806281 2.668188 8.052375 4.058813 C 8.302375 5.449438 8.700813 7.840063 8.950813 8.465063 C 9.196906 9.090063 9.595344 9.254125 9.845344 8.554906 C 10.091438 7.851781 10.489875 5.254125 10.739875 3.422094 C 10.985969 1.586156 11.384406 -2.632594 11.634406 -4.663844 C 11.8805 -6.695094 12.278938 -10.199 12.528938 -11.222437 C 12.778938 -12.249781 13.177375 -12.79275 13.423469 -12.054469 C 13.673469 -11.312281 14.071906 -8.175562 14.318 -5.882594 C 14.568 -3.589625 14.966438 1.804906 15.212531 4.480688 C 15.462531 7.156469 15.860969 11.871313 16.107063 13.39475 C 16.357063 14.918188 16.7555 16.105688 17.001594 15.465063 C 17.251594 14.828344 17.650031 11.437719 17.900031 8.804906 C 18.146125 6.168188 18.544563 -0.241969 18.794563 -3.527125 C 19.040656 -6.812281 19.439094 -12.781031 19.689094 -14.874781 C 19.935188 -16.968531 20.333625 -19.007594 20.583625 -18.613062 C 20.829719 -18.218531 21.228156 -14.859156 21.478156 -12.019312 C 21.728156 -9.179469 22.126594 -1.968531 22.372688 1.8635 C 22.622688 5.691625 23.021125 12.886938 23.267219 15.586156 C 23.517219 18.285375 23.915656 21.355688 24.16175 21.324438 C 24.41175 21.293188 24.810188 18.250219 25.056281 15.347875 C 25.306281 12.445531 25.704719 4.687719 25.950813 0.406469 C 26.200813 -3.874781 26.59925 -12.195094 26.84925 -15.507594 C 27.095344 -18.816187 27.493781 -23.027125 27.743781 -23.456812 C 27.989875 -23.8865 28.388313 -21.421656 28.638313 -18.60525 C 28.884406 -15.784937 29.282844 -7.7615 29.532844 -3.148219 C 29.778938 1.468969 30.177375 10.758031 30.427375 14.648656 C 30.677375 18.539281 31.075813 23.929906 31.321906 24.89475 C 31.571906 25.859594 31.970344 24.195531 32.216437 21.601781 C 32.466437 19.008031 32.864875 11.004125 33.110969 6.191625 C 33.360969 1.379125 33.759406 -8.671656 34.0055 -13.077906 C 34.2555 -17.484156 34.653937 -24.031031 34.900031 -25.570094 C 35.150031 -27.109156 35.548469 -26.421656 35.798469 -24.171656 C 36.044562 -21.925562 36.443 -14.23025 36.693 -9.366969 C 36.939094 -4.499781 37.337531 6.054906 37.587531 10.886938 C 37.833625 15.718969 38.232062 23.328344 38.482062 25.449438 C 38.728156 27.570531 39.126594 27.972875 39.376594 26.172094 C 39.626594 24.371313 40.025031 17.250219 40.271125 12.476781 C 40.521125 7.70725 40.919562 -3.077906 41.165656 -8.214625 C 41.415656 -13.35525 41.814094 -21.874781 42.060187 -24.550562 C 42.310187 -27.222437 42.708625 -28.7615 42.954719 -27.484156 C 43.204719 -26.206812 43.603156 -19.882594 43.84925 -15.343531 C 44.09925 -10.808375 44.497687 -0.0857187 44.747687 5.222875 C 44.993781 10.535375 45.392219 19.758031 45.642219 22.926 C 45.888312 26.090063 46.28675 28.746313 46.53675 28.035375 C 46.782844 27.324438 47.181281 21.976781 47.431281 17.797094 C 47.677375 13.617406 48.075812 3.246313 48.325812 -2.093531 C 48.575812 -7.429469 48.97425 -17.10525 49.220344 -20.671656 C 49.470344 -24.238062 49.868781 -27.925562 50.114875 -27.788844 C 50.364875 -27.652125 50.763312 -23.406031 51.009406 -19.687281 C 51.259406 -15.968531 51.657844 -6.210719 51.903937 -0.991969 C 52.153937 4.226781 52.552375 14.078344 52.798469 17.929906 C 53.048469 21.777563 53.446906 26.347875 53.696906 26.761938 C 53.943 27.172094 54.341437 24.074438 54.591437 20.898656 C 54.837531 17.718969 55.235969 8.808813 55.485969 3.847875 C 55.732062 -1.113062 56.1305 -10.847437 56.3805 -14.851344 C 56.626594 -18.85525 57.025031 -24.101344 57.275031 -25.003687 C 57.525031 -25.906031 57.923469 -23.945094 58.169562 -21.351344 C 58.419562 -18.753687 58.818 -10.874781 59.064094 -6.300562 C 59.314094 -1.726344 59.712531 7.605688 59.958625 11.617406 C 60.208625 15.629125 60.607062 21.312719 60.853156 22.6135 C 61.103156 23.918188 61.501594 23.011938 61.747687 21.011938 C 61.997687 19.011938 62.396125 12.281469 62.646125 8.199438 C 62.892219 4.117406 63.290656 -4.546656 63.540656 -8.421656 C 63.78675 -12.29275 64.185187 -18.128687 64.435187 -19.718531 C 64.681281 -21.312281 65.079719 -21.316187 65.329719 -19.890406 C 65.575812 -18.460719 65.97425 -12.945094 66.22425 -9.429469 C 66.47425 -5.91775 66.872687 1.843969 67.118781 5.437719 C 67.368781 9.031469 67.767219 14.734594 68.013312 16.480688 C 68.263312 18.230688 68.66175 18.945531 68.907844 18.031469 C 69.157844 17.121313 69.556281 12.808813 69.802375 9.910375 C 70.052375 7.011938 70.450812 0.343969 70.696906 -2.847437 C 70.946906 -6.034937 71.345344 -11.316187 71.595344 -13.077906 C 71.841437 -14.839625 72.239875 -16.019312 72.489875 -15.538844 C 72.735969 -15.058375 73.134406 -11.866969 73.384406 -9.601344 C 73.6305 -7.335719 74.028937 -1.882594 74.278937 0.797094 C 74.525031 3.472875 74.923469 8.062719 75.173469 9.691625 C 75.423469 11.320531 75.818 12.699438 76.068 12.535375 C 76.318 12.371313 76.716437 10.168188 76.962531 8.508031 C 77.212531 6.851781 77.610969 2.676 77.857062 0.593969 C 78.107062 -1.491969 78.5055 -5.159937 78.751594 -6.515406 C 79.001594 -7.870875 79.400031 -9.156031 79.646125 -9.179469 C 79.896125 -9.202906 80.294562 -7.784937 80.544562 -6.683375 C 80.790656 -5.581812 81.189094 -2.679469 81.439094 -1.238062 C 81.685187 0.20725 82.083625 2.761938 82.333625 3.718969 C 82.579719 4.672094 82.978156 5.574438 83.228156 5.64475 C 83.47425 5.715063 83.872687 4.847875 84.122687 4.215063 C 84.372687 3.58225 84.771125 1.883031 85.017219 1.097875 C 85.267219 0.308813 85.665656 -1.003687 85.91175 -1.452906 C 86.16175 -1.898219 86.560187 -2.152125 86.806281 -2.120875 C 87.056281 -2.089625 87.454719 -1.499781 87.700812 -1.23025 C 87.950812 -0.960719 88.34925 -0.320094 88.595344 -0.171656 C 88.845344 -0.0232187 89.243781 -0.0154062 89.493781 -0.159937 C 89.739875 -0.300562 90.138312 -0.933375 90.388312 -1.202906 C 90.634406 -1.476344 91.032844 -2.074 91.282844 -2.116969 C 91.528937 -2.156031 91.927375 -1.925562 92.177375 -1.488062 C 92.423469 -1.050562 92.821906 0.246313 93.071906 1.027563 C 93.321906 1.812719 93.716437 3.515844 93.966437 4.156469 C 94.216437 4.797094 94.614875 5.695531 94.860969 5.64475 C 95.110969 5.593969 95.509406 4.734594 95.7555 3.793188 C 96.0055 2.855688 96.403937 0.324438 96.650031 -1.116969 C 96.900031 -2.554469 97.298469 -5.468531 97.544562 -6.585719 C 97.794562 -7.706812 98.193 -9.171656 98.443 -9.175562 C 98.689094 -9.179469 99.087531 -7.956812 99.337531 -6.624781 C 99.583625 -5.296656 99.982062 -1.663844 100.232062 0.418188 C 100.478156 2.496313 100.876594 6.687719 101.126594 8.367406 C 101.372687 10.047094 101.771125 12.312719 102.021125 12.515844 C 102.271125 12.718969 102.665656 11.422094 102.915656 9.828344 C 103.165656 8.230688 103.564094 3.687719 103.810187 1.01975 C 104.060187 -1.648219 104.458625 -7.116969 104.704719 -9.406031 C 104.954719 -11.699 105.353156 -14.964625 105.59925 -15.491969 C 105.84925 -16.023219 106.247687 -14.941187 106.493781 -13.222437 C 106.743781 -11.503687 107.142219 -6.288844 107.392219 -3.113062 C 107.638312 0.0627188 108.03675 6.742406 108.28675 9.664281 C 108.532844 12.586156 108.931281 16.984594 109.181281 17.949438 C 109.427375 18.918188 109.825812 18.316625 110.075812 16.625219 C 110.321906 14.929906 110.720344 9.312719 110.970344 5.7385 C 111.220344 2.164281 111.614875 -5.593531 111.864875 -9.132594 C 112.114875 -12.671656 112.513312 -18.277125 112.759406 -19.765406 C 113.009406 -21.249781 113.407844 -21.378687 113.653937 -19.847437 C 113.903937 -18.320094 114.302375 -12.585719 114.548469 -8.741969 C 114.798469 -4.898219 115.196906 3.750219 115.443 7.851781 C 115.693 11.95725 116.091437 18.777563 116.341437 20.840063 C 116.587531 22.902563 116.985969 23.953344 117.235969 22.718969 C 117.482062 21.484594 117.8805 15.926 118.1305 11.953344 C 118.376594 7.980688 118.775031 -1.324 119.025031 -5.913844 C 119.271125 -10.503687 119.669562 -18.468531 119.919562 -21.128687 C 120.169562 -23.784937 120.564094 -25.898219 120.814094 -25.074 C 121.064094 -24.249781 121.462531 -19.140406 121.708625 -15.187281 C 121.958625 -11.23025 122.357062 -1.538844 122.603156 3.429906 C 122.853156 8.398656 123.251594 17.383031 123.497687 20.625219 C 123.747687 23.867406 124.146125 27.121313 124.392219 26.789281 C 124.642219 26.461156 125.040656 22.043188 125.290656 18.250219 C 125.53675 14.45725 125.935187 4.668188 126.185187 -0.554469 C 126.431281 -5.773219 126.829719 -15.593531 127.079719 -19.370875 C 127.325812 -23.148219 127.72425 -27.554469 127.97425 -27.773219 C 128.220344 -27.995875 128.618781 -24.468531 128.868781 -20.968531 C 129.118781 -17.468531 129.513313 -7.870875 129.763313 -2.54275 C 130.013313 2.789281 130.41175 13.211156 130.657844 17.441625 C 130.907844 21.676 131.306281 27.172094 131.552375 27.968969 C 131.802375 28.765844 132.200813 26.281469 132.446906 23.187719 C 132.696906 20.093969 133.095344 10.965063 133.341438 5.672094 C 133.591438 0.379125 133.989875 -10.374781 134.239875 -14.960719 C 134.485969 -19.546656 134.884406 -26.0115 135.134406 -27.374781 C 135.3805 -28.734156 135.778938 -27.370875 136.028938 -24.769312 C 136.275031 -22.171656 136.673469 -13.7615 136.923469 -8.648219 C 137.169563 -3.534937 137.568 7.265844 137.818 12.074438 C 138.068 16.883031 138.462531 24.136938 138.712531 26.015844 C 138.962531 27.898656 139.360969 27.668188 139.607063 25.625219 C 139.857063 23.58225 140.2555 16.090063 140.501594 11.293188 C 140.751594 6.496313 141.150031 -4.062281 141.396125 -8.956812 C 141.646125 -13.851344 142.044563 -21.659937 142.290656 -23.98025 C 142.540656 -26.304469 142.939094 -27.159937 143.189094 -25.699 C 143.435188 -24.238062 143.833625 -17.816187 144.083625 -13.449 C 144.329719 -9.077906 144.728156 0.953344 144.978156 5.785375 C 145.22425 10.617406 145.622688 18.718969 145.872688 21.383031 C 146.118781 24.043188 146.517219 25.8635 146.767219 24.972875 C 147.017219 24.086156 147.41175 18.824438 147.66175 14.976781 C 147.91175 11.129125 148.310188 1.867406 148.556281 -2.757594 C 148.806281 -7.382594 149.204719 -15.488062 149.450813 -18.366969 C 149.700813 -21.241969 150.09925 -23.847437 150.345344 -23.491969 C 150.595344 -23.132594 150.993781 -19.050562 151.239875 -15.784937 C 151.489875 -12.519312 151.888313 -4.238062 152.138313 0.0470938 C 152.384406 4.33225 152.782844 12.152563 153.032844 15.101781 C 153.278938 18.054906 153.677375 21.222875 153.927375 21.320531 C 154.173469 21.422094 154.571906 18.468969 154.821906 15.812719 C 155.068 13.160375 155.466438 6.011938 155.716438 2.183813 C 155.966438 -1.644312 156.360969 -8.898219 156.610969 -11.781031 C 156.860969 -14.659937 157.259406 -18.124781 157.5055 -18.581812 C 157.7555 -19.034937 158.153938 -17.101344 158.400031 -15.050562 C 158.650031 -12.999781 159.048469 -7.081812 159.294563 -3.804469 C 159.544563 -0.523219 159.943 5.914281 160.189094 8.58225 C 160.439094 11.250219 160.837531 14.726781 161.087531 15.414281 C 161.333625 16.097875 161.732063 15.011938 161.982063 13.523656 C 162.228156 12.039281 162.626594 7.375219 162.876594 4.70725 C 163.122688 2.039281 163.521125 -3.374781 163.771125 -5.691187 C 164.017219 -8.007594 164.415656 -11.210719 164.665656 -11.991969 C 164.915656 -12.773219 165.310188 -12.304469 165.560188 -11.312281 C 165.810188 -10.320094 166.208625 -6.859156 166.454719 -4.835719 C 166.704719 -2.816187 167.103156 1.418188 167.34925 3.265844 C 167.59925 5.117406 167.997688 7.765844 168.243781 8.496313 C 168.493781 9.226781 168.892219 9.121313 169.138313 8.51975 C 169.388313 7.922094 169.78675 5.558813 170.03675 4.176 C 170.282844 2.793188 170.681281 -0.159937 170.931281 -1.449 C 171.177375 -2.738062 171.575813 -4.581812 171.825813 -5.116969 C 172.071906 -5.648219 172.470344 -5.620875 172.720344 -5.29275 C 172.966438 -4.968531 173.364875 -3.534937 173.614875 -2.753687 C 173.864875 -1.972437 174.259406 -0.324 174.509406 0.340063 C 174.759406 1.004125 175.157844 1.828344 175.403938 2.031469 C 175.653938 2.234594 176.052375 2.000219 176.298469 1.804906 C 176.548469 1.6135 176.946906 0.886938 177.193 0.636938 C 177.443 0.386938 178.087531 0.00021875 178.087531 0.00021875 " transform="matrix(1,0,0,-1,3.432,31.801)"/>
</g>
</g>
</svg>
