<?xml version="1.0" encoding="UTF-8"?>
<svg xmlns="http://www.w3.org/2000/svg" xmlns:xlink="http://www.w3.org/1999/xlink" width="112.367pt" height="125.123pt" viewBox="0 0 112.367 125.123" version="1.1">
<defs>
<clipPath id="clip1">
  <path d="M 0 82 L 35 82 L 35 125.121094 L 0 125.121094 Z M 0 82 "/>
</clipPath>
<clipPath id="clip2">
  <path d="M 24 82 L 62 82 L 62 125.121094 L 24 125.121094 Z M 24 82 "/>
</clipPath>
<clipPath id="clip3">
  <path d="M 51 82 L 89 82 L 89 125.121094 L 51 125.121094 Z M 51 82 "/>
</clipPath>
<clipPath id="clip4">
  <path d="M 78 82 L 112.367188 82 L 112.367188 125.121094 L 78 125.121094 Z M 78 82 "/>
</clipPath>
</defs>
<g id="surface1">
<path style=" stroke:none;fill-rule:nonzero;fill:rgb(100%,100%,100%);fill-opacity:1;" d="M 3.035156 118.769531 C 3.035156 120.605469 8.746094 122.089844 15.789062 122.089844 C 22.835938 122.089844 28.546875 120.605469 28.546875 118.769531 L 28.546875 91.394531 C 28.546875 89.5625 22.835938 88.074219 15.789062 88.074219 C 8.746094 88.074219 3.035156 89.5625 3.035156 91.394531 Z M 3.035156 91.394531 C 3.035156 93.230469 8.746094 94.714844 15.789062 94.714844 C 22.835938 94.714844 28.546875 93.230469 28.546875 91.394531 "/>
<g clip-path="url(#clip1)" clip-rule="nonzero">
<path style="fill:none;stroke-width:0.3985;stroke-linecap:butt;stroke-linejoin:miter;stroke:rgb(0%,0%,0%);stroke-opacity:1;stroke-miterlimit:10;" d="M -53.148844 -95.850531 C -53.148844 -97.686469 -47.437906 -99.170844 -40.394937 -99.170844 C -33.348062 -99.170844 -27.637125 -97.686469 -27.637125 -95.850531 L -27.637125 -68.475531 C -27.637125 -66.6435 -33.348062 -65.155219 -40.394937 -65.155219 C -47.437906 -65.155219 -53.148844 -66.6435 -53.148844 -68.475531 Z M -53.148844 -68.475531 C -53.148844 -70.311469 -47.437906 -71.795844 -40.394937 -71.795844 C -33.348062 -71.795844 -27.637125 -70.311469 -27.637125 -68.475531 " transform="matrix(1,0,0,-1,56.184,22.919)"/>
</g>
<path style=" stroke:none;fill-rule:nonzero;fill:rgb(100%,100%,100%);fill-opacity:1;" d="M 29.960938 118.769531 C 29.960938 120.605469 35.671875 122.089844 42.71875 122.089844 C 49.765625 122.089844 55.476562 120.605469 55.476562 118.769531 L 55.476562 91.394531 C 55.476562 89.5625 49.765625 88.074219 42.71875 88.074219 C 35.671875 88.074219 29.960938 89.5625 29.960938 91.394531 Z M 29.960938 91.394531 C 29.960938 93.230469 35.671875 94.714844 42.71875 94.714844 C 49.765625 94.714844 55.476562 93.230469 55.476562 91.394531 "/>
<g clip-path="url(#clip2)" clip-rule="nonzero">
<path style="fill:none;stroke-width:0.3985;stroke-linecap:butt;stroke-linejoin:miter;stroke:rgb(0%,0%,0%);stroke-opacity:1;stroke-miterlimit:10;" d="M -26.223062 -95.850531 C -26.223062 -97.686469 -20.512125 -99.170844 -13.46525 -99.170844 C -6.418375 -99.170844 -0.707437 -97.686469 -0.707437 -95.850531 L -0.707437 -68.475531 C -0.707437 -66.6435 -6.418375 -65.155219 -13.46525 -65.155219 C -20.512125 -65.155219 -26.223062 -66.6435 -26.223062 -68.475531 Z M -26.223062 -68.475531 C -26.223062 -70.311469 -20.512125 -71.795844 -13.46525 -71.795844 C -6.418375 -71.795844 -0.707437 -70.311469 -0.707437 -68.475531 " transform="matrix(1,0,0,-1,56.184,22.919)"/>
</g>
<path style=" stroke:none;fill-rule:nonzero;fill:rgb(100%,100%,100%);fill-opacity:1;" d="M 56.890625 118.769531 C 56.890625 120.605469 62.601562 122.089844 69.648438 122.089844 C 76.691406 122.089844 82.402344 120.605469 82.402344 118.769531 L 82.402344 91.394531 C 82.402344 89.5625 76.691406 88.074219 69.648438 88.074219 C 62.601562 88.074219 56.890625 89.5625 56.890625 91.394531 Z M 56.890625 91.394531 C 56.890625 93.230469 62.601562 94.714844 69.648438 94.714844 C 76.691406 94.714844 82.402344 93.230469 82.402344 91.394531 "/>
<g clip-path="url(#clip3)" clip-rule="nonzero">
<path style="fill:none;stroke-width:0.3985;stroke-linecap:butt;stroke-linejoin:miter;stroke:rgb(0%,0%,0%);stroke-opacity:1;stroke-miterlimit:10;" d="M 0.706625 -95.850531 C 0.706625 -97.686469 6.417563 -99.170844 13.464438 -99.170844 C 20.507406 -99.170844 26.218344 -97.686469 26.218344 -95.850531 L 26.218344 -68.475531 C 26.218344 -66.6435 20.507406 -65.155219 13.464438 -65.155219 C 6.417563 -65.155219 0.706625 -66.6435 0.706625 -68.475531 Z M 0.706625 -68.475531 C 0.706625 -70.311469 6.417563 -71.795844 13.464438 -71.795844 C 20.507406 -71.795844 26.218344 -70.311469 26.218344 -68.475531 " transform="matrix(1,0,0,-1,56.184,22.919)"/>
</g>
<path style=" stroke:none;fill-rule:nonzero;fill:rgb(100%,100%,100%);fill-opacity:1;" d="M 83.820312 118.769531 C 83.820312 120.605469 89.53125 122.089844 96.578125 122.089844 C 103.621094 122.089844 109.332031 120.605469 109.332031 118.769531 L 109.332031 91.394531 C 109.332031 89.5625 103.621094 88.074219 96.578125 88.074219 C 89.53125 88.074219 83.820312 89.5625 83.820312 91.394531 Z M 83.820312 91.394531 C 83.820312 93.230469 89.53125 94.714844 96.578125 94.714844 C 103.621094 94.714844 109.332031 93.230469 109.332031 91.394531 "/>
<g clip-path="url(#clip4)" clip-rule="nonzero">
<path style="fill:none;stroke-width:0.3985;stroke-linecap:butt;stroke-linejoin:miter;stroke:rgb(0%,0%,0%);stroke-opacity:1;stroke-miterlimit:10;" d="M 27.636313 -95.850531 C 27.636313 -97.686469 33.34725 -99.170844 40.394125 -99.170844 C 47.437094 -99.170844 53.148031 -97.686469 53.148031 -95.850531 L 53.148031 -68.475531 C 53.148031 -66.6435 47.437094 -65.155219 40.394125 -65.155219 C 33.34725 -65.155219 27.636313 -66.6435 27.636313 -68.475531 Z M 27.636313 -68.475531 C 27.636313 -70.311469 33.34725 -71.795844 40.394125 -71.795844 C 47.437094 -71.795844 53.148031 -70.311469 53.148031 -68.475531 " transform="matrix(1,0,0,-1,56.184,22.919)"/>
</g>
<path style="fill-rule:nonzero;fill:rgb(100%,100%,100%);fill-opacity:1;stroke-width:0.3985;stroke-linecap:butt;stroke-linejoin:miter;stroke:rgb(0%,0%,0%);stroke-opacity:1;stroke-miterlimit:10;" d="M -39.684 -67.502875 C -39.684 -69.338813 -33.973062 -70.823188 -26.930094 -70.823188 C -19.883219 -70.823188 -14.172281 -69.338813 -14.172281 -67.502875 L -14.172281 -40.127875 C -14.172281 -38.295844 -19.883219 -36.807563 -26.930094 -36.807563 C -33.973062 -36.807563 -39.684 -38.295844 -39.684 -40.127875 Z M -39.684 -40.127875 C -39.684 -41.963813 -33.973062 -43.448188 -26.930094 -43.448188 C -19.883219 -43.448188 -14.172281 -41.963813 -14.172281 -40.127875 " transform="matrix(1,0,0,-1,56.184,22.919)"/>
<path style="fill-rule:nonzero;fill:rgb(100%,100%,100%);fill-opacity:1;stroke-width:0.3985;stroke-linecap:butt;stroke-linejoin:miter;stroke:rgb(0%,0%,0%);stroke-opacity:1;stroke-miterlimit:10;" d="M -12.758219 -67.502875 C -12.758219 -69.338813 -7.047281 -70.823188 -0.00040625 -70.823188 C 7.046469 -70.823188 12.757406 -69.338813 12.757406 -67.502875 L 12.757406 -40.127875 C 12.757406 -38.295844 7.046469 -36.807563 -0.00040625 -36.807563 C -7.047281 -36.807563 -12.758219 -38.295844 -12.758219 -40.127875 Z M -12.758219 -40.127875 C -12.758219 -41.963813 -7.047281 -43.448188 -0.00040625 -43.448188 C 7.046469 -43.448188 12.757406 -41.963813 12.757406 -40.127875 " transform="matrix(1,0,0,-1,56.184,22.919)"/>
<path style="fill-rule:nonzero;fill:rgb(100%,100%,100%);fill-opacity:1;stroke-width:0.3985;stroke-linecap:butt;stroke-linejoin:miter;stroke:rgb(0%,0%,0%);stroke-opacity:1;stroke-miterlimit:10;" d="M 14.171469 -67.502875 C 14.171469 -69.338813 19.882406 -70.823188 26.929281 -70.823188 C 33.97225 -70.823188 39.683188 -69.338813 39.683188 -67.502875 L 39.683188 -40.127875 C 39.683188 -38.295844 33.97225 -36.807563 26.929281 -36.807563 C 19.882406 -36.807563 14.171469 -38.295844 14.171469 -40.127875 Z M 14.171469 -40.127875 C 14.171469 -41.963813 19.882406 -43.448188 26.929281 -43.448188 C 33.97225 -43.448188 39.683188 -41.963813 39.683188 -40.127875 " transform="matrix(1,0,0,-1,56.184,22.919)"/>
<path style="fill-rule:nonzero;fill:rgb(100%,100%,100%);fill-opacity:1;stroke-width:0.3985;stroke-linecap:butt;stroke-linejoin:miter;stroke:rgb(0%,0%,0%);stroke-opacity:1;stroke-miterlimit:10;" d="M -26.219156 -39.159125 C -26.219156 -40.991156 -20.508219 -42.479438 -13.46525 -42.479438 C -6.418375 -42.479438 -0.707437 -40.991156 -0.707437 -39.159125 L -0.707437 -11.780219 C -0.707437 -9.948188 -6.418375 -8.459906 -13.46525 -8.459906 C -20.508219 -8.459906 -26.219156 -9.948188 -26.219156 -11.780219 Z M -26.219156 -11.780219 C -26.219156 -13.616156 -20.508219 -15.104438 -13.46525 -15.104438 C -6.418375 -15.104438 -0.707437 -13.616156 -0.707437 -11.780219 " transform="matrix(1,0,0,-1,56.184,22.919)"/>
<path style="fill-rule:nonzero;fill:rgb(100%,100%,100%);fill-opacity:1;stroke-width:0.3985;stroke-linecap:butt;stroke-linejoin:miter;stroke:rgb(0%,0%,0%);stroke-opacity:1;stroke-miterlimit:10;" d="M 0.706625 -39.159125 C 0.706625 -40.991156 6.417563 -42.479438 13.464438 -42.479438 C 20.511313 -42.479438 26.22225 -40.991156 26.22225 -39.159125 L 26.22225 -11.780219 C 26.22225 -9.948188 20.511313 -8.459906 13.464438 -8.459906 C 6.417563 -8.459906 0.706625 -9.948188 0.706625 -11.780219 Z M 0.706625 -11.780219 C 0.706625 -13.616156 6.417563 -15.104438 13.464438 -15.104438 C 20.511313 -15.104438 26.22225 -13.616156 26.22225 -11.780219 " transform="matrix(1,0,0,-1,56.184,22.919)"/>
<path style="fill-rule:nonzero;fill:rgb(100%,100%,100%);fill-opacity:1;stroke-width:0.3985;stroke-linecap:butt;stroke-linejoin:miter;stroke:rgb(0%,0%,0%);stroke-opacity:1;stroke-miterlimit:10;" d="M -12.754312 -10.811469 C -12.754312 -12.6435 -7.043375 -14.131781 -0.00040625 -14.131781 C 7.046469 -14.131781 12.757406 -12.6435 12.757406 -10.811469 L 12.757406 16.563531 C 12.757406 18.399469 7.046469 19.883844 -0.00040625 19.883844 C -7.043375 19.883844 -12.754312 18.399469 -12.754312 16.563531 Z M -12.754312 16.563531 C -12.754312 14.7315 -7.043375 13.243219 -0.00040625 13.243219 C 7.046469 13.243219 12.757406 14.7315 12.757406 16.563531 " transform="matrix(1,0,0,-1,56.184,22.919)"/>
</g>
</svg>
