<?xml version="1.0" encoding="UTF-8"?>
<svg xmlns="http://www.w3.org/2000/svg" xmlns:xlink="http://www.w3.org/1999/xlink" width="273.789pt" height="250.703pt" viewBox="0 0 273.789 250.703" version="1.1">
<g id="surface1">
<path style="fill:none;stroke-width:0.3985;stroke-linecap:butt;stroke-linejoin:miter;stroke:rgb(0%,0%,0%);stroke-opacity:1;stroke-miterlimit:10;" d="M 0.00015625 0.00059375 C 0.00015625 0.00059375 40.957188 41.03575 54.863438 54.715437 C 68.773594 68.395125 89.929844 88.836531 100.230625 98.59825 C 110.531406 108.363875 123.968906 120.641219 129.097813 125.090437 C 134.230625 129.539656 137.972813 132.03575 137.211094 130.676375 C 136.449375 129.317 130.050938 122.020125 123.609531 115.293562 C 117.168125 108.567 101.800938 93.016219 90.781406 82.203719 C 79.761875 71.391219 57.984531 50.375594 44.195469 37.352156 C 30.410313 24.328719 5.750156 1.414656 -8.593594 -11.659563 C -22.94125 -24.737688 -46.562344 -45.847063 -59.202969 -56.90175 C -71.839687 -67.956438 -90.710781 -83.979875 -99.679531 -91.335344 C -108.652187 -98.686906 -119.906094 -107.265031 -123.851406 -109.893938 C -127.800625 -112.522844 -129.75375 -112.604875 -128.140469 -110.27675 C -126.527187 -107.952531 -119.054531 -99.850969 -112.2225 -93.132219 C -105.390469 -86.417375 -89.788906 -71.737688 -78.894375 -61.8705 C -67.999844 -52.003313 -46.870937 -33.33925 -33.69125 -22.011125 C -20.515469 -10.683 2.734531 8.844344 16.09 19.777937 C 29.441563 30.711531 51.129063 47.977156 62.554844 56.793562 C 73.980625 65.609969 90.703281 77.934187 98.43375 83.317 C 106.164219 88.699812 115.390781 94.34825 118.269688 95.578719 C 121.144688 96.809187 121.5275 95.145125 119.175938 92.188094 C 116.824375 89.234969 108.449375 80.789656 101.324375 74.277937 C 94.203281 67.766219 78.531406 54.156844 67.832188 45.266219 C 57.129063 36.3795 36.730625 19.977156 24.187656 10.219344 C 11.648594 0.457625 -10.179531 -16.030656 -22.554531 -25.077531 C -34.929531 -34.128313 -54.742031 -48.077531 -65.011562 -55.007219 C -75.281094 -61.936906 -89.992031 -71.233781 -96.570156 -75.02675 C -103.152187 -78.815813 -110.519375 -82.163469 -112.433437 -82.335344 C -114.3475 -82.511125 -113.343594 -79.608781 -110.363125 -76.280656 C -107.382656 -72.952531 -98.285 -64.518938 -90.956875 -58.354875 C -83.632656 -52.194719 -68.015469 -39.772844 -57.562344 -31.862688 C -47.113125 -23.952531 -27.523281 -9.683 -15.640469 -1.354875 C -3.757656 6.977156 16.648594 20.758406 28.070469 28.172469 C 39.492344 35.582625 57.500156 46.707625 66.672031 52.063094 C 75.847813 57.414656 88.664219 64.227156 94.179844 66.750594 C 99.695469 69.277937 105.379063 70.859969 106.429844 70.266219 C 107.476719 69.672469 105.257969 65.965437 101.74625 62.469344 C 98.238438 58.97325 88.578281 50.793562 81.132969 45.067 C 73.68375 39.336531 58.226719 28.149031 48.082188 21.184187 C 37.93375 14.22325 19.211094 1.926375 8.000156 -5.116594 C -3.206875 -12.159563 -22.206875 -23.573625 -32.699062 -29.573625 C -43.187344 -35.577531 -59.476406 -44.331438 -67.613125 -48.378313 C -75.749844 -52.429094 -86.804531 -57.222063 -91.339687 -58.749406 C -95.87875 -60.27675 -100.035 -60.52675 -100.320156 -59.393938 C -100.601406 -58.261125 -97.320156 -54.085344 -93.370937 -50.573625 C -89.421719 -47.058 -79.343594 -39.308 -71.851406 -34.069719 C -64.359219 -28.827531 -49.175625 -18.866594 -39.374844 -12.800188 C -29.574062 -6.733781 -11.749844 3.762312 -1.218594 9.66075 C 9.30875 15.559187 26.925938 24.906844 36.515781 29.707625 C 46.109531 34.5045 60.754063 41.262312 67.914219 44.242781 C 75.074375 47.227156 84.488438 50.430281 88.129063 51.192 C 91.773594 51.953719 94.562656 51.22325 94.168125 49.727156 C 93.773594 48.234969 89.597813 43.856062 85.293125 40.434187 C 80.988438 37.012312 70.613438 29.805281 63.136875 25.074812 C 55.660313 20.344344 40.828281 11.570906 31.410313 6.332625 C 21.988438 1.09825 5.101719 -7.77675 -4.749844 -12.667375 C -14.601406 -17.558 -30.867031 -25.132219 -39.5975 -28.913469 C -48.324062 -32.698625 -61.41 -37.811906 -67.656094 -39.929094 C -73.906094 -42.042375 -81.800625 -43.991594 -84.624844 -44.171281 C -87.449062 -44.350969 -89.00375 -42.936906 -88.015469 -41.229875 C -87.027187 -39.518938 -82.089687 -35.104875 -77.50375 -31.854875 C -72.921719 -28.600969 -62.37875 -22.011125 -54.976406 -17.796281 C -47.574062 -13.577531 -33.167812 -5.929094 -24.156094 -1.452531 C -15.144375 3.024031 0.793125 10.457625 9.972813 14.469344 C 19.148594 18.484969 34.09 24.543562 41.988438 27.47325 C 49.886875 30.406844 61.492344 34.176375 66.890781 35.606062 C 72.285313 37.031844 78.793125 38.0045 80.879063 37.758406 C 82.965 37.512312 83.425938 35.645125 81.922031 33.832625 C 80.422031 32.016219 74.851719 27.715437 70.05875 24.684187 C 65.261875 21.649031 54.648594 15.695906 47.367344 11.977156 C 40.086094 8.258406 26.168125 1.66075 17.586094 -2.128313 C 9.004063 -5.921281 -5.9725 -12.08925 -14.484219 -15.347063 C -22.995937 -18.604875 -36.663906 -23.382219 -43.769375 -25.608781 C -50.874844 -27.835344 -61.093594 -30.511125 -65.699062 -31.393938 C -70.304531 -32.27675 -75.538906 -32.518938 -76.960781 -31.972063 C -78.37875 -31.421281 -77.867031 -29.280656 -75.925625 -27.444719 C -73.984219 -25.612688 -67.906094 -21.522844 -62.964687 -18.741594 C -58.023281 -15.960344 -47.421719 -10.647844 -40.304531 -7.40175 C -33.187344 -4.15175 -19.808437 1.484969 -11.671719 4.668562 C -3.531094 7.84825 10.480625 12.91075 18.34 15.524031 C 26.203281 18.133406 38.640781 21.836531 44.99625 23.484969 C 51.351719 25.133406 60.273594 26.942 64.144688 27.402937 C 68.019688 27.863875 72.093906 27.570906 72.914219 26.820906 C 73.734531 26.070906 72.367344 23.797469 70.054844 22.000594 C 67.738438 20.203719 61.265781 16.383406 56.230625 13.867781 C 51.199375 11.34825 40.699375 6.664656 33.781406 3.859969 C 26.863438 1.051375 14.05875 -3.725969 6.379063 -6.3705 C -1.304531 -9.011125 -14.363125 -13.124406 -21.593594 -15.186906 C -28.820156 -17.253313 -40.074062 -20.065813 -45.7225 -21.2455 C -51.367031 -22.425188 -59.081875 -23.546281 -62.281094 -23.690813 C -65.480312 -23.835344 -68.495937 -23.155656 -68.781094 -22.280656 C -69.070156 -21.405656 -66.976406 -19.097063 -64.351406 -17.382219 C -61.730312 -15.667375 -54.945156 -12.167375 -49.870937 -9.917375 C -44.796719 -7.667375 -34.468594 -3.573625 -27.781094 -1.171281 C -21.093594 1.234969 -8.894375 5.242781 -1.671719 7.414656 C 5.550938 9.586531 17.668125 12.875594 24.281406 14.481062 C 30.898594 16.086531 41.0275 18.176375 46.004063 18.981062 C 50.980625 19.78575 57.562656 20.375594 60.144688 20.28575 C 62.726719 20.192 64.793125 19.258406 64.609531 18.317 C 64.425938 17.3795 61.703281 15.117781 58.828281 13.516219 C 55.953281 11.91075 48.961094 8.738875 43.890781 6.750594 C 38.820469 4.762312 28.718906 1.227156 22.285313 -0.811906 C 15.851719 -2.850969 4.289219 -6.179094 -2.4725 -7.948625 C -9.238125 -9.71425 -20.437344 -12.323625 -26.460781 -13.550188 C -32.488125 -14.772844 -41.554531 -16.268938 -45.902187 -16.77675 C -50.25375 -17.284563 -55.792812 -17.46425 -57.812344 -17.202531 C -59.827969 -16.944719 -61.042812 -15.850969 -60.445156 -14.893938 C -59.8475 -13.933 -56.585781 -11.77675 -53.511562 -10.300188 C -50.437344 -8.823625 -43.312344 -5.9955 -38.285 -4.257219 C -33.257656 -2.518938 -23.44125 0.512312 -17.281094 2.227156 C -11.120937 3.942 -0.199062 6.684187 6.105625 8.102156 C 12.414219 9.524031 22.715 11.551375 28.172031 12.461531 C 33.632969 13.371687 41.68375 14.383406 45.449375 14.656844 C 49.211094 14.934187 53.793125 14.828719 55.297031 14.453719 C 56.804844 14.078719 57.254063 12.906844 56.300938 11.965437 C 55.347813 11.020125 51.6525 8.996687 48.425938 7.656844 C 45.203281 6.320906 38.015781 3.820906 33.062656 2.317 C 28.113438 0.813094 18.613438 -1.757219 12.742344 -3.186906 C 6.87125 -4.612688 -3.402187 -6.83925 -9.257656 -7.96425 C -15.109219 -9.08925 -24.531094 -10.643938 -29.449062 -11.300188 C -34.367031 -11.956438 -41.476406 -12.593156 -44.699062 -12.694719 C -47.917812 -12.792375 -51.617031 -12.468156 -52.66 -12.022844 C -53.706875 -11.577531 -53.484219 -10.378313 -52.2225 -9.475969 C -50.960781 -8.573625 -46.906094 -6.718156 -43.574062 -5.518938 C -40.242031 -4.319719 -33.054531 -2.128313 -28.206875 -0.83925 C -23.363125 0.453719 -14.218594 2.609969 -8.648281 3.78575 C -3.077969 4.961531 6.539219 6.7545 11.949375 7.633406 C 17.363438 8.508406 25.949375 9.66075 30.351719 10.113875 C 34.754063 10.567 40.965 10.922469 43.68375 10.895125 C 46.398594 10.867781 49.304844 10.391219 49.937656 9.906844 C 50.566563 9.418562 49.74625 8.231062 48.222813 7.387312 C 46.699375 6.539656 42.363438 4.856062 38.961094 3.797469 C 35.562656 2.738875 28.43375 0.840437 23.718906 -0.253313 C 19.004063 -1.350969 10.250156 -3.15175 4.984531 -4.108781 C -0.281094 -5.065813 -9.25375 -6.483781 -14.234219 -7.155656 C -19.214687 -7.827531 -26.995937 -8.663469 -30.91 -8.952531 C -34.827969 -9.2455 -40.206875 -9.378313 -42.460781 -9.257219 C -44.710781 -9.136125 -46.882656 -8.573625 -47.144375 -8.073625 C -47.406094 -7.573625 -46.077969 -6.436906 -44.339687 -5.655656 C -42.601406 -4.874406 -38.042812 -3.362688 -34.609219 -2.433 C -31.175625 -1.503313 -24.144375 0.121687 -19.581875 1.043562 C -15.019375 1.969344 -6.675625 3.449812 -1.7225 4.219344 C 3.234531 4.988875 11.566563 6.094344 16.129063 6.59825 C 20.687656 7.102156 27.695469 7.680281 31.1525 7.844344 C 34.609531 8.008406 39.218906 7.977156 41.047031 7.793562 C 42.875156 7.606062 44.390781 6.996687 44.328281 6.5045 C 44.261875 6.008406 42.49625 4.938094 40.578281 4.227156 C 38.660313 3.516219 33.941563 2.180281 30.504063 1.371687 C 27.066563 0.567 20.187656 -0.815813 15.793125 -1.585344 C 11.4025 -2.354875 3.484531 -3.558 -1.16 -4.171281 C -5.800625 -4.784563 -13.507656 -5.632219 -17.667812 -5.9955 C -21.824062 -6.362688 -28.105312 -6.737688 -31.132656 -6.808 C -34.16 -6.878313 -38.046719 -6.722063 -39.484219 -6.491594 C -40.921719 -6.265031 -41.839687 -5.632219 -41.488125 -5.155656 C -41.136562 -4.679094 -39.00375 -3.698625 -36.949062 -3.061906 C -34.890469 -2.425188 -30.074062 -1.253313 -26.66 -0.561906 C -23.245937 0.1295 -16.554531 1.289656 -12.343594 1.926375 C -8.132656 2.563094 -0.644375 3.539656 3.687656 4.020125 C 8.019688 4.500594 15.109531 5.1295 18.879063 5.383406 C 22.6525 5.637312 28.24625 5.852156 30.87125 5.84825 C 33.49625 5.844344 36.715 5.613875 37.800938 5.359969 C 38.882969 5.109969 39.285313 4.481062 38.68375 4.031844 C 38.082188 3.582625 35.632969 2.695906 33.465 2.1295 C 31.297031 1.567 26.429844 0.547469 23.066563 -0.042375 C 19.699375 -0.632219 13.222813 -1.600969 9.207188 -2.1205 C 5.191563 -2.640031 -1.855312 -3.413469 -5.87875 -3.780656 C -9.906094 -4.15175 -16.406094 -4.616594 -19.804531 -4.780656 C -23.206875 -4.944719 -28.144375 -5.022844 -30.394375 -4.96425 C -32.644375 -4.909563 -35.265469 -4.636125 -36.031094 -4.378313 C -36.796719 -4.1205 -36.7225 -3.518938 -35.906094 -3.104875 C -35.089687 -2.686906 -32.394375 -1.882219 -30.148281 -1.386125 C -27.906094 -0.890031 -23.027187 -0.0189375 -19.726406 0.477156 C -16.429531 0.97325 -10.19125 1.777937 -6.374844 2.195906 C -2.562344 2.617781 4.043125 3.227156 7.765781 3.500594 C 11.488438 3.777937 17.418125 4.090437 20.465 4.184187 C 23.515781 4.277937 27.836094 4.277937 29.738438 4.188094 C 31.640781 4.094344 33.707188 3.777937 34.18375 3.520125 C 34.664219 3.262312 34.191563 2.707625 33.191563 2.332625 C 32.195469 1.953719 29.293125 1.238875 26.99625 0.805281 C 24.699375 0.375594 19.851719 -0.366594 16.636875 -0.780656 C 13.425938 -1.194719 7.445469 -1.854875 3.836094 -2.186906 C 0.230625 -2.518938 -5.933437 -2.979875 -9.363125 -3.183 C -12.792812 -3.382219 -18.171719 -3.597063 -20.886562 -3.640031 C -23.601406 -3.683 -27.343594 -3.616594 -28.929531 -3.499406 C -30.515469 -3.386125 -32.085781 -3.058 -32.308437 -2.808 C -32.531094 -2.558 -31.699062 -2.038469 -30.546719 -1.698625 C -29.398281 -1.358781 -26.335781 -0.733781 -24.011562 -0.362688 C -21.687344 0.00840625 -16.91 0.633406 -13.796719 0.977156 C -10.683437 1.320906 -4.9725 1.852156 -1.574062 2.113875 C 1.824375 2.375594 7.550938 2.72325 10.695469 2.863875 C 13.84 3.0045 18.68375 3.121687 21.082188 3.125594 C 23.484531 3.1295 26.707188 3.020125 28.000156 2.891219 C 29.293125 2.762312 30.4025 2.442 30.4025 2.207625 C 30.398594 1.969344 29.257969 1.492781 27.980625 1.192 C 26.703281 0.891219 23.523594 0.344344 21.195469 0.0279375 C 18.863438 -0.288469 14.179844 -0.808 11.179844 -1.08925 C 8.179844 -1.366594 2.761875 -1.788469 -0.425625 -1.987688 C -3.613125 -2.190813 -8.917812 -2.444719 -11.785 -2.538469 C -14.656094 -2.632219 -18.999844 -2.698625 -21.105312 -2.675188 C -23.210781 -2.65175 -25.94125 -2.503313 -26.964687 -2.366594 C -27.988125 -2.229875 -28.695156 -1.913469 -28.488125 -1.694719 C -28.285 -1.475969 -26.870937 -1.050188 -25.492031 -0.788469 C -24.113125 -0.522844 -20.870937 -0.0540938 -18.554531 0.211531 C -16.238125 0.481062 -11.675625 0.914656 -8.796719 1.141219 C -5.921719 1.367781 -0.788906 1.695906 2.18375 1.84825 C 5.160313 2.000594 10.039219 2.180281 12.644688 2.238875 C 15.250156 2.297469 19.125156 2.305281 20.957188 2.258406 C 22.785313 2.215437 25.05875 2.043562 25.84 1.906844 C 26.62125 1.770125 26.961094 1.477156 26.582188 1.277937 C 26.203281 1.078719 24.570469 0.699812 23.113438 0.469344 C 21.656406 0.238875 18.367344 -0.159563 16.082188 -0.382219 C 13.793125 -0.604875 9.379063 -0.960344 6.632969 -1.140031 C 3.886875 -1.319719 -0.945156 -1.573625 -3.714687 -1.683 C -6.480312 -1.796281 -10.956875 -1.925188 -13.308437 -1.952531 C -15.66 -1.979875 -19.089687 -1.948625 -20.663906 -1.886125 C -22.238125 -1.827531 -24.0975 -1.655656 -24.656094 -1.522844 C -25.214687 -1.393938 -25.218594 -1.116594 -24.687344 -0.936906 C -24.16 -0.757219 -22.359219 -0.421281 -20.8475 -0.225969 C -19.335781 -0.02675 -16.035 0.309187 -13.788906 0.492781 C -11.546719 0.676375 -7.285 0.965437 -4.671719 1.109969 C -2.062344 1.250594 2.465 1.442 5.0275 1.520125 C 7.59 1.59825 11.679844 1.676375 13.793125 1.680281 C 15.9025 1.684187 18.906406 1.621687 20.242344 1.555281 C 21.574375 1.488875 23.050938 1.320906 23.410313 1.199812 C 23.769688 1.074812 23.492344 0.824812 22.836094 0.664656 C 22.18375 0.5045 20.238438 0.211531 18.691563 0.0435625 C 17.140781 -0.124406 13.855625 -0.405656 11.664219 -0.558 C 9.476719 -0.710344 5.390781 -0.936906 2.918125 -1.046281 C 0.445469 -1.155656 -3.788906 -1.300188 -6.148281 -1.350969 C -8.511562 -1.405656 -12.2225 -1.440813 -14.101406 -1.429094 C -15.984219 -1.417375 -18.5975 -1.343156 -19.710781 -1.27675 C -20.824062 -1.206438 -21.956875 -1.046281 -22.140469 -0.933 C -22.324062 -0.815813 -21.792812 -0.58925 -21.031094 -0.444719 C -20.269375 -0.304094 -18.218594 -0.0540938 -16.648281 0.0904375 C -15.077969 0.234969 -11.824062 0.469344 -9.702969 0.594344 C -7.577969 0.715437 -3.679531 0.899031 -1.351406 0.981062 C 0.980625 1.067 4.914219 1.164656 7.082188 1.199812 C 9.250156 1.231062 12.601719 1.238875 14.269688 1.219344 C 15.937656 1.195906 18.18375 1.109969 19.097813 1.039656 C 20.007969 0.969344 20.816563 0.813094 20.84 0.703719 C 20.867344 0.59825 20.140781 0.395125 19.289219 0.274031 C 18.441563 0.149031 16.297031 -0.0658125 14.718906 -0.186906 C 13.136875 -0.308 9.953281 -0.499406 7.906406 -0.600969 C 5.855625 -0.698625 2.148594 -0.835344 -0.0389062 -0.897844 C -2.226406 -0.960344 -5.870937 -1.02675 -7.8475 -1.046281 C -9.827969 -1.061906 -12.839687 -1.046281 -14.304531 -1.018938 C -15.769375 -0.987688 -17.679531 -0.90175 -18.41 -0.831438 C -19.136562 -0.765031 -19.663906 -0.616594 -19.550625 -0.522844 C -19.437344 -0.425188 -18.519375 -0.2455 -17.5975 -0.140031 C -16.675625 -0.0306563 -14.480312 0.149031 -12.906094 0.250594 C -11.335781 0.34825 -8.226406 0.5045 -6.261562 0.582625 C -4.296719 0.66075 -0.781094 0.766219 1.261875 0.809187 C 3.304844 0.856062 6.672031 0.895125 8.468906 0.902937 C 10.269688 0.906844 12.949375 0.8795 14.226719 0.844344 C 15.500156 0.813094 17.101719 0.72325 17.660313 0.656844 C 18.218906 0.590437 18.488438 0.457625 18.254063 0.371687 C 18.019688 0.281844 16.949375 0.1295 15.972813 0.03575 C 14.99625 -0.0540938 12.761875 -0.206438 11.207188 -0.288469 C 9.6525 -0.3705 6.640781 -0.4955 4.765781 -0.554094 C 2.886875 -0.616594 -0.421719 -0.690813 -2.324062 -0.722063 C -4.226406 -0.753313 -7.31625 -0.772844 -8.94125 -0.768938 C -10.56625 -0.765031 -12.94125 -0.729875 -14.038906 -0.694719 C -15.136562 -0.659563 -16.44125 -0.569719 -16.851406 -0.507219 C -17.257656 -0.448625 -17.31625 -0.327531 -16.976406 -0.249406 C -16.640469 -0.175188 -15.437344 -0.042375 -14.417812 0.03575 C -13.398281 0.113875 -11.16 0.238875 -9.632656 0.305281 C -8.105312 0.375594 -5.199062 0.47325 -3.413906 0.520125 C -1.624844 0.563094 1.480625 0.617781 3.242344 0.637312 C 5.007969 0.656844 7.828281 0.664656 9.289219 0.652937 C 10.750156 0.641219 12.843906 0.59825 13.7775 0.563094 C 14.711094 0.524031 15.750156 0.442 16.015781 0.387312 C 16.285313 0.332625 16.140781 0.22325 15.711094 0.156844 C 15.285313 0.0904375 13.984531 -0.0228438 12.937656 -0.08925 C 11.890781 -0.15175 9.664219 -0.257219 8.172031 -0.311906 C 6.68375 -0.366594 3.890781 -0.440813 2.195469 -0.475969 C 0.504063 -0.511125 -2.402187 -0.546281 -4.027187 -0.558 C -5.652187 -0.569719 -8.210781 -0.565813 -9.515469 -0.550188 C -10.820156 -0.534563 -12.652187 -0.487688 -13.433437 -0.452531 C -14.218594 -0.417375 -15.019375 -0.33925 -15.163906 -0.288469 C -15.308437 -0.237688 -14.980312 -0.140031 -14.480312 -0.0814375 C -13.976406 -0.02675 -12.601406 0.0709062 -11.538906 0.121687 C -10.476406 0.176375 -8.265469 0.262312 -6.820156 0.305281 C -5.370937 0.34825 -2.706875 0.406844 -1.109219 0.430281 C 0.488438 0.453719 3.195469 0.477156 4.687656 0.481062 C 6.179844 0.484969 8.492344 0.47325 9.648594 0.457625 C 10.804844 0.438094 12.375156 0.391219 13.019688 0.356062 C 13.664219 0.320906 14.250156 0.250594 14.289219 0.203719 C 14.328281 0.16075 13.855625 0.0787187 13.289219 0.0279375 C 12.722813 -0.0189375 11.285313 -0.100969 10.215 -0.147844 C 9.144688 -0.190813 6.980625 -0.257219 5.582188 -0.292375 C 4.18375 -0.323625 1.644688 -0.366594 0.144688 -0.386125 C -1.355312 -0.40175 -3.863125 -0.413469 -5.230312 -0.413469 C -6.593594 -0.413469 -8.679531 -0.393938 -9.695156 -0.374406 C -10.710781 -0.354875 -12.046719 -0.308 -12.562344 -0.27675 C -13.074062 -0.2455 -13.464687 -0.179094 -13.406094 -0.140031 C -13.3475 -0.100969 -12.75375 -0.0306563 -12.140469 0.0123125 C -11.523281 0.051375 -10.035 0.121687 -8.968594 0.156844 C -7.902187 0.195906 -5.788906 0.246687 -4.449062 0.274031 C -3.105312 0.297469 -0.702969 0.328719 0.699375 0.340437 C 2.101719 0.352156 4.418125 0.356062 5.660313 0.352156 C 6.9025 0.344344 8.761875 0.324812 9.6525 0.305281 C 10.539219 0.28575 11.664219 0.242781 12.062656 0.211531 C 12.465 0.180281 12.68375 0.125594 12.539219 0.0904375 C 12.394688 0.0552812 11.691563 -0.00721875 11.035313 -0.042375 C 10.379063 -0.0775313 8.863438 -0.132219 7.80875 -0.163469 C 6.750156 -0.190813 4.703281 -0.233781 3.418125 -0.253313 C 2.136875 -0.272844 -0.136562 -0.292375 -1.445156 -0.300188 C -2.749844 -0.304094 -4.87875 -0.300188 -5.999844 -0.292375 C -7.124844 -0.288469 -8.777187 -0.265031 -9.542812 -0.2455 C -10.308437 -0.225969 -11.230312 -0.183 -11.523281 -0.159563 C -11.81625 -0.132219 -11.870937 -0.0814375 -11.656094 -0.0501875 C -11.44125 -0.0189375 -10.652187 0.0318437 -9.968594 0.0591875 C -9.285 0.0904375 -7.765469 0.137312 -6.726406 0.16075 C -5.687344 0.184187 -3.702969 0.215437 -2.484219 0.227156 C -1.261562 0.238875 0.87125 0.2545 2.082188 0.258406 C 3.293125 0.258406 5.242344 0.2545 6.254063 0.242781 C 7.265781 0.234969 8.715 0.211531 9.367344 0.195906 C 10.019688 0.176375 10.761875 0.137312 10.961094 0.113875 C 11.164219 0.0904375 11.09 0.0435625 10.812656 0.0162187 C 10.531406 -0.00721875 9.656406 -0.0501875 8.949375 -0.073625 C 8.242344 -0.0970625 6.734531 -0.136125 5.718906 -0.15175 C 4.707188 -0.171281 2.800938 -0.194719 1.640781 -0.206438 C 0.480625 -0.21425 -1.511562 -0.222063 -2.632656 -0.222063 C -3.749844 -0.222063 -5.523281 -0.21425 -6.425625 -0.202531 C -7.327969 -0.194719 -8.593594 -0.167375 -9.144375 -0.15175 C -9.69125 -0.132219 -10.269375 -0.100969 -10.382656 -0.0775313 C -10.495937 -0.058 -10.300625 -0.0189375 -9.968594 0.00059375 C -9.636562 0.0240312 -8.710781 0.0591875 -7.992031 0.0787187 C -7.273281 0.09825 -5.781094 0.1295 -4.796719 0.141219 C -3.812344 0.156844 -1.984219 0.172469 -0.890469 0.180281 C 0.207188 0.184187 2.062656 0.188094 3.093906 0.184187 C 4.12125 0.184187 5.718906 0.172469 6.523594 0.164656 C 7.324375 0.152937 8.425938 0.1295 8.879063 0.113875 C 9.332188 0.09825 9.754063 0.067 9.793125 0.051375 C 9.832188 0.0318437 9.539219 0.00059375 9.164219 -0.0189375 C 8.789219 -0.0384688 7.812656 -0.0697188 7.09 -0.0853438 C 6.363438 -0.100969 4.894688 -0.1205 3.941563 -0.132219 C 2.988438 -0.143938 1.24625 -0.155656 0.218906 -0.159563 C -0.812344 -0.159563 -2.535 -0.159563 -3.476406 -0.159563 C -4.417812 -0.155656 -5.863125 -0.140031 -6.56625 -0.132219 C -7.273281 -0.1205 -8.202969 -0.100969 -8.570156 -0.0853438 C -8.933437 -0.073625 -9.226406 -0.042375 -9.199062 -0.02675 C -9.171719 -0.011125 -8.781094 0.0162187 -8.370937 0.0318437 C -7.960781 0.0474687 -6.960781 0.0709062 -6.238125 0.082625 C -5.515469 0.0943437 -4.074062 0.113875 -3.156094 0.121687 C -2.242031 0.1295 -0.593594 0.137312 0.37125 0.137312 C 1.332188 0.141219 2.925938 0.133406 3.785313 0.1295 C 4.640781 0.125594 5.93375 0.113875 6.550938 0.102156 C 7.168125 0.0943437 7.953281 0.0748125 8.238438 0.0630937 C 8.523594 0.051375 8.695469 0.0240312 8.605625 0.0123125 C 8.519688 -0.0033125 8.054844 -0.0228438 7.613438 -0.0384688 C 7.175938 -0.0501875 6.156406 -0.0697188 5.437656 -0.0814375 C 4.722813 -0.08925 3.320469 -0.104875 2.445469 -0.108781 C 1.566563 -0.112688 0.011875 -0.116594 -0.886562 -0.116594 C -1.785 -0.116594 -3.249844 -0.112688 -4.023281 -0.108781 C -4.800625 -0.104875 -5.94125 -0.08925 -6.476406 -0.0814375 C -7.011562 -0.073625 -7.667812 -0.0540938 -7.882656 -0.042375 C -8.0975 -0.0306563 -8.152187 -0.011125 -8.015469 0.00059375 C -7.874844 0.0123125 -7.343594 0.0318437 -6.882656 0.0396562 C -6.421719 0.051375 -5.402187 0.067 -4.695156 0.0748125 C -3.988125 0.082625 -2.632656 0.0904375 -1.796719 0.0943437 C -0.960781 0.09825 0.500156 0.102156 1.332188 0.09825 C 2.164219 0.09825 3.504063 0.0943437 4.203281 0.0904375 C 4.9025 0.082625 5.914219 0.0709062 6.37125 0.0630937 C 6.828281 0.0552812 7.359531 0.0396562 7.504063 0.0279375 C 7.6525 0.0162187 7.609531 0.00059375 7.425938 -0.00721875 C 7.24625 -0.0189375 6.668125 -0.0345625 6.191563 -0.042375 C 5.715 -0.0501875 4.691563 -0.0619063 4.004063 -0.0697188 C 3.312656 -0.073625 2.011875 -0.0814375 1.218906 -0.0853438 C 0.422031 -0.0853438 -0.949062 -0.0853438 -1.718594 -0.0853438 C -2.488125 -0.0814375 -3.702969 -0.0775313 -4.327969 -0.0697188 C -4.956875 -0.0658125 -5.839687 -0.0540938 -6.2225 -0.0462813 C -6.609219 -0.0384688 -7.019375 -0.0228438 -7.105312 -0.0150313 C -7.195156 -0.00721875 -7.077969 0.00840625 -6.859219 0.0162187 C -6.640469 0.0240312 -6.023281 0.03575 -5.535 0.0435625 C -5.050625 0.051375 -4.035 0.0591875 -3.363125 0.0630937 C -2.69125 0.067 -1.445156 0.0709062 -0.695156 0.0709062 C 0.0548438 0.0709062 1.328281 0.0748125 2.035313 0.0709062 C 2.74625 0.0709062 3.847813 0.0630937 4.406406 0.0552812 C 4.961094 0.051375 5.734531 0.0396562 6.054844 0.0318437 C 6.375156 0.0240312 6.679844 0.0123125 6.715 0.0045 C 6.750156 0.00059375 6.55875 -0.011125 6.30875 -0.0189375 C 6.05875 -0.0228438 5.406406 -0.0345625 4.914219 -0.042375 C 4.425938 -0.0462813 3.422031 -0.0540938 2.773594 -0.058 C 2.12125 -0.058 0.937656 -0.0619063 0.230625 -0.0619063 C -0.4725 -0.0619063 -1.66 -0.0619063 -2.308437 -0.058 C -2.956875 -0.0540938 -3.949062 -0.0462813 -4.44125 -0.042375 C -4.929531 -0.0384688 -5.589687 -0.0306563 -5.851406 -0.0228438 C -6.109219 -0.0189375 -6.31625 -0.00721875 -6.304531 0.00059375 C -6.292812 0.0045 -6.050625 0.0123125 -5.777187 0.020125 C -5.50375 0.0240312 -4.824062 0.03575 -4.331875 0.0396562 C -3.839687 0.0435625 -2.863125 0.0474687 -2.238125 0.051375 C -1.613125 0.051375 -0.484219 0.051375 0.175938 0.051375 C 0.836094 0.051375 1.93375 0.0474687 2.5275 0.0435625 C 3.117344 0.0435625 4.004063 0.0396562 4.43375 0.03575 C 4.867344 0.0318437 5.422031 0.020125 5.625156 0.0162187 C 5.828281 0.00840625 5.949375 0.0045 5.898594 -0.0033125 C 5.843906 -0.00721875 5.543125 -0.0150313 5.250156 -0.0228438 C 4.957188 -0.02675 4.273594 -0.0345625 3.785313 -0.0384688 C 3.300938 -0.0384688 2.347813 -0.0462813 1.74625 -0.0462813 C 1.148594 -0.0462813 0.0821875 -0.042375 -0.535 -0.042375 C -1.152187 -0.042375 -2.16 -0.042375 -2.695156 -0.0384688 C -3.234219 -0.0345625 -4.027187 -0.02675 -4.402187 -0.0228438 C -4.773281 -0.0189375 -5.234219 -0.011125 -5.386562 -0.00721875 C -5.542812 -0.0033125 -5.5975 0.00059375 -5.511562 0.0045 C -5.421719 0.0123125 -5.062344 0.0162187 -4.75375 0.020125 C -4.44125 0.0240312 -3.749844 0.0318437 -3.273281 0.0318437 C -2.792812 0.03575 -1.867031 0.03575 -1.296719 0.03575 C -0.726406 0.03575 0.273594 0.03575 0.843906 0.03575 C 1.418125 0.03575 2.343906 0.0318437 2.828281 0.0318437 C 3.30875 0.0279375 4.011875 0.020125 4.328281 0.0162187 C 4.648594 0.0123125 5.019688 0.00840625 5.129063 0.0045 C 5.234531 0.00059375 5.222813 -0.00721875 5.105625 -0.00721875 C 4.988438 -0.011125 4.601719 -0.0150313 4.281406 -0.0189375 C 3.961094 -0.0228438 3.265781 -0.0306563 2.797031 -0.0306563 C 2.328281 -0.0306563 1.437656 -0.0306563 0.894688 -0.0306563 C 0.351719 -0.0306563 -0.585781 -0.0306563 -1.117031 -0.0306563 C -1.644375 -0.0306563 -2.488125 -0.02675 -2.921719 -0.0228438 C -3.355312 -0.0228438 -3.968594 -0.0150313 -4.238125 -0.011125 C -4.507656 -0.011125 -4.796719 -0.0033125 -4.863125 0.00059375 C -4.929531 0.0045 -4.855312 0.00840625 -4.714687 0.0123125 C -4.574062 0.0123125 -4.163906 0.0162187 -3.839687 0.020125 C -3.511562 0.020125 -2.81625 0.0240312 -2.359219 0.0240312 C -1.902187 0.0279375 -1.050625 0.0279375 -0.535 0.0240312 C -0.0232812 0.0240312 0.851719 0.0240312 1.34 0.0240312 C 1.828281 0.0240312 2.593906 0.020125 2.980625 0.0162187 C 3.367344 0.0162187 3.894688 0.0123125 4.12125 0.00840625 C 4.343906 0.0045 4.570469 0.0045 4.601719 0.00059375 C 4.632969 -0.0033125 4.511875 -0.00721875 4.343906 -0.011125 C 4.179844 -0.0150313 3.738438 -0.0189375 3.406406 -0.0189375 C 3.074375 -0.0189375 2.398594 -0.0228438 1.953281 -0.0228438 C 1.511875 -0.0228438 0.699375 -0.0228438 0.215 -0.0228438 C -0.269375 -0.0228438 -1.085781 -0.0189375 -1.531094 -0.0189375 C -1.976406 -0.0189375 -2.663906 -0.0150313 -3.00375 -0.011125 C -3.343594 -0.011125 -3.808437 -0.00721875 -3.992031 -0.0033125 C -4.171719 -0.0033125 -4.324062 0.00059375 -4.320156 0.00059375 C -4.320156 0.0045 -4.163906 0.00840625 -3.980312 0.0123125 C -3.796719 0.0123125 -3.335781 0.0162187 -3.00375 0.0162187 C -2.671719 0.020125 -2.007656 0.020125 -1.581875 0.020125 C -1.156094 0.020125 -0.386562 0.0162187 0.0665625 0.0162187 C 0.519688 0.0162187 1.273594 0.0162187 1.68375 0.0162187 C 2.09 0.0123125 2.707188 0.00840625 3.007969 0.00840625 C 3.30875 0.00840625 3.699375 0.0045 3.843906 0.00059375 C 3.988438 0.00059375 4.078281 -0.0033125 4.047031 -0.0033125 C 4.015781 -0.00721875 3.816563 -0.00721875 3.62125 -0.00721875 C 3.425938 -0.011125 2.965 -0.011125 2.636875 -0.011125 C 2.304844 -0.0150313 1.6525 -0.0150313 1.242344 -0.0150313 C 0.832188 -0.0150313 0.105625 -0.0150313 -0.31625 -0.0150313 C -0.742031 -0.0150313 -1.437344 -0.0150313 -1.804531 -0.011125 C -2.175625 -0.011125 -2.726406 -0.00721875 -2.988125 -0.00721875 C -3.245937 -0.0033125 -3.574062 0.00059375 -3.683437 0.00059375 C -3.792812 0.00059375 -3.827969 0.00059375 -3.773281 0.00059375 C -3.714687 0.00059375 -3.488125 0.00059375 -3.281094 0.00059375 C -3.074062 0.00059375 -2.605312 0.00059375 -2.281094 0.00059375 C -1.952969 0.00059375 -1.324062 0.00059375 -0.933437 0.00059375 C -0.542812 0.00059375 0.140781 0.00059375 0.535313 0.00059375 C 0.925938 0.00059375 1.562656 0.00059375 1.898594 0.00059375 C 2.234531 0.00059375 2.722813 0.00059375 2.945469 0.00059375 C 3.168125 0.00059375 3.429844 0.00059375 3.511875 0.00059375 C 3.59 0.00059375 3.586094 0.00059375 3.511875 0.00059375 C 3.437656 0.00059375 3.179844 0.00059375 2.961094 0.00059375 C 2.74625 0.00059375 2.2775 0.00059375 1.957188 0.00059375 C 1.636875 0.00059375 1.0275 0.00059375 0.656406 0.00059375 C 0.285313 0.00059375 -0.359219 0.00059375 -0.7225 0.00059375 C -1.085781 0.00059375 -1.667812 0.00059375 -1.968594 0.00059375 C -2.269375 0.00059375 -2.695156 0.00059375 -2.882656 0.00059375 C -3.070156 0.00059375 -3.281094 0.00059375 -3.331875 0.00059375 C -3.37875 0.00059375 -3.339687 0.00059375 -3.245937 0.00059375 C -3.148281 0.00059375 -2.870937 0.00059375 -2.652187 0.00059375 C -2.429531 0.00059375 -1.960781 0.00059375 -1.648281 0.00059375 C -1.339687 0.00059375 -0.757656 0.00059375 -0.406094 0.00059375 C -0.0545312 0.00059375 0.543125 0.00059375 0.879063 0.00059375 C 1.215 0.00059375 1.742344 0.00059375 2.011875 0.00059375 C 2.2775 0.00059375 2.648594 0.00059375 2.804844 0.00059375 C 2.961094 0.00059375 3.12125 0.00059375 3.144688 0.00059375 C 3.168125 0.00059375 3.09 0.00059375 2.980625 0.00059375 C 2.875156 0.00059375 2.59 0.00059375 2.367344 0.00059375 C 2.140781 0.00059375 1.675938 0.00059375 1.375156 0.00059375 C 1.070469 0.00059375 0.515781 0.00059375 0.18375 0.00059375 C -0.148281 0.00059375 -0.702969 0.00059375 -1.011562 0.00059375 C -1.31625 0.00059375 -1.800625 0.00059375 -2.038906 0.00059375 C -2.273281 0.00059375 -2.589687 0.00059375 -2.718594 0.00059375 C -2.8475 0.00059375 -2.956875 0.00059375 -2.956875 0.00059375 C -2.960781 0.00059375 -2.863125 0.00059375 -2.745937 0.00059375 C -2.624844 0.00059375 -2.31625 0.00059375 -2.089687 0.00059375 C -1.863125 0.00059375 -1.406094 0.00059375 -1.117031 0.00059375 C -0.824062 0.00059375 -0.300625 0.00059375 0.011875 0.00059375 C 0.320469 0.00059375 0.84 0.00059375 1.12125 0.00059375 C 1.4025 0.00059375 1.824375 0.00059375 2.031406 0.00059375 C 2.242344 0.00059375 2.515781 0.00059375 2.617344 0.00059375 C 2.722813 0.00059375 2.789219 0.00059375 2.773594 0.00059375 C 2.757969 0.00059375 2.632969 0.00059375 2.504063 0.00059375 C 2.37125 0.00059375 2.054844 0.00059375 1.828281 0.00059375 C 1.605625 0.00059375 1.164219 0.00059375 0.886875 0.00059375 C 0.605625 0.00059375 0.105625 0.00059375 -0.183437 0.00059375 C -0.4725 0.00059375 -0.949062 0.00059375 -1.202969 0.00059375 C -1.460781 0.00059375 -1.843594 0.00059375 -2.023281 0.00059375 C -2.202969 0.00059375 -2.421719 0.00059375 -2.50375 0.00059375 C -2.581875 0.00059375 -2.624844 0.00059375 -2.593594 0.00059375 C -2.562344 0.00059375 -2.273281 0.00059375 -2.273281 0.00059375 " transform="matrix(1,0,0,-1,132.785,135.067)"/>
</g>
</svg>
