<?xml version="1.0" encoding="UTF-8"?>
<svg xmlns="http://www.w3.org/2000/svg" xmlns:xlink="http://www.w3.org/1999/xlink" width="86.765pt" height="99.249pt" viewBox="0 0 86.765 99.249" version="1.1">
<g id="surface1">
<path style="fill:none;stroke-width:0.3985;stroke-linecap:butt;stroke-linejoin:miter;stroke:rgb(0%,0%,0%);stroke-opacity:1;stroke-miterlimit:10;" d="M 0.00115625 -0.001875 L 0.99725 -0.001875 L 1.493344 -0.86125 L 1.993344 -0.001875 L 2.989438 -0.001875 L 3.485531 -0.86125 L 2.989438 -1.724531 L 3.985531 -1.724531 L 4.481625 -2.587812 L 4.981625 -1.724531 L 5.977719 -1.724531 L 5.477719 -0.86125 L 5.977719 -0.001875 L 6.973813 -0.001875 L 7.473813 -0.86125 L 7.969906 -0.001875 L 8.966 -0.001875 L 9.466 -0.86125 L 8.966 -1.724531 L 9.962094 -1.724531 L 10.462094 -2.587812 L 9.962094 -3.451094 L 8.966 -3.451094 L 9.466 -4.314375 L 8.966 -5.177656 L 9.962094 -5.177656 L 10.462094 -6.040937 L 10.958188 -5.177656 L 11.954281 -5.177656 L 12.454281 -6.040937 L 11.954281 -6.904219 L 12.950375 -6.904219 L 13.450375 -7.763594 L 13.946469 -6.904219 L 14.942563 -6.904219 L 14.446469 -6.040937 L 14.942563 -5.177656 L 15.938656 -5.177656 L 16.438656 -6.040937 L 16.93475 -5.177656 L 17.93475 -5.177656 L 17.43475 -4.314375 L 17.93475 -3.451094 L 16.93475 -3.451094 L 16.438656 -2.587812 L 16.93475 -1.724531 L 17.93475 -1.724531 L 17.43475 -0.86125 L 17.93475 -0.001875 L 18.930844 -0.001875 L 19.426938 -0.86125 L 19.926938 -0.001875 L 20.923031 -0.001875 L 21.419125 -0.86125 L 20.923031 -1.724531 L 21.919125 -1.724531 L 22.415219 -2.587812 L 22.915219 -1.724531 L 23.911313 -1.724531 L 23.411313 -0.86125 L 23.911313 -0.001875 L 24.907406 -0.001875 L 25.4035 -0.86125 L 25.9035 -0.001875 L 26.899594 -0.001875 L 27.395688 -0.86125 L 26.899594 -1.724531 L 27.895688 -1.724531 L 28.395688 -2.587812 L 27.895688 -3.451094 L 26.899594 -3.451094 L 27.395688 -4.314375 L 26.899594 -5.177656 L 27.895688 -5.177656 L 28.395688 -6.040937 L 28.891781 -5.177656 L 29.887875 -5.177656 L 30.387875 -6.040937 L 29.887875 -6.904219 L 30.883969 -6.904219 L 31.383969 -7.763594 L 30.883969 -8.626875 L 29.887875 -8.626875 L 30.387875 -9.490156 L 29.887875 -10.353437 L 28.891781 -10.353437 L 28.395688 -9.490156 L 27.895688 -10.353437 L 26.899594 -10.353437 L 27.395688 -11.216719 L 26.899594 -12.08 L 27.895688 -12.08 L 28.395688 -12.943281 L 27.895688 -13.806562 L 26.899594 -13.806562 L 27.395688 -14.665937 L 26.899594 -15.529219 L 27.895688 -15.529219 L 28.395688 -16.3925 L 28.891781 -15.529219 L 29.887875 -15.529219 L 30.387875 -16.3925 L 29.887875 -17.255781 L 30.883969 -17.255781 L 31.383969 -18.119062 L 31.880063 -17.255781 L 32.876156 -17.255781 L 32.380063 -16.3925 L 32.876156 -15.529219 L 33.87225 -15.529219 L 34.37225 -16.3925 L 34.868344 -15.529219 L 35.864438 -15.529219 L 36.364438 -16.3925 L 35.864438 -17.255781 L 36.860531 -17.255781 L 37.360531 -18.119062 L 36.860531 -18.982344 L 35.864438 -18.982344 L 36.364438 -19.845625 L 35.864438 -20.708906 L 36.860531 -20.708906 L 37.360531 -21.568281 L 37.856625 -20.708906 L 38.856625 -20.708906 L 39.352719 -21.568281 L 38.856625 -22.431562 L 39.852719 -22.431562 L 40.348813 -23.294844 L 40.848813 -22.431562 L 41.844906 -22.431562 L 41.344906 -21.568281 L 41.844906 -20.708906 L 42.841 -20.708906 L 43.337094 -21.568281 L 43.837094 -20.708906 L 44.833188 -20.708906 L 44.333188 -19.845625 L 44.833188 -18.982344 L 43.837094 -18.982344 L 43.337094 -18.119062 L 43.837094 -17.255781 L 44.833188 -17.255781 L 44.333188 -16.3925 L 44.833188 -15.529219 L 45.829281 -15.529219 L 46.325375 -16.3925 L 46.825375 -15.529219 L 47.821469 -15.529219 L 48.317563 -16.3925 L 47.821469 -17.255781 L 48.817563 -17.255781 L 49.317563 -18.119062 L 49.813656 -17.255781 L 50.80975 -17.255781 L 50.313656 -16.3925 L 50.80975 -15.529219 L 51.805844 -15.529219 L 52.305844 -16.3925 L 52.801938 -15.529219 L 53.798031 -15.529219 L 53.301938 -14.665937 L 53.798031 -13.806562 L 52.801938 -13.806562 L 52.305844 -12.943281 L 52.801938 -12.08 L 53.798031 -12.08 L 53.301938 -11.216719 L 53.798031 -10.353437 L 52.801938 -10.353437 L 52.305844 -9.490156 L 51.805844 -10.353437 L 50.80975 -10.353437 L 50.313656 -9.490156 L 50.80975 -8.626875 L 49.813656 -8.626875 L 49.317563 -7.763594 L 49.813656 -6.904219 L 50.80975 -6.904219 L 50.313656 -6.040937 L 50.80975 -5.177656 L 51.805844 -5.177656 L 52.305844 -6.040937 L 52.801938 -5.177656 L 53.798031 -5.177656 L 53.301938 -4.314375 L 53.798031 -3.451094 L 52.801938 -3.451094 L 52.305844 -2.587812 L 52.801938 -1.724531 L 53.798031 -1.724531 L 53.301938 -0.86125 L 53.798031 -0.001875 L 54.794125 -0.001875 L 55.294125 -0.86125 L 55.790219 -0.001875 L 56.786313 -0.001875 L 57.286313 -0.86125 L 56.786313 -1.724531 L 57.782406 -1.724531 L 58.282406 -2.587812 L 58.7785 -1.724531 L 59.7785 -1.724531 L 59.2785 -0.86125 L 59.7785 -0.001875 L 60.774594 -0.001875 L 61.270688 -0.86125 L 61.770688 -0.001875 L 62.766781 -0.001875 L 63.262875 -0.86125 L 62.766781 -1.724531 L 63.762875 -1.724531 L 64.258969 -2.587812 L 63.762875 -3.451094 L 62.766781 -3.451094 L 63.262875 -4.314375 L 62.766781 -5.177656 L 63.762875 -5.177656 L 64.258969 -6.040937 L 64.758969 -5.177656 L 65.755062 -5.177656 L 66.251156 -6.040937 L 65.755062 -6.904219 L 66.751156 -6.904219 L 67.24725 -7.763594 L 67.74725 -6.904219 L 68.743344 -6.904219 L 68.243344 -6.040937 L 68.743344 -5.177656 L 69.739437 -5.177656 L 70.239437 -6.040937 L 70.735531 -5.177656 L 71.731625 -5.177656 L 71.235531 -4.314375 L 71.731625 -3.451094 L 70.735531 -3.451094 L 70.239437 -2.587812 L 70.735531 -1.724531 L 71.731625 -1.724531 L 71.235531 -0.86125 L 71.731625 -0.001875 L 72.727719 -0.001875 L 73.227719 -0.86125 L 73.723812 -0.001875 L 74.719906 -0.001875 L 75.219906 -0.86125 L 74.719906 -1.724531 L 75.716 -1.724531 L 76.216 -2.587812 L 76.712094 -1.724531 L 77.708187 -1.724531 L 77.212094 -0.86125 L 77.708187 -0.001875 L 78.704281 -0.001875 L 79.204281 -0.86125 L 79.700375 -0.001875 L 80.700375 -0.001875 L 80.200375 0.861406 L 80.700375 1.724688 L 79.700375 1.724688 L 79.204281 2.587969 L 79.700375 3.45125 L 80.700375 3.45125 L 80.200375 4.314531 L 80.700375 5.177813 L 79.700375 5.177813 L 79.204281 6.041094 L 78.704281 5.177813 L 77.708187 5.177813 L 77.212094 6.041094 L 77.708187 6.900469 L 76.712094 6.900469 L 76.216 7.76375 L 76.712094 8.627031 L 77.708187 8.627031 L 77.212094 9.490313 L 77.708187 10.353594 L 78.704281 10.353594 L 79.204281 9.490313 L 79.700375 10.353594 L 80.700375 10.353594 L 80.200375 11.216875 L 80.700375 12.080156 L 79.700375 12.080156 L 79.204281 12.943438 L 79.700375 13.806719 L 80.700375 13.806719 L 80.200375 14.666094 L 80.700375 15.529375 L 79.700375 15.529375 L 79.204281 16.392656 L 78.704281 15.529375 L 77.708187 15.529375 L 77.212094 16.392656 L 77.708187 17.255938 L 76.712094 17.255938 L 76.216 18.119219 L 75.716 17.255938 L 74.719906 17.255938 L 75.219906 16.392656 L 74.719906 15.529375 L 73.723812 15.529375 L 73.227719 16.392656 L 72.727719 15.529375 L 71.731625 15.529375 L 71.235531 16.392656 L 71.731625 17.255938 L 70.735531 17.255938 L 70.239437 18.119219 L 70.735531 18.9825 L 71.731625 18.9825 L 71.235531 19.845781 L 71.731625 20.709063 L 70.735531 20.709063 L 70.239437 21.568438 L 69.739437 20.709063 L 68.743344 20.709063 L 68.243344 21.568438 L 68.743344 22.431719 L 67.74725 22.431719 L 67.24725 23.295 L 67.74725 24.158281 L 68.743344 24.158281 L 68.243344 25.021563 L 68.743344 25.884844 L 69.739437 25.884844 L 70.239437 25.021563 L 70.735531 25.884844 L 71.731625 25.884844 L 71.235531 26.748125 L 71.731625 27.611406 L 70.735531 27.611406 L 70.239437 28.470781 L 70.735531 29.334063 L 71.731625 29.334063 L 71.235531 30.197344 L 71.731625 31.060625 L 72.727719 31.060625 L 73.227719 30.197344 L 73.723812 31.060625 L 74.719906 31.060625 L 75.219906 30.197344 L 74.719906 29.334063 L 75.716 29.334063 L 76.216 28.470781 L 76.712094 29.334063 L 77.708187 29.334063 L 77.212094 30.197344 L 77.708187 31.060625 L 78.704281 31.060625 L 79.204281 30.197344 L 79.700375 31.060625 L 80.700375 31.060625 L 80.200375 31.923906 L 80.700375 32.787188 L 79.700375 32.787188 L 79.204281 33.650469 L 79.700375 34.51375 L 80.700375 34.51375 L 80.200375 35.373125 L 80.700375 36.236406 L 79.700375 36.236406 L 79.204281 37.099688 L 78.704281 36.236406 L 77.708187 36.236406 L 77.212094 37.099688 L 77.708187 37.962969 L 76.712094 37.962969 L 76.216 38.82625 L 76.712094 39.689531 L 77.708187 39.689531 L 77.212094 40.552813 L 77.708187 41.416094 L 78.704281 41.416094 L 79.204281 40.552813 L 79.700375 41.416094 L 80.700375 41.416094 L 80.200375 42.275469 L 80.700375 43.13875 L 79.700375 43.13875 L 79.204281 44.002031 L 79.700375 44.865313 L 80.700375 44.865313 L 80.200375 45.728594 L 80.700375 46.591875 L 79.700375 46.591875 L 79.204281 47.455156 L 78.704281 46.591875 L 77.708187 46.591875 L 77.212094 47.455156 L 77.708187 48.318438 L 76.712094 48.318438 L 76.216 49.181719 L 75.716 48.318438 L 74.719906 48.318438 L 75.219906 47.455156 L 74.719906 46.591875 L 73.723812 46.591875 L 73.227719 47.455156 L 72.727719 46.591875 L 71.731625 46.591875 L 71.235531 47.455156 L 71.731625 48.318438 L 70.735531 48.318438 L 70.239437 49.181719 L 70.735531 50.041094 L 71.731625 50.041094 L 71.235531 50.904375 L 71.731625 51.767656 L 70.735531 51.767656 L 70.239437 52.630938 L 69.739437 51.767656 L 68.743344 51.767656 L 68.243344 52.630938 L 68.743344 53.494219 L 67.74725 53.494219 L 67.24725 54.3575 L 66.751156 53.494219 L 65.755062 53.494219 L 66.251156 52.630938 L 65.755062 51.767656 L 64.758969 51.767656 L 64.258969 52.630938 L 63.762875 51.767656 L 62.766781 51.767656 L 63.262875 50.904375 L 62.766781 50.041094 L 63.762875 50.041094 L 64.258969 49.181719 L 63.762875 48.318438 L 62.766781 48.318438 L 63.262875 47.455156 L 62.766781 46.591875 L 61.770688 46.591875 L 61.270688 47.455156 L 60.774594 46.591875 L 59.7785 46.591875 L 59.2785 47.455156 L 59.7785 48.318438 L 58.7785 48.318438 L 58.282406 49.181719 L 57.782406 48.318438 L 56.786313 48.318438 L 57.286313 47.455156 L 56.786313 46.591875 L 55.790219 46.591875 L 55.294125 47.455156 L 54.794125 46.591875 L 53.798031 46.591875 L 53.301938 47.455156 L 53.798031 48.318438 L 52.801938 48.318438 L 52.305844 49.181719 L 52.801938 50.041094 L 53.798031 50.041094 L 53.301938 50.904375 L 53.798031 51.767656 L 52.801938 51.767656 L 52.305844 52.630938 L 51.805844 51.767656 L 50.80975 51.767656 L 50.313656 52.630938 L 50.80975 53.494219 L 49.813656 53.494219 L 49.317563 54.3575 L 49.813656 55.220781 L 50.80975 55.220781 L 50.313656 56.084063 L 50.80975 56.943438 L 51.805844 56.943438 L 52.305844 56.084063 L 52.801938 56.943438 L 53.798031 56.943438 L 53.301938 57.806719 L 53.798031 58.67 L 52.801938 58.67 L 52.305844 59.533281 L 52.801938 60.396563 L 53.798031 60.396563 L 53.301938 61.259844 L 53.798031 62.123125 L 52.801938 62.123125 L 52.305844 62.986406 L 51.805844 62.123125 L 50.80975 62.123125 L 50.313656 62.986406 L 50.80975 63.845781 L 49.813656 63.845781 L 49.317563 64.709063 L 48.817563 63.845781 L 47.821469 63.845781 L 48.317563 62.986406 L 47.821469 62.123125 L 46.825375 62.123125 L 46.325375 62.986406 L 45.829281 62.123125 L 44.833188 62.123125 L 44.333188 62.986406 L 44.833188 63.845781 L 43.837094 63.845781 L 43.337094 64.709063 L 43.837094 65.572344 L 44.833188 65.572344 L 44.333188 66.435625 L 44.833188 67.298906 L 43.837094 67.298906 L 43.337094 68.162188 L 42.841 67.298906 L 41.844906 67.298906 L 41.344906 68.162188 L 41.844906 69.025469 L 40.848813 69.025469 L 40.348813 69.88875 L 39.852719 69.025469 L 38.856625 69.025469 L 39.352719 68.162188 L 38.856625 67.298906 L 37.856625 67.298906 L 37.360531 68.162188 L 36.860531 67.298906 L 35.864438 67.298906 L 36.364438 66.435625 L 35.864438 65.572344 L 36.860531 65.572344 L 37.360531 64.709063 L 36.860531 63.845781 L 35.864438 63.845781 L 36.364438 62.986406 L 35.864438 62.123125 L 34.868344 62.123125 L 34.37225 62.986406 L 33.87225 62.123125 L 32.876156 62.123125 L 32.380063 62.986406 L 32.876156 63.845781 L 31.880063 63.845781 L 31.383969 64.709063 L 30.883969 63.845781 L 29.887875 63.845781 L 30.387875 62.986406 L 29.887875 62.123125 L 28.891781 62.123125 L 28.395688 62.986406 L 27.895688 62.123125 L 26.899594 62.123125 L 27.395688 61.259844 L 26.899594 60.396563 L 27.895688 60.396563 L 28.395688 59.533281 L 27.895688 58.67 L 26.899594 58.67 L 27.395688 57.806719 L 26.899594 56.943438 L 27.895688 56.943438 L 28.395688 56.084063 L 28.891781 56.943438 L 29.887875 56.943438 L 30.387875 56.084063 L 29.887875 55.220781 L 30.883969 55.220781 L 31.383969 54.3575 L 30.883969 53.494219 L 29.887875 53.494219 L 30.387875 52.630938 L 29.887875 51.767656 L 28.891781 51.767656 L 28.395688 52.630938 L 27.895688 51.767656 L 26.899594 51.767656 L 27.395688 50.904375 L 26.899594 50.041094 L 27.895688 50.041094 L 28.395688 49.181719 L 27.895688 48.318438 L 26.899594 48.318438 L 27.395688 47.455156 L 26.899594 46.591875 L 25.9035 46.591875 L 25.4035 47.455156 L 24.907406 46.591875 L 23.911313 46.591875 L 23.411313 47.455156 L 23.911313 48.318438 L 22.915219 48.318438 L 22.415219 49.181719 L 21.919125 48.318438 L 20.923031 48.318438 L 21.419125 47.455156 L 20.923031 46.591875 L 19.926938 46.591875 L 19.426938 47.455156 L 18.930844 46.591875 L 17.93475 46.591875 L 17.43475 47.455156 L 17.93475 48.318438 L 16.93475 48.318438 L 16.438656 49.181719 L 16.93475 50.041094 L 17.93475 50.041094 L 17.43475 50.904375 L 17.93475 51.767656 L 16.93475 51.767656 L 16.438656 52.630938 L 15.938656 51.767656 L 14.942563 51.767656 L 14.446469 52.630938 L 14.942563 53.494219 L 13.946469 53.494219 L 13.450375 54.3575 L 12.950375 53.494219 L 11.954281 53.494219 L 12.454281 52.630938 L 11.954281 51.767656 L 10.958188 51.767656 L 10.462094 52.630938 L 9.962094 51.767656 L 8.966 51.767656 L 9.466 50.904375 L 8.966 50.041094 L 9.962094 50.041094 L 10.462094 49.181719 L 9.962094 48.318438 L 8.966 48.318438 L 9.466 47.455156 L 8.966 46.591875 L 7.969906 46.591875 L 7.473813 47.455156 L 6.973813 46.591875 L 5.977719 46.591875 L 5.477719 47.455156 L 5.977719 48.318438 L 4.981625 48.318438 L 4.481625 49.181719 L 3.985531 48.318438 L 2.989438 48.318438 L 3.485531 47.455156 L 2.989438 46.591875 L 1.993344 46.591875 L 1.493344 47.455156 L 0.99725 46.591875 L 0.00115625 46.591875 L 0.49725 45.728594 L 0.00115625 44.865313 L 0.99725 44.865313 L 1.493344 44.002031 L 0.99725 43.13875 L 0.00115625 43.13875 L 0.49725 42.275469 L 0.00115625 41.416094 L 0.99725 41.416094 L 1.493344 40.552813 L 1.993344 41.416094 L 2.989438 41.416094 L 3.485531 40.552813 L 2.989438 39.689531 L 3.985531 39.689531 L 4.481625 38.82625 L 3.985531 37.962969 L 2.989438 37.962969 L 3.485531 37.099688 L 2.989438 36.236406 L 1.993344 36.236406 L 1.493344 37.099688 L 0.99725 36.236406 L 0.00115625 36.236406 L 0.49725 35.373125 L 0.00115625 34.51375 L 0.99725 34.51375 L 1.493344 33.650469 L 0.99725 32.787188 L 0.00115625 32.787188 L 0.49725 31.923906 L 0.00115625 31.060625 L 0.99725 31.060625 L 1.493344 30.197344 L 1.993344 31.060625 L 2.989438 31.060625 L 3.485531 30.197344 L 2.989438 29.334063 L 3.985531 29.334063 L 4.481625 28.470781 L 4.981625 29.334063 L 5.977719 29.334063 L 5.477719 30.197344 L 5.977719 31.060625 L 6.973813 31.060625 L 7.473813 30.197344 L 7.969906 31.060625 L 8.966 31.060625 L 9.466 30.197344 L 8.966 29.334063 L 9.962094 29.334063 L 10.462094 28.470781 L 9.962094 27.611406 L 8.966 27.611406 L 9.466 26.748125 L 8.966 25.884844 L 9.962094 25.884844 L 10.462094 25.021563 L 10.958188 25.884844 L 11.954281 25.884844 L 12.454281 25.021563 L 11.954281 24.158281 L 12.950375 24.158281 L 13.450375 23.295 L 12.950375 22.431719 L 11.954281 22.431719 L 12.454281 21.568438 L 11.954281 20.709063 L 10.958188 20.709063 L 10.462094 21.568438 L 9.962094 20.709063 L 8.966 20.709063 L 9.466 19.845781 L 8.966 18.9825 L 9.962094 18.9825 L 10.462094 18.119219 L 9.962094 17.255938 L 8.966 17.255938 L 9.466 16.392656 L 8.966 15.529375 L 7.969906 15.529375 L 7.473813 16.392656 L 6.973813 15.529375 L 5.977719 15.529375 L 5.477719 16.392656 L 5.977719 17.255938 L 4.981625 17.255938 L 4.481625 18.119219 L 3.985531 17.255938 L 2.989438 17.255938 L 3.485531 16.392656 L 2.989438 15.529375 L 1.993344 15.529375 L 1.493344 16.392656 L 0.99725 15.529375 L 0.00115625 15.529375 L 0.49725 14.666094 L 0.00115625 13.806719 L 0.99725 13.806719 L 1.493344 12.943438 L 0.99725 12.080156 L 0.00115625 12.080156 L 0.49725 11.216875 L 0.00115625 10.353594 L 0.99725 10.353594 L 1.493344 9.490313 L 1.993344 10.353594 L 2.989438 10.353594 L 3.485531 9.490313 L 2.989438 8.627031 L 3.985531 8.627031 L 4.481625 7.76375 L 3.985531 6.900469 L 2.989438 6.900469 L 3.485531 6.041094 L 2.989438 5.177813 L 1.993344 5.177813 L 1.493344 6.041094 L 0.99725 5.177813 L 0.00115625 5.177813 L 0.49725 4.314531 L 0.00115625 3.45125 L 0.99725 3.45125 L 1.493344 2.587969 L 0.99725 1.724688 L 0.00115625 1.724688 L 0.49725 0.861406 Z M 0.00115625 -0.001875 " transform="matrix(1,0,0,-1,3.034,72.92)"/>
</g>
</svg>
