<?xml version="1.0" encoding="UTF-8"?>
<svg xmlns="http://www.w3.org/2000/svg" xmlns:xlink="http://www.w3.org/1999/xlink" width="63.681pt" height="62.761pt" viewBox="0 0 63.681 62.761" version="1.1">
<defs>
<clipPath id="clip1">
  <path d="M 0 0 L 63.679688 0 L 63.679688 62.761719 L 0 62.761719 Z M 0 0 "/>
</clipPath>
</defs>
<g id="surface1">
<path style="fill:none;stroke-width:0.3985;stroke-linecap:butt;stroke-linejoin:miter;stroke:rgb(0%,0%,0%);stroke-opacity:1;stroke-miterlimit:10;" d="M -28.345094 -28.345562 L -28.345094 28.345844 L 28.346312 28.345844 L 28.346312 -28.345562 Z M -28.345094 -28.345562 " transform="matrix(1,0,0,-1,31.724,31.381)"/>
<g clip-path="url(#clip1)" clip-rule="nonzero">
<path style="fill:none;stroke-width:0.3985;stroke-linecap:butt;stroke-linejoin:miter;stroke:rgb(0%,0%,0%);stroke-opacity:1;stroke-miterlimit:10;" d="M 28.346312 -0.0018125 C 28.346312 15.654438 15.654906 28.345844 -0.00134375 28.345844 C -15.657594 28.345844 -28.345094 15.654438 -28.345094 -0.0018125 C -28.345094 -15.654156 -15.657594 -28.345562 -0.00134375 -28.345562 C 15.654906 -28.345562 28.346312 -15.654156 28.346312 -0.0018125 Z M 28.346312 -0.0018125 " transform="matrix(1,0,0,-1,31.724,31.381)"/>
</g>
<path style=" stroke:none;fill-rule:nonzero;fill:rgb(0%,0%,0%);fill-opacity:1;" d="M 30.023438 27.261719 C 30.023438 26.792969 29.644531 26.410156 29.175781 26.410156 C 28.703125 26.410156 28.324219 26.792969 28.324219 27.261719 C 28.324219 27.730469 28.703125 28.113281 29.175781 28.113281 C 29.644531 28.113281 30.023438 27.730469 30.023438 27.261719 Z M 30.023438 27.261719 "/>
<path style=" stroke:none;fill-rule:nonzero;fill:rgb(0%,0%,0%);fill-opacity:1;" d="M 24.808594 41.847656 C 24.808594 41.375 24.429688 40.996094 23.957031 40.996094 C 23.488281 40.996094 23.109375 41.375 23.109375 41.847656 C 23.109375 42.316406 23.488281 42.695312 23.957031 42.695312 C 24.429688 42.695312 24.808594 42.316406 24.808594 41.847656 Z M 24.808594 41.847656 "/>
<path style=" stroke:none;fill-rule:nonzero;fill:rgb(0%,0%,0%);fill-opacity:1;" d="M 48.238281 22.382812 C 48.238281 21.914062 47.859375 21.53125 47.390625 21.53125 C 46.917969 21.53125 46.539062 21.914062 46.539062 22.382812 C 46.539062 22.851562 46.917969 23.234375 47.390625 23.234375 C 47.859375 23.234375 48.238281 22.851562 48.238281 22.382812 Z M 48.238281 22.382812 "/>
<path style=" stroke:none;fill-rule:nonzero;fill:rgb(0%,0%,0%);fill-opacity:1;" d="M 35.265625 48.074219 C 35.265625 47.601562 34.882812 47.222656 34.414062 47.222656 C 33.945312 47.222656 33.5625 47.601562 33.5625 48.074219 C 33.5625 48.542969 33.945312 48.921875 34.414062 48.921875 C 34.882812 48.921875 35.265625 48.542969 35.265625 48.074219 Z M 35.265625 48.074219 "/>
<path style=" stroke:none;fill-rule:nonzero;fill:rgb(0%,0%,0%);fill-opacity:1;" d="M 24.476562 15.523438 C 24.476562 15.050781 24.097656 14.671875 23.628906 14.671875 C 23.15625 14.671875 22.777344 15.050781 22.777344 15.523438 C 22.777344 15.992188 23.15625 16.371094 23.628906 16.371094 C 24.097656 16.371094 24.476562 15.992188 24.476562 15.523438 Z M 24.476562 15.523438 "/>
<path style=" stroke:none;fill-rule:nonzero;fill:rgb(0%,0%,0%);fill-opacity:1;" d="M 22.726562 47.207031 C 22.726562 46.738281 22.34375 46.359375 21.875 46.359375 C 21.40625 46.359375 21.023438 46.738281 21.023438 47.207031 C 21.023438 47.679688 21.40625 48.058594 21.875 48.058594 C 22.34375 48.058594 22.726562 47.679688 22.726562 47.207031 Z M 22.726562 47.207031 "/>
<path style=" stroke:none;fill-rule:nonzero;fill:rgb(0%,0%,0%);fill-opacity:1;" d="M 40.933594 20.472656 C 40.933594 20.003906 40.554688 19.621094 40.085938 19.621094 C 39.613281 19.621094 39.234375 20.003906 39.234375 20.472656 C 39.234375 20.941406 39.613281 21.324219 40.085938 21.324219 C 40.554688 21.324219 40.933594 20.941406 40.933594 20.472656 Z M 40.933594 20.472656 "/>
<path style=" stroke:none;fill-rule:nonzero;fill:rgb(0%,0%,0%);fill-opacity:1;" d="M 11.734375 18.390625 C 11.734375 17.921875 11.351562 17.539062 10.882812 17.539062 C 10.414062 17.539062 10.03125 17.921875 10.03125 18.390625 C 10.03125 18.859375 10.414062 19.242188 10.882812 19.242188 C 11.351562 19.242188 11.734375 18.859375 11.734375 18.390625 Z M 11.734375 18.390625 "/>
<path style=" stroke:none;fill-rule:nonzero;fill:rgb(0%,0%,0%);fill-opacity:1;" d="M 29.945312 20.390625 C 29.945312 19.921875 29.566406 19.542969 29.097656 19.542969 C 28.625 19.542969 28.246094 19.921875 28.246094 20.390625 C 28.246094 20.859375 28.625 21.242188 29.097656 21.242188 C 29.566406 21.242188 29.945312 20.859375 29.945312 20.390625 Z M 29.945312 20.390625 "/>
<path style=" stroke:none;fill-rule:nonzero;fill:rgb(0%,0%,0%);fill-opacity:1;" d="M 5.585938 25.90625 C 5.585938 25.4375 5.203125 25.054688 4.734375 25.054688 C 4.265625 25.054688 3.882812 25.4375 3.882812 25.90625 C 3.882812 26.375 4.265625 26.757812 4.734375 26.757812 C 5.203125 26.757812 5.585938 26.375 5.585938 25.90625 Z M 5.585938 25.90625 "/>
<path style=" stroke:none;fill-rule:nonzero;fill:rgb(0%,0%,0%);fill-opacity:1;" d="M 18.988281 58.21875 C 18.988281 57.746094 18.609375 57.367188 18.140625 57.367188 C 17.667969 57.367188 17.289062 57.746094 17.289062 58.21875 C 17.289062 58.6875 17.667969 59.066406 18.140625 59.066406 C 18.609375 59.066406 18.988281 58.6875 18.988281 58.21875 Z M 18.988281 58.21875 "/>
<path style=" stroke:none;fill-rule:nonzero;fill:rgb(0%,0%,0%);fill-opacity:1;" d="M 38.15625 57.296875 C 38.15625 56.828125 37.777344 56.449219 37.304688 56.449219 C 36.835938 56.449219 36.457031 56.828125 36.457031 57.296875 C 36.457031 57.769531 36.835938 58.148438 37.304688 58.148438 C 37.777344 58.148438 38.15625 57.769531 38.15625 57.296875 Z M 38.15625 57.296875 "/>
<path style=" stroke:none;fill-rule:nonzero;fill:rgb(0%,0%,0%);fill-opacity:1;" d="M 20.6875 25.335938 C 20.6875 24.867188 20.308594 24.484375 19.835938 24.484375 C 19.367188 24.484375 18.988281 24.867188 18.988281 25.335938 C 18.988281 25.804688 19.367188 26.183594 19.835938 26.183594 C 20.308594 26.183594 20.6875 25.804688 20.6875 25.335938 Z M 20.6875 25.335938 "/>
<path style=" stroke:none;fill-rule:nonzero;fill:rgb(0%,0%,0%);fill-opacity:1;" d="M 6.265625 41.972656 C 6.265625 41.503906 5.886719 41.125 5.414062 41.125 C 4.945312 41.125 4.566406 41.503906 4.566406 41.972656 C 4.566406 42.441406 4.945312 42.824219 5.414062 42.824219 C 5.886719 42.824219 6.265625 42.441406 6.265625 41.972656 Z M 6.265625 41.972656 "/>
<path style=" stroke:none;fill-rule:nonzero;fill:rgb(0%,0%,0%);fill-opacity:1;" d="M 33.15625 30.449219 C 33.15625 29.980469 32.773438 29.601562 32.304688 29.601562 C 31.835938 29.601562 31.453125 29.980469 31.453125 30.449219 C 31.453125 30.921875 31.835938 31.300781 32.304688 31.300781 C 32.773438 31.300781 33.15625 30.921875 33.15625 30.449219 Z M 33.15625 30.449219 "/>
<path style=" stroke:none;fill-rule:nonzero;fill:rgb(0%,0%,0%);fill-opacity:1;" d="M 53.472656 9.140625 C 53.472656 8.671875 53.09375 8.292969 52.625 8.292969 C 52.15625 8.292969 51.773438 8.671875 51.773438 9.140625 C 51.773438 9.609375 52.15625 9.992188 52.625 9.992188 C 53.09375 9.992188 53.472656 9.609375 53.472656 9.140625 Z M 53.472656 9.140625 "/>
<path style=" stroke:none;fill-rule:nonzero;fill:rgb(0%,0%,0%);fill-opacity:1;" d="M 14.089844 4.140625 C 14.089844 3.667969 13.707031 3.289062 13.238281 3.289062 C 12.769531 3.289062 12.386719 3.667969 12.386719 4.140625 C 12.386719 4.609375 12.769531 4.988281 13.238281 4.988281 C 13.707031 4.988281 14.089844 4.609375 14.089844 4.140625 Z M 14.089844 4.140625 "/>
<path style=" stroke:none;fill-rule:nonzero;fill:rgb(0%,0%,0%);fill-opacity:1;" d="M 50.640625 57.832031 C 50.640625 57.363281 50.261719 56.984375 49.789062 56.984375 C 49.320312 56.984375 48.941406 57.363281 48.941406 57.832031 C 48.941406 58.300781 49.320312 58.683594 49.789062 58.683594 C 50.261719 58.683594 50.640625 58.300781 50.640625 57.832031 Z M 50.640625 57.832031 "/>
<path style=" stroke:none;fill-rule:nonzero;fill:rgb(0%,0%,0%);fill-opacity:1;" d="M 44.027344 53.105469 C 44.027344 52.636719 43.644531 52.253906 43.175781 52.253906 C 42.707031 52.253906 42.324219 52.636719 42.324219 53.105469 C 42.324219 53.574219 42.707031 53.957031 43.175781 53.957031 C 43.644531 53.957031 44.027344 53.574219 44.027344 53.105469 Z M 44.027344 53.105469 "/>
<path style=" stroke:none;fill-rule:nonzero;fill:rgb(0%,0%,0%);fill-opacity:1;" d="M 27.65625 29.792969 C 27.65625 29.320312 27.273438 28.941406 26.804688 28.941406 C 26.335938 28.941406 25.953125 29.320312 25.953125 29.792969 C 25.953125 30.261719 26.335938 30.640625 26.804688 30.640625 C 27.273438 30.640625 27.65625 30.261719 27.65625 29.792969 Z M 27.65625 29.792969 "/>
<path style=" stroke:none;fill-rule:nonzero;fill:rgb(0%,0%,0%);fill-opacity:1;" d="M 8.527344 13.8125 C 8.527344 13.34375 8.144531 12.960938 7.675781 12.960938 C 7.207031 12.960938 6.824219 13.34375 6.824219 13.8125 C 6.824219 14.28125 7.207031 14.664062 7.675781 14.664062 C 8.144531 14.664062 8.527344 14.28125 8.527344 13.8125 Z M 8.527344 13.8125 "/>
<path style=" stroke:none;fill-rule:nonzero;fill:rgb(0%,0%,0%);fill-opacity:1;" d="M 13.523438 27.355469 C 13.523438 26.886719 13.140625 26.507812 12.671875 26.507812 C 12.203125 26.507812 11.824219 26.886719 11.824219 27.355469 C 11.824219 27.828125 12.203125 28.207031 12.671875 28.207031 C 13.140625 28.207031 13.523438 27.828125 13.523438 27.355469 Z M 13.523438 27.355469 "/>
<path style=" stroke:none;fill-rule:nonzero;fill:rgb(0%,0%,0%);fill-opacity:1;" d="M 12.046875 53.308594 C 12.046875 52.839844 11.664062 52.457031 11.195312 52.457031 C 10.726562 52.457031 10.34375 52.839844 10.34375 53.308594 C 10.34375 53.777344 10.726562 54.15625 11.195312 54.15625 C 11.664062 54.15625 12.046875 53.777344 12.046875 53.308594 Z M 12.046875 53.308594 "/>
<path style=" stroke:none;fill-rule:nonzero;fill:rgb(0%,0%,0%);fill-opacity:1;" d="M 22.011719 28.738281 C 22.011719 28.269531 21.628906 27.886719 21.160156 27.886719 C 20.691406 27.886719 20.308594 28.269531 20.308594 28.738281 C 20.308594 29.207031 20.691406 29.589844 21.160156 29.589844 C 21.628906 29.589844 22.011719 29.207031 22.011719 28.738281 Z M 22.011719 28.738281 "/>
<path style=" stroke:none;fill-rule:nonzero;fill:rgb(0%,0%,0%);fill-opacity:1;" d="M 33.953125 33.835938 C 33.953125 33.363281 33.574219 32.984375 33.105469 32.984375 C 32.636719 32.984375 32.253906 33.363281 32.253906 33.835938 C 32.253906 34.304688 32.636719 34.683594 33.105469 34.683594 C 33.574219 34.683594 33.953125 34.304688 33.953125 33.835938 Z M 33.953125 33.835938 "/>
<path style=" stroke:none;fill-rule:nonzero;fill:rgb(0%,0%,0%);fill-opacity:1;" d="M 31.117188 7.851562 C 31.117188 7.378906 30.738281 7 30.269531 7 C 29.800781 7 29.417969 7.378906 29.417969 7.851562 C 29.417969 8.320312 29.800781 8.699219 30.269531 8.699219 C 30.738281 8.699219 31.117188 8.320312 31.117188 7.851562 Z M 31.117188 7.851562 "/>
<path style=" stroke:none;fill-rule:nonzero;fill:rgb(0%,0%,0%);fill-opacity:1;" d="M 49.738281 57.730469 C 49.738281 57.257812 49.359375 56.878906 48.890625 56.878906 C 48.421875 56.878906 48.039062 57.257812 48.039062 57.730469 C 48.039062 58.199219 48.421875 58.578125 48.890625 58.578125 C 49.359375 58.578125 49.738281 58.199219 49.738281 57.730469 Z M 49.738281 57.730469 "/>
<path style=" stroke:none;fill-rule:nonzero;fill:rgb(0%,0%,0%);fill-opacity:1;" d="M 39.859375 21.816406 C 39.859375 21.347656 39.476562 20.96875 39.007812 20.96875 C 38.539062 20.96875 38.15625 21.347656 38.15625 21.816406 C 38.15625 22.285156 38.539062 22.667969 39.007812 22.667969 C 39.476562 22.667969 39.859375 22.285156 39.859375 21.816406 Z M 39.859375 21.816406 "/>
<path style=" stroke:none;fill-rule:nonzero;fill:rgb(0%,0%,0%);fill-opacity:1;" d="M 58.214844 42.605469 C 58.214844 42.136719 57.835938 41.753906 57.367188 41.753906 C 56.894531 41.753906 56.515625 42.136719 56.515625 42.605469 C 56.515625 43.074219 56.894531 43.457031 57.367188 43.457031 C 57.835938 43.457031 58.214844 43.074219 58.214844 42.605469 Z M 58.214844 42.605469 "/>
<path style=" stroke:none;fill-rule:nonzero;fill:rgb(0%,0%,0%);fill-opacity:1;" d="M 26.355469 19.917969 C 26.355469 19.449219 25.976562 19.066406 25.503906 19.066406 C 25.035156 19.066406 24.65625 19.449219 24.65625 19.917969 C 24.65625 20.386719 25.035156 20.769531 25.503906 20.769531 C 25.976562 20.769531 26.355469 20.386719 26.355469 19.917969 Z M 26.355469 19.917969 "/>
<path style=" stroke:none;fill-rule:nonzero;fill:rgb(0%,0%,0%);fill-opacity:1;" d="M 54.449219 24.070312 C 54.449219 23.601562 54.066406 23.222656 53.597656 23.222656 C 53.128906 23.222656 52.746094 23.601562 52.746094 24.070312 C 52.746094 24.542969 53.128906 24.921875 53.597656 24.921875 C 54.066406 24.921875 54.449219 24.542969 54.449219 24.070312 Z M 54.449219 24.070312 "/>
<path style=" stroke:none;fill-rule:nonzero;fill:rgb(0%,0%,0%);fill-opacity:1;" d="M 19.308594 47.167969 C 19.308594 46.699219 18.925781 46.320312 18.457031 46.320312 C 17.988281 46.320312 17.609375 46.699219 17.609375 47.167969 C 17.609375 47.640625 17.988281 48.019531 18.457031 48.019531 C 18.925781 48.019531 19.308594 47.640625 19.308594 47.167969 Z M 19.308594 47.167969 "/>
<path style=" stroke:none;fill-rule:nonzero;fill:rgb(0%,0%,0%);fill-opacity:1;" d="M 31.566406 28.6875 C 31.566406 28.21875 31.183594 27.835938 30.714844 27.835938 C 30.246094 27.835938 29.863281 28.21875 29.863281 28.6875 C 29.863281 29.15625 30.246094 29.539062 30.714844 29.539062 C 31.183594 29.539062 31.566406 29.15625 31.566406 28.6875 Z M 31.566406 28.6875 "/>
<path style=" stroke:none;fill-rule:nonzero;fill:rgb(0%,0%,0%);fill-opacity:1;" d="M 17.597656 10.917969 C 17.597656 10.449219 17.21875 10.066406 16.746094 10.066406 C 16.277344 10.066406 15.898438 10.449219 15.898438 10.917969 C 15.898438 11.386719 16.277344 11.769531 16.746094 11.769531 C 17.21875 11.769531 17.597656 11.386719 17.597656 10.917969 Z M 17.597656 10.917969 "/>
<path style=" stroke:none;fill-rule:nonzero;fill:rgb(0%,0%,0%);fill-opacity:1;" d="M 43.449219 27.542969 C 43.449219 27.074219 43.070312 26.691406 42.597656 26.691406 C 42.128906 26.691406 41.75 27.074219 41.75 27.542969 C 41.75 28.011719 42.128906 28.394531 42.597656 28.394531 C 43.070312 28.394531 43.449219 28.011719 43.449219 27.542969 Z M 43.449219 27.542969 "/>
<path style=" stroke:none;fill-rule:nonzero;fill:rgb(0%,0%,0%);fill-opacity:1;" d="M 36.914062 12.339844 C 36.914062 11.871094 36.535156 11.488281 36.066406 11.488281 C 35.597656 11.488281 35.214844 11.871094 35.214844 12.339844 C 35.214844 12.808594 35.597656 13.191406 36.066406 13.191406 C 36.535156 13.191406 36.914062 12.808594 36.914062 12.339844 Z M 36.914062 12.339844 "/>
<path style=" stroke:none;fill-rule:nonzero;fill:rgb(0%,0%,0%);fill-opacity:1;" d="M 41.765625 42.097656 C 41.765625 41.628906 41.386719 41.246094 40.917969 41.246094 C 40.445312 41.246094 40.066406 41.628906 40.066406 42.097656 C 40.066406 42.566406 40.445312 42.945312 40.917969 42.945312 C 41.386719 42.945312 41.765625 42.566406 41.765625 42.097656 Z M 41.765625 42.097656 "/>
<path style=" stroke:none;fill-rule:nonzero;fill:rgb(0%,0%,0%);fill-opacity:1;" d="M 45.554688 57.289062 C 45.554688 56.820312 45.171875 56.4375 44.703125 56.4375 C 44.234375 56.4375 43.855469 56.820312 43.855469 57.289062 C 43.855469 57.757812 44.234375 58.136719 44.703125 58.136719 C 45.171875 58.136719 45.554688 57.757812 45.554688 57.289062 Z M 45.554688 57.289062 "/>
<path style=" stroke:none;fill-rule:nonzero;fill:rgb(0%,0%,0%);fill-opacity:1;" d="M 13.550781 12.191406 C 13.550781 11.722656 13.171875 11.34375 12.703125 11.34375 C 12.230469 11.34375 11.851562 11.722656 11.851562 12.191406 C 11.851562 12.660156 12.230469 13.042969 12.703125 13.042969 C 13.171875 13.042969 13.550781 12.660156 13.550781 12.191406 Z M 13.550781 12.191406 "/>
<path style=" stroke:none;fill-rule:nonzero;fill:rgb(0%,0%,0%);fill-opacity:1;" d="M 55.03125 20.414062 C 55.03125 19.945312 54.648438 19.5625 54.179688 19.5625 C 53.710938 19.5625 53.328125 19.945312 53.328125 20.414062 C 53.328125 20.882812 53.710938 21.265625 54.179688 21.265625 C 54.648438 21.265625 55.03125 20.882812 55.03125 20.414062 Z M 55.03125 20.414062 "/>
<path style=" stroke:none;fill-rule:nonzero;fill:rgb(0%,0%,0%);fill-opacity:1;" d="M 26.695312 27.792969 C 26.695312 27.320312 26.3125 26.941406 25.84375 26.941406 C 25.375 26.941406 24.992188 27.320312 24.992188 27.792969 C 24.992188 28.261719 25.375 28.640625 25.84375 28.640625 C 26.3125 28.640625 26.695312 28.261719 26.695312 27.792969 Z M 26.695312 27.792969 "/>
<path style=" stroke:none;fill-rule:nonzero;fill:rgb(0%,0%,0%);fill-opacity:1;" d="M 6.425781 37.582031 C 6.425781 37.113281 6.042969 36.734375 5.574219 36.734375 C 5.105469 36.734375 4.722656 37.113281 4.722656 37.582031 C 4.722656 38.054688 5.105469 38.433594 5.574219 38.433594 C 6.042969 38.433594 6.425781 38.054688 6.425781 37.582031 Z M 6.425781 37.582031 "/>
<path style=" stroke:none;fill-rule:nonzero;fill:rgb(0%,0%,0%);fill-opacity:1;" d="M 5.417969 52.566406 C 5.417969 52.097656 5.039062 51.714844 4.570312 51.714844 C 4.101562 51.714844 3.71875 52.097656 3.71875 52.566406 C 3.71875 53.035156 4.101562 53.414062 4.570312 53.414062 C 5.039062 53.414062 5.417969 53.035156 5.417969 52.566406 Z M 5.417969 52.566406 "/>
<path style=" stroke:none;fill-rule:nonzero;fill:rgb(0%,0%,0%);fill-opacity:1;" d="M 57.53125 39.824219 C 57.53125 39.355469 57.152344 38.972656 56.679688 38.972656 C 56.210938 38.972656 55.832031 39.355469 55.832031 39.824219 C 55.832031 40.292969 56.210938 40.675781 56.679688 40.675781 C 57.152344 40.675781 57.53125 40.292969 57.53125 39.824219 Z M 57.53125 39.824219 "/>
<path style=" stroke:none;fill-rule:nonzero;fill:rgb(0%,0%,0%);fill-opacity:1;" d="M 45.140625 20.21875 C 45.140625 19.75 44.761719 19.371094 44.289062 19.371094 C 43.820312 19.371094 43.441406 19.75 43.441406 20.21875 C 43.441406 20.691406 43.820312 21.070312 44.289062 21.070312 C 44.761719 21.070312 45.140625 20.691406 45.140625 20.21875 Z M 45.140625 20.21875 "/>
<path style=" stroke:none;fill-rule:nonzero;fill:rgb(0%,0%,0%);fill-opacity:1;" d="M 34.265625 37.980469 C 34.265625 37.511719 33.886719 37.132812 33.417969 37.132812 C 32.949219 37.132812 32.566406 37.511719 32.566406 37.980469 C 32.566406 38.453125 32.949219 38.832031 33.417969 38.832031 C 33.886719 38.832031 34.265625 38.453125 34.265625 37.980469 Z M 34.265625 37.980469 "/>
<path style=" stroke:none;fill-rule:nonzero;fill:rgb(0%,0%,0%);fill-opacity:1;" d="M 37.890625 8.972656 C 37.890625 8.503906 37.511719 8.121094 37.039062 8.121094 C 36.570312 8.121094 36.191406 8.503906 36.191406 8.972656 C 36.191406 9.441406 36.570312 9.824219 37.039062 9.824219 C 37.511719 9.824219 37.890625 9.441406 37.890625 8.972656 Z M 37.890625 8.972656 "/>
<path style=" stroke:none;fill-rule:nonzero;fill:rgb(0%,0%,0%);fill-opacity:1;" d="M 57.039062 47.425781 C 57.039062 46.957031 56.65625 46.574219 56.1875 46.574219 C 55.71875 46.574219 55.339844 46.957031 55.339844 47.425781 C 55.339844 47.894531 55.71875 48.277344 56.1875 48.277344 C 56.65625 48.277344 57.039062 47.894531 57.039062 47.425781 Z M 57.039062 47.425781 "/>
<path style=" stroke:none;fill-rule:nonzero;fill:rgb(0%,0%,0%);fill-opacity:1;" d="M 31.050781 39.25 C 31.050781 38.777344 30.667969 38.398438 30.199219 38.398438 C 29.730469 38.398438 29.351562 38.777344 29.351562 39.25 C 29.351562 39.71875 29.730469 40.097656 30.199219 40.097656 C 30.667969 40.097656 31.050781 39.71875 31.050781 39.25 Z M 31.050781 39.25 "/>
<path style=" stroke:none;fill-rule:nonzero;fill:rgb(0%,0%,0%);fill-opacity:1;" d="M 29.445312 12.066406 C 29.445312 11.597656 29.0625 11.21875 28.59375 11.21875 C 28.125 11.21875 27.742188 11.597656 27.742188 12.066406 C 27.742188 12.539062 28.125 12.917969 28.59375 12.917969 C 29.0625 12.917969 29.445312 12.539062 29.445312 12.066406 Z M 29.445312 12.066406 "/>
<path style=" stroke:none;fill-rule:nonzero;fill:rgb(0%,0%,0%);fill-opacity:1;" d="M 28.058594 51.890625 C 28.058594 51.417969 27.675781 51.039062 27.207031 51.039062 C 26.738281 51.039062 26.359375 51.417969 26.359375 51.890625 C 26.359375 52.359375 26.738281 52.738281 27.207031 52.738281 C 27.675781 52.738281 28.058594 52.359375 28.058594 51.890625 Z M 28.058594 51.890625 "/>
<path style=" stroke:none;fill-rule:nonzero;fill:rgb(0%,0%,0%);fill-opacity:1;" d="M 50.152344 41.046875 C 50.152344 40.578125 49.773438 40.195312 49.304688 40.195312 C 48.832031 40.195312 48.453125 40.578125 48.453125 41.046875 C 48.453125 41.515625 48.832031 41.894531 49.304688 41.894531 C 49.773438 41.894531 50.152344 41.515625 50.152344 41.046875 Z M 50.152344 41.046875 "/>
<path style=" stroke:none;fill-rule:nonzero;fill:rgb(0%,0%,0%);fill-opacity:1;" d="M 9.738281 28.382812 C 9.738281 27.914062 9.359375 27.53125 8.886719 27.53125 C 8.417969 27.53125 8.039062 27.914062 8.039062 28.382812 C 8.039062 28.851562 8.417969 29.234375 8.886719 29.234375 C 9.359375 29.234375 9.738281 28.851562 9.738281 28.382812 Z M 9.738281 28.382812 "/>
<path style=" stroke:none;fill-rule:nonzero;fill:rgb(0%,0%,0%);fill-opacity:1;" d="M 23.914062 46.53125 C 23.914062 46.0625 23.535156 45.679688 23.066406 45.679688 C 22.59375 45.679688 22.214844 46.0625 22.214844 46.53125 C 22.214844 47 22.59375 47.382812 23.066406 47.382812 C 23.535156 47.382812 23.914062 47 23.914062 46.53125 Z M 23.914062 46.53125 "/>
<path style=" stroke:none;fill-rule:nonzero;fill:rgb(0%,0%,0%);fill-opacity:1;" d="M 7.914062 23.875 C 7.914062 23.40625 7.535156 23.023438 7.066406 23.023438 C 6.59375 23.023438 6.214844 23.40625 6.214844 23.875 C 6.214844 24.34375 6.59375 24.726562 7.066406 24.726562 C 7.535156 24.726562 7.914062 24.34375 7.914062 23.875 Z M 7.914062 23.875 "/>
<path style=" stroke:none;fill-rule:nonzero;fill:rgb(0%,0%,0%);fill-opacity:1;" d="M 31.945312 46.503906 C 31.945312 46.035156 31.5625 45.65625 31.09375 45.65625 C 30.625 45.65625 30.242188 46.035156 30.242188 46.503906 C 30.242188 46.972656 30.625 47.355469 31.09375 47.355469 C 31.5625 47.355469 31.945312 46.972656 31.945312 46.503906 Z M 31.945312 46.503906 "/>
<path style=" stroke:none;fill-rule:nonzero;fill:rgb(0%,0%,0%);fill-opacity:1;" d="M 28.871094 53.8125 C 28.871094 53.339844 28.492188 52.960938 28.023438 52.960938 C 27.550781 52.960938 27.171875 53.339844 27.171875 53.8125 C 27.171875 54.28125 27.550781 54.660156 28.023438 54.660156 C 28.492188 54.660156 28.871094 54.28125 28.871094 53.8125 Z M 28.871094 53.8125 "/>
<path style=" stroke:none;fill-rule:nonzero;fill:rgb(0%,0%,0%);fill-opacity:1;" d="M 27.992188 54.617188 C 27.992188 54.148438 27.609375 53.765625 27.140625 53.765625 C 26.671875 53.765625 26.289062 54.148438 26.289062 54.617188 C 26.289062 55.085938 26.671875 55.46875 27.140625 55.46875 C 27.609375 55.46875 27.992188 55.085938 27.992188 54.617188 Z M 27.992188 54.617188 "/>
<path style=" stroke:none;fill-rule:nonzero;fill:rgb(0%,0%,0%);fill-opacity:1;" d="M 29.679688 29.8125 C 29.679688 29.34375 29.296875 28.960938 28.828125 28.960938 C 28.359375 28.960938 27.976562 29.34375 27.976562 29.8125 C 27.976562 30.28125 28.359375 30.664062 28.828125 30.664062 C 29.296875 30.664062 29.679688 30.28125 29.679688 29.8125 Z M 29.679688 29.8125 "/>
<path style=" stroke:none;fill-rule:nonzero;fill:rgb(0%,0%,0%);fill-opacity:1;" d="M 51.851562 3.691406 C 51.851562 3.21875 51.472656 2.839844 51 2.839844 C 50.53125 2.839844 50.152344 3.21875 50.152344 3.691406 C 50.152344 4.160156 50.53125 4.539062 51 4.539062 C 51.472656 4.539062 51.851562 4.160156 51.851562 3.691406 Z M 51.851562 3.691406 "/>
<path style=" stroke:none;fill-rule:nonzero;fill:rgb(0%,0%,0%);fill-opacity:1;" d="M 31.542969 11.710938 C 31.542969 11.242188 31.160156 10.863281 30.691406 10.863281 C 30.222656 10.863281 29.84375 11.242188 29.84375 11.710938 C 29.84375 12.179688 30.222656 12.5625 30.691406 12.5625 C 31.160156 12.5625 31.542969 12.179688 31.542969 11.710938 Z M 31.542969 11.710938 "/>
<path style=" stroke:none;fill-rule:nonzero;fill:rgb(0%,0%,0%);fill-opacity:1;" d="M 56.601562 50.058594 C 56.601562 49.589844 56.21875 49.207031 55.75 49.207031 C 55.28125 49.207031 54.898438 49.589844 54.898438 50.058594 C 54.898438 50.527344 55.28125 50.910156 55.75 50.910156 C 56.21875 50.910156 56.601562 50.527344 56.601562 50.058594 Z M 56.601562 50.058594 "/>
<path style=" stroke:none;fill-rule:nonzero;fill:rgb(0%,0%,0%);fill-opacity:1;" d="M 57.027344 18.648438 C 57.027344 18.175781 56.648438 17.796875 56.175781 17.796875 C 55.707031 17.796875 55.328125 18.175781 55.328125 18.648438 C 55.328125 19.117188 55.707031 19.496094 56.175781 19.496094 C 56.648438 19.496094 57.027344 19.117188 57.027344 18.648438 Z M 57.027344 18.648438 "/>
<path style=" stroke:none;fill-rule:nonzero;fill:rgb(0%,0%,0%);fill-opacity:1;" d="M 45.644531 22.503906 C 45.644531 22.035156 45.261719 21.65625 44.792969 21.65625 C 44.324219 21.65625 43.941406 22.035156 43.941406 22.503906 C 43.941406 22.972656 44.324219 23.355469 44.792969 23.355469 C 45.261719 23.355469 45.644531 22.972656 45.644531 22.503906 Z M 45.644531 22.503906 "/>
<path style=" stroke:none;fill-rule:nonzero;fill:rgb(0%,0%,0%);fill-opacity:1;" d="M 30.683594 55.691406 C 30.683594 55.222656 30.300781 54.839844 29.832031 54.839844 C 29.363281 54.839844 28.980469 55.222656 28.980469 55.691406 C 28.980469 56.160156 29.363281 56.542969 29.832031 56.542969 C 30.300781 56.542969 30.683594 56.160156 30.683594 55.691406 Z M 30.683594 55.691406 "/>
<path style=" stroke:none;fill-rule:nonzero;fill:rgb(0%,0%,0%);fill-opacity:1;" d="M 30.753906 9.359375 C 30.753906 8.886719 30.371094 8.507812 29.902344 8.507812 C 29.433594 8.507812 29.050781 8.886719 29.050781 9.359375 C 29.050781 9.828125 29.433594 10.207031 29.902344 10.207031 C 30.371094 10.207031 30.753906 9.828125 30.753906 9.359375 Z M 30.753906 9.359375 "/>
<path style=" stroke:none;fill-rule:nonzero;fill:rgb(0%,0%,0%);fill-opacity:1;" d="M 52.085938 44.441406 C 52.085938 43.972656 51.707031 43.589844 51.238281 43.589844 C 50.765625 43.589844 50.386719 43.972656 50.386719 44.441406 C 50.386719 44.910156 50.765625 45.292969 51.238281 45.292969 C 51.707031 45.292969 52.085938 44.910156 52.085938 44.441406 Z M 52.085938 44.441406 "/>
<path style=" stroke:none;fill-rule:nonzero;fill:rgb(0%,0%,0%);fill-opacity:1;" d="M 34.363281 10.644531 C 34.363281 10.175781 33.984375 9.796875 33.515625 9.796875 C 33.042969 9.796875 32.664062 10.175781 32.664062 10.644531 C 32.664062 11.113281 33.042969 11.496094 33.515625 11.496094 C 33.984375 11.496094 34.363281 11.113281 34.363281 10.644531 Z M 34.363281 10.644531 "/>
<path style=" stroke:none;fill-rule:nonzero;fill:rgb(0%,0%,0%);fill-opacity:1;" d="M 37.246094 32.78125 C 37.246094 32.3125 36.867188 31.933594 36.394531 31.933594 C 35.925781 31.933594 35.546875 32.3125 35.546875 32.78125 C 35.546875 33.253906 35.925781 33.632812 36.394531 33.632812 C 36.867188 33.632812 37.246094 33.253906 37.246094 32.78125 Z M 37.246094 32.78125 "/>
<path style=" stroke:none;fill-rule:nonzero;fill:rgb(0%,0%,0%);fill-opacity:1;" d="M 57.851562 56.304688 C 57.851562 55.835938 57.472656 55.453125 57.003906 55.453125 C 56.53125 55.453125 56.152344 55.835938 56.152344 56.304688 C 56.152344 56.773438 56.53125 57.15625 57.003906 57.15625 C 57.472656 57.15625 57.851562 56.773438 57.851562 56.304688 Z M 57.851562 56.304688 "/>
<path style=" stroke:none;fill-rule:nonzero;fill:rgb(0%,0%,0%);fill-opacity:1;" d="M 34.882812 44.894531 C 34.882812 44.425781 34.503906 44.042969 34.03125 44.042969 C 33.5625 44.042969 33.183594 44.425781 33.183594 44.894531 C 33.183594 45.363281 33.5625 45.746094 34.03125 45.746094 C 34.503906 45.746094 34.882812 45.363281 34.882812 44.894531 Z M 34.882812 44.894531 "/>
<path style=" stroke:none;fill-rule:nonzero;fill:rgb(0%,0%,0%);fill-opacity:1;" d="M 15.746094 21.109375 C 15.746094 20.640625 15.363281 20.257812 14.894531 20.257812 C 14.425781 20.257812 14.042969 20.640625 14.042969 21.109375 C 14.042969 21.578125 14.425781 21.960938 14.894531 21.960938 C 15.363281 21.960938 15.746094 21.578125 15.746094 21.109375 Z M 15.746094 21.109375 "/>
<path style=" stroke:none;fill-rule:nonzero;fill:rgb(0%,0%,0%);fill-opacity:1;" d="M 60.847656 12.53125 C 60.847656 12.0625 60.464844 11.679688 59.996094 11.679688 C 59.527344 11.679688 59.144531 12.0625 59.144531 12.53125 C 59.144531 13 59.527344 13.382812 59.996094 13.382812 C 60.464844 13.382812 60.847656 13 60.847656 12.53125 Z M 60.847656 12.53125 "/>
<path style=" stroke:none;fill-rule:nonzero;fill:rgb(0%,0%,0%);fill-opacity:1;" d="M 40.175781 31.871094 C 40.175781 31.398438 39.796875 31.019531 39.328125 31.019531 C 38.855469 31.019531 38.476562 31.398438 38.476562 31.871094 C 38.476562 32.339844 38.855469 32.71875 39.328125 32.71875 C 39.796875 32.71875 40.175781 32.339844 40.175781 31.871094 Z M 40.175781 31.871094 "/>
<path style=" stroke:none;fill-rule:nonzero;fill:rgb(0%,0%,0%);fill-opacity:1;" d="M 16.054688 41.179688 C 16.054688 40.710938 15.671875 40.328125 15.203125 40.328125 C 14.734375 40.328125 14.351562 40.710938 14.351562 41.179688 C 14.351562 41.648438 14.734375 42.03125 15.203125 42.03125 C 15.671875 42.03125 16.054688 41.648438 16.054688 41.179688 Z M 16.054688 41.179688 "/>
<path style=" stroke:none;fill-rule:nonzero;fill:rgb(0%,0%,0%);fill-opacity:1;" d="M 28.40625 43.328125 C 28.40625 42.859375 28.027344 42.476562 27.558594 42.476562 C 27.085938 42.476562 26.707031 42.859375 26.707031 43.328125 C 26.707031 43.796875 27.085938 44.179688 27.558594 44.179688 C 28.027344 44.179688 28.40625 43.796875 28.40625 43.328125 Z M 28.40625 43.328125 "/>
<path style=" stroke:none;fill-rule:nonzero;fill:rgb(0%,0%,0%);fill-opacity:1;" d="M 12.105469 4.992188 C 12.105469 4.523438 11.722656 4.140625 11.253906 4.140625 C 10.785156 4.140625 10.402344 4.523438 10.402344 4.992188 C 10.402344 5.460938 10.785156 5.84375 11.253906 5.84375 C 11.722656 5.84375 12.105469 5.460938 12.105469 4.992188 Z M 12.105469 4.992188 "/>
<path style=" stroke:none;fill-rule:nonzero;fill:rgb(0%,0%,0%);fill-opacity:1;" d="M 12.175781 48.546875 C 12.175781 48.078125 11.796875 47.699219 11.328125 47.699219 C 10.855469 47.699219 10.476562 48.078125 10.476562 48.546875 C 10.476562 49.019531 10.855469 49.398438 11.328125 49.398438 C 11.796875 49.398438 12.175781 49.019531 12.175781 48.546875 Z M 12.175781 48.546875 "/>
<path style=" stroke:none;fill-rule:nonzero;fill:rgb(0%,0%,0%);fill-opacity:1;" d="M 13.648438 57.652344 C 13.648438 57.183594 13.265625 56.804688 12.796875 56.804688 C 12.328125 56.804688 11.945312 57.183594 11.945312 57.652344 C 11.945312 58.121094 12.328125 58.503906 12.796875 58.503906 C 13.265625 58.503906 13.648438 58.121094 13.648438 57.652344 Z M 13.648438 57.652344 "/>
<path style=" stroke:none;fill-rule:nonzero;fill:rgb(0%,0%,0%);fill-opacity:1;" d="M 30.621094 45.054688 C 30.621094 44.585938 30.242188 44.207031 29.773438 44.207031 C 29.300781 44.207031 28.921875 44.585938 28.921875 45.054688 C 28.921875 45.523438 29.300781 45.90625 29.773438 45.90625 C 30.242188 45.90625 30.621094 45.523438 30.621094 45.054688 Z M 30.621094 45.054688 "/>
<path style=" stroke:none;fill-rule:nonzero;fill:rgb(0%,0%,0%);fill-opacity:1;" d="M 21.894531 24.207031 C 21.894531 23.738281 21.515625 23.355469 21.042969 23.355469 C 20.574219 23.355469 20.195312 23.738281 20.195312 24.207031 C 20.195312 24.675781 20.574219 25.058594 21.042969 25.058594 C 21.515625 25.058594 21.894531 24.675781 21.894531 24.207031 Z M 21.894531 24.207031 "/>
<path style=" stroke:none;fill-rule:nonzero;fill:rgb(0%,0%,0%);fill-opacity:1;" d="M 60.40625 33.109375 C 60.40625 32.640625 60.027344 32.257812 59.558594 32.257812 C 59.089844 32.257812 58.707031 32.640625 58.707031 33.109375 C 58.707031 33.578125 59.089844 33.957031 59.558594 33.957031 C 60.027344 33.957031 60.40625 33.578125 60.40625 33.109375 Z M 60.40625 33.109375 "/>
<path style=" stroke:none;fill-rule:nonzero;fill:rgb(0%,0%,0%);fill-opacity:1;" d="M 20.273438 49.671875 C 20.273438 49.199219 19.894531 48.820312 19.421875 48.820312 C 18.953125 48.820312 18.574219 49.199219 18.574219 49.671875 C 18.574219 50.140625 18.953125 50.519531 19.421875 50.519531 C 19.894531 50.519531 20.273438 50.140625 20.273438 49.671875 Z M 20.273438 49.671875 "/>
<path style=" stroke:none;fill-rule:nonzero;fill:rgb(0%,0%,0%);fill-opacity:1;" d="M 42.894531 30.019531 C 42.894531 29.550781 42.515625 29.167969 42.042969 29.167969 C 41.574219 29.167969 41.195312 29.550781 41.195312 30.019531 C 41.195312 30.488281 41.574219 30.871094 42.042969 30.871094 C 42.515625 30.871094 42.894531 30.488281 42.894531 30.019531 Z M 42.894531 30.019531 "/>
<path style=" stroke:none;fill-rule:nonzero;fill:rgb(0%,0%,0%);fill-opacity:1;" d="M 58.808594 15.054688 C 58.808594 14.585938 58.429688 14.207031 57.960938 14.207031 C 57.488281 14.207031 57.109375 14.585938 57.109375 15.054688 C 57.109375 15.527344 57.488281 15.90625 57.960938 15.90625 C 58.429688 15.90625 58.808594 15.527344 58.808594 15.054688 Z M 58.808594 15.054688 "/>
<path style=" stroke:none;fill-rule:nonzero;fill:rgb(0%,0%,0%);fill-opacity:1;" d="M 21.90625 10.335938 C 21.90625 9.867188 21.527344 9.484375 21.058594 9.484375 C 20.585938 9.484375 20.207031 9.867188 20.207031 10.335938 C 20.207031 10.804688 20.585938 11.1875 21.058594 11.1875 C 21.527344 11.1875 21.90625 10.804688 21.90625 10.335938 Z M 21.90625 10.335938 "/>
<path style=" stroke:none;fill-rule:nonzero;fill:rgb(0%,0%,0%);fill-opacity:1;" d="M 27.082031 14.574219 C 27.082031 14.101562 26.703125 13.722656 26.230469 13.722656 C 25.761719 13.722656 25.382812 14.101562 25.382812 14.574219 C 25.382812 15.042969 25.761719 15.421875 26.230469 15.421875 C 26.703125 15.421875 27.082031 15.042969 27.082031 14.574219 Z M 27.082031 14.574219 "/>
<path style=" stroke:none;fill-rule:nonzero;fill:rgb(0%,0%,0%);fill-opacity:1;" d="M 60.761719 57.246094 C 60.761719 56.773438 60.382812 56.394531 59.910156 56.394531 C 59.441406 56.394531 59.0625 56.773438 59.0625 57.246094 C 59.0625 57.714844 59.441406 58.09375 59.910156 58.09375 C 60.382812 58.09375 60.761719 57.714844 60.761719 57.246094 Z M 60.761719 57.246094 "/>
<path style=" stroke:none;fill-rule:nonzero;fill:rgb(0%,0%,0%);fill-opacity:1;" d="M 4.535156 40.769531 C 4.535156 40.300781 4.152344 39.917969 3.683594 39.917969 C 3.214844 39.917969 2.832031 40.300781 2.832031 40.769531 C 2.832031 41.238281 3.214844 41.621094 3.683594 41.621094 C 4.152344 41.621094 4.535156 41.238281 4.535156 40.769531 Z M 4.535156 40.769531 "/>
<path style=" stroke:none;fill-rule:nonzero;fill:rgb(0%,0%,0%);fill-opacity:1;" d="M 28.511719 11.777344 C 28.511719 11.304688 28.132812 10.925781 27.660156 10.925781 C 27.191406 10.925781 26.8125 11.304688 26.8125 11.777344 C 26.8125 12.246094 27.191406 12.625 27.660156 12.625 C 28.132812 12.625 28.511719 12.246094 28.511719 11.777344 Z M 28.511719 11.777344 "/>
<path style=" stroke:none;fill-rule:nonzero;fill:rgb(0%,0%,0%);fill-opacity:1;" d="M 19.617188 36.742188 C 19.617188 36.273438 19.234375 35.894531 18.765625 35.894531 C 18.296875 35.894531 17.914062 36.273438 17.914062 36.742188 C 17.914062 37.214844 18.296875 37.59375 18.765625 37.59375 C 19.234375 37.59375 19.617188 37.214844 19.617188 36.742188 Z M 19.617188 36.742188 "/>
<path style=" stroke:none;fill-rule:nonzero;fill:rgb(0%,0%,0%);fill-opacity:1;" d="M 7.617188 24.980469 C 7.617188 24.507812 7.234375 24.128906 6.765625 24.128906 C 6.296875 24.128906 5.914062 24.507812 5.914062 24.980469 C 5.914062 25.449219 6.296875 25.828125 6.765625 25.828125 C 7.234375 25.828125 7.617188 25.449219 7.617188 24.980469 Z M 7.617188 24.980469 "/>
<path style=" stroke:none;fill-rule:nonzero;fill:rgb(0%,0%,0%);fill-opacity:1;" d="M 31.78125 43.320312 C 31.78125 42.847656 31.398438 42.46875 30.929688 42.46875 C 30.460938 42.46875 30.082031 42.847656 30.082031 43.320312 C 30.082031 43.789062 30.460938 44.167969 30.929688 44.167969 C 31.398438 44.167969 31.78125 43.789062 31.78125 43.320312 Z M 31.78125 43.320312 "/>
<path style=" stroke:none;fill-rule:nonzero;fill:rgb(0%,0%,0%);fill-opacity:1;" d="M 30.625 9.339844 C 30.625 8.871094 30.246094 8.488281 29.777344 8.488281 C 29.304688 8.488281 28.925781 8.871094 28.925781 9.339844 C 28.925781 9.808594 29.304688 10.191406 29.777344 10.191406 C 30.246094 10.191406 30.625 9.808594 30.625 9.339844 Z M 30.625 9.339844 "/>
<path style=" stroke:none;fill-rule:nonzero;fill:rgb(0%,0%,0%);fill-opacity:1;" d="M 53.226562 32.183594 C 53.226562 31.714844 52.84375 31.332031 52.375 31.332031 C 51.90625 31.332031 51.523438 31.714844 51.523438 32.183594 C 51.523438 32.652344 51.90625 33.035156 52.375 33.035156 C 52.84375 33.035156 53.226562 32.652344 53.226562 32.183594 Z M 53.226562 32.183594 "/>
<path style=" stroke:none;fill-rule:nonzero;fill:rgb(0%,0%,0%);fill-opacity:1;" d="M 46.234375 39.261719 C 46.234375 38.792969 45.855469 38.410156 45.382812 38.410156 C 44.914062 38.410156 44.535156 38.792969 44.535156 39.261719 C 44.535156 39.730469 44.914062 40.113281 45.382812 40.113281 C 45.855469 40.113281 46.234375 39.730469 46.234375 39.261719 Z M 46.234375 39.261719 "/>
<path style=" stroke:none;fill-rule:nonzero;fill:rgb(0%,0%,0%);fill-opacity:1;" d="M 28.179688 56.5 C 28.179688 56.03125 27.796875 55.648438 27.328125 55.648438 C 26.859375 55.648438 26.480469 56.03125 26.480469 56.5 C 26.480469 56.96875 26.859375 57.351562 27.328125 57.351562 C 27.796875 57.351562 28.179688 56.96875 28.179688 56.5 Z M 28.179688 56.5 "/>
<path style=" stroke:none;fill-rule:nonzero;fill:rgb(0%,0%,0%);fill-opacity:1;" d="M 30.511719 30.171875 C 30.511719 29.699219 30.132812 29.320312 29.660156 29.320312 C 29.191406 29.320312 28.8125 29.699219 28.8125 30.171875 C 28.8125 30.640625 29.191406 31.019531 29.660156 31.019531 C 30.132812 31.019531 30.511719 30.640625 30.511719 30.171875 Z M 30.511719 30.171875 "/>
<path style=" stroke:none;fill-rule:nonzero;fill:rgb(0%,0%,0%);fill-opacity:1;" d="M 26.445312 49.554688 C 26.445312 49.085938 26.0625 48.703125 25.59375 48.703125 C 25.125 48.703125 24.742188 49.085938 24.742188 49.554688 C 24.742188 50.023438 25.125 50.40625 25.59375 50.40625 C 26.0625 50.40625 26.445312 50.023438 26.445312 49.554688 Z M 26.445312 49.554688 "/>
<path style=" stroke:none;fill-rule:nonzero;fill:rgb(0%,0%,0%);fill-opacity:1;" d="M 9.136719 42.398438 C 9.136719 41.929688 8.757812 41.550781 8.285156 41.550781 C 7.816406 41.550781 7.4375 41.929688 7.4375 42.398438 C 7.4375 42.867188 7.816406 43.25 8.285156 43.25 C 8.757812 43.25 9.136719 42.867188 9.136719 42.398438 Z M 9.136719 42.398438 "/>
</g>
</svg>
