<?xml version="1.0" encoding="UTF-8"?>
<svg xmlns="http://www.w3.org/2000/svg" xmlns:xlink="http://www.w3.org/1999/xlink" width="147.401pt" height="119.055pt" viewBox="0 0 147.401 119.055" version="1.1">
<defs>
<clipPath id="clip1">
  <path d="M 11 110 L 23 110 L 23 116.21875 L 11 116.21875 Z M 11 110 "/>
</clipPath>
<clipPath id="clip2">
  <path d="M 5 104 L 29 104 L 29 116.21875 L 5 116.21875 Z M 5 104 "/>
</clipPath>
<clipPath id="clip3">
  <path d="M 2.835938 82 L 9 82 L 9 94 L 2.835938 94 Z M 2.835938 82 "/>
</clipPath>
<clipPath id="clip4">
  <path d="M 2.835938 76 L 15 76 L 15 100 L 2.835938 100 Z M 2.835938 76 "/>
</clipPath>
<clipPath id="clip5">
  <path d="M 2.835938 25 L 9 25 L 9 37 L 2.835938 37 Z M 2.835938 25 "/>
</clipPath>
<clipPath id="clip6">
  <path d="M 2.835938 19 L 15 19 L 15 43 L 2.835938 43 Z M 2.835938 19 "/>
</clipPath>
<clipPath id="clip7">
  <path d="M 11 2.832031 L 23 2.832031 L 23 9 L 11 9 Z M 11 2.832031 "/>
</clipPath>
<clipPath id="clip8">
  <path d="M 5 2.832031 L 29 2.832031 L 29 15 L 5 15 Z M 5 2.832031 "/>
</clipPath>
<clipPath id="clip9">
  <path d="M 39 110 L 52 110 L 52 116.21875 L 39 116.21875 Z M 39 110 "/>
</clipPath>
<clipPath id="clip10">
  <path d="M 34 104 L 57 104 L 57 116.21875 L 34 116.21875 Z M 34 104 "/>
</clipPath>
<clipPath id="clip11">
  <path d="M 39 2.832031 L 52 2.832031 L 52 9 L 39 9 Z M 39 2.832031 "/>
</clipPath>
<clipPath id="clip12">
  <path d="M 34 2.832031 L 57 2.832031 L 57 15 L 34 15 Z M 34 2.832031 "/>
</clipPath>
<clipPath id="clip13">
  <path d="M 68 110 L 80 110 L 80 116.21875 L 68 116.21875 Z M 68 110 "/>
</clipPath>
<clipPath id="clip14">
  <path d="M 62 104 L 86 104 L 86 116.21875 L 62 116.21875 Z M 62 104 "/>
</clipPath>
<clipPath id="clip15">
  <path d="M 68 2.832031 L 80 2.832031 L 80 9 L 68 9 Z M 68 2.832031 "/>
</clipPath>
<clipPath id="clip16">
  <path d="M 62 2.832031 L 86 2.832031 L 86 15 L 62 15 Z M 62 2.832031 "/>
</clipPath>
<clipPath id="clip17">
  <path d="M 96 110 L 108 110 L 108 116.21875 L 96 116.21875 Z M 96 110 "/>
</clipPath>
<clipPath id="clip18">
  <path d="M 90 104 L 114 104 L 114 116.21875 L 90 116.21875 Z M 90 104 "/>
</clipPath>
<clipPath id="clip19">
  <path d="M 96 2.832031 L 108 2.832031 L 108 9 L 96 9 Z M 96 2.832031 "/>
</clipPath>
<clipPath id="clip20">
  <path d="M 90 2.832031 L 114 2.832031 L 114 15 L 90 15 Z M 90 2.832031 "/>
</clipPath>
<clipPath id="clip21">
  <path d="M 124 110 L 137 110 L 137 116.21875 L 124 116.21875 Z M 124 110 "/>
</clipPath>
<clipPath id="clip22">
  <path d="M 119 104 L 142 104 L 142 116.21875 L 119 116.21875 Z M 119 104 "/>
</clipPath>
<clipPath id="clip23">
  <path d="M 124 2.832031 L 137 2.832031 L 137 9 L 124 9 Z M 124 2.832031 "/>
</clipPath>
<clipPath id="clip24">
  <path d="M 119 2.832031 L 142 2.832031 L 142 15 L 119 15 Z M 119 2.832031 "/>
</clipPath>
<clipPath id="clip25">
  <path d="M 2.835938 2.832031 L 12 2.832031 L 12 116.21875 L 2.835938 116.21875 Z M 2.835938 2.832031 "/>
</clipPath>
<clipPath id="clip26">
  <path d="M 11 2.832031 L 40 2.832031 L 40 116.21875 L 11 116.21875 Z M 11 2.832031 "/>
</clipPath>
<clipPath id="clip27">
  <path d="M 39 2.832031 L 68 2.832031 L 68 116.21875 L 39 116.21875 Z M 39 2.832031 "/>
</clipPath>
<clipPath id="clip28">
  <path d="M 68 2.832031 L 97 2.832031 L 97 116.21875 L 68 116.21875 Z M 68 2.832031 "/>
</clipPath>
<clipPath id="clip29">
  <path d="M 96 2.832031 L 125 2.832031 L 125 116.21875 L 96 116.21875 Z M 96 2.832031 "/>
</clipPath>
<clipPath id="clip30">
  <path d="M 124 2.832031 L 144.570312 2.832031 L 144.570312 116.21875 L 124 116.21875 Z M 124 2.832031 "/>
</clipPath>
<clipPath id="clip31">
  <path d="M 2.835938 101 L 144.570312 101 L 144.570312 103 L 2.835938 103 Z M 2.835938 101 "/>
</clipPath>
<clipPath id="clip32">
  <path d="M 2.835938 73 L 144.570312 73 L 144.570312 74 L 2.835938 74 Z M 2.835938 73 "/>
</clipPath>
<clipPath id="clip33">
  <path d="M 2.835938 45 L 144.570312 45 L 144.570312 46 L 2.835938 46 Z M 2.835938 45 "/>
</clipPath>
<clipPath id="clip34">
  <path d="M 2.835938 16 L 144.570312 16 L 144.570312 18 L 2.835938 18 Z M 2.835938 16 "/>
</clipPath>
</defs>
<g id="surface1">
<g clip-path="url(#clip1)" clip-rule="nonzero">
<path style=" stroke:none;fill-rule:nonzero;fill:rgb(50%,50%,50%);fill-opacity:1;" d="M 22.679688 116.21875 C 22.679688 113.089844 20.140625 110.550781 17.007812 110.550781 C 13.878906 110.550781 11.339844 113.089844 11.339844 116.21875 C 11.339844 119.351562 13.878906 121.890625 17.007812 121.890625 C 20.140625 121.890625 22.679688 119.351562 22.679688 116.21875 Z M 22.679688 116.21875 "/>
</g>
<g clip-path="url(#clip2)" clip-rule="nonzero">
<path style="fill:none;stroke-width:0.3985;stroke-linecap:butt;stroke-linejoin:miter;stroke:rgb(0%,0%,0%);stroke-opacity:1;stroke-miterlimit:10;" d="M 76.537688 28.34825 C 76.537688 31.477156 73.998625 34.016219 70.865813 34.016219 C 67.736906 34.016219 65.197844 31.477156 65.197844 28.34825 C 65.197844 25.215438 67.736906 22.676375 70.865813 22.676375 C 73.998625 22.676375 76.537688 25.215438 76.537688 28.34825 Z M 76.537688 28.34825 " transform="matrix(1,0,0,-1,-53.858,144.567)"/>
</g>
<g clip-path="url(#clip3)" clip-rule="nonzero">
<path style=" stroke:none;fill-rule:nonzero;fill:rgb(50%,50%,50%);fill-opacity:1;" d="M 8.503906 87.875 C 8.503906 84.742188 5.964844 82.203125 2.835938 82.203125 C -0.296875 82.203125 -2.832031 84.742188 -2.832031 87.875 C -2.832031 91.003906 -0.296875 93.542969 2.835938 93.542969 C 5.964844 93.542969 8.503906 91.003906 8.503906 87.875 Z M 8.503906 87.875 "/>
</g>
<g clip-path="url(#clip4)" clip-rule="nonzero">
<path style="fill:none;stroke-width:0.3985;stroke-linecap:butt;stroke-linejoin:miter;stroke:rgb(0%,0%,0%);stroke-opacity:1;stroke-miterlimit:10;" d="M 62.361906 56.692 C 62.361906 59.824813 59.822844 62.363875 56.693937 62.363875 C 53.561125 62.363875 51.025969 59.824813 51.025969 56.692 C 51.025969 53.563094 53.561125 51.024031 56.693937 51.024031 C 59.822844 51.024031 62.361906 53.563094 62.361906 56.692 Z M 62.361906 56.692 " transform="matrix(1,0,0,-1,-53.858,144.567)"/>
</g>
<path style="fill-rule:nonzero;fill:rgb(50%,50%,50%);fill-opacity:1;stroke-width:0.3985;stroke-linecap:butt;stroke-linejoin:miter;stroke:rgb(0%,0%,0%);stroke-opacity:1;stroke-miterlimit:10;" d="M 76.537688 85.039656 C 76.537688 88.172469 73.998625 90.711531 70.865813 90.711531 C 67.736906 90.711531 65.197844 88.172469 65.197844 85.039656 C 65.197844 81.91075 67.736906 79.371688 70.865813 79.371688 C 73.998625 79.371688 76.537688 81.91075 76.537688 85.039656 Z M 76.537688 85.039656 " transform="matrix(1,0,0,-1,-53.858,144.567)"/>
<g clip-path="url(#clip5)" clip-rule="nonzero">
<path style=" stroke:none;fill-rule:nonzero;fill:rgb(50%,50%,50%);fill-opacity:1;" d="M 8.503906 31.179688 C 8.503906 28.046875 5.964844 25.511719 2.835938 25.511719 C -0.296875 25.511719 -2.832031 28.046875 -2.832031 31.179688 C -2.832031 34.3125 -0.296875 36.847656 2.835938 36.847656 C 5.964844 36.847656 8.503906 34.3125 8.503906 31.179688 Z M 8.503906 31.179688 "/>
</g>
<g clip-path="url(#clip6)" clip-rule="nonzero">
<path style="fill:none;stroke-width:0.3985;stroke-linecap:butt;stroke-linejoin:miter;stroke:rgb(0%,0%,0%);stroke-opacity:1;stroke-miterlimit:10;" d="M 62.361906 113.387313 C 62.361906 116.520125 59.822844 119.055281 56.693937 119.055281 C 53.561125 119.055281 51.025969 116.520125 51.025969 113.387313 C 51.025969 110.2545 53.561125 107.719344 56.693937 107.719344 C 59.822844 107.719344 62.361906 110.2545 62.361906 113.387313 Z M 62.361906 113.387313 " transform="matrix(1,0,0,-1,-53.858,144.567)"/>
</g>
<g clip-path="url(#clip7)" clip-rule="nonzero">
<path style=" stroke:none;fill-rule:nonzero;fill:rgb(50%,50%,50%);fill-opacity:1;" d="M 22.679688 2.832031 C 22.679688 -0.296875 20.140625 -2.835938 17.007812 -2.835938 C 13.878906 -2.835938 11.339844 -0.296875 11.339844 2.832031 C 11.339844 5.964844 13.878906 8.503906 17.007812 8.503906 C 20.140625 8.503906 22.679688 5.964844 22.679688 2.832031 Z M 22.679688 2.832031 "/>
</g>
<g clip-path="url(#clip8)" clip-rule="nonzero">
<path style="fill:none;stroke-width:0.3985;stroke-linecap:butt;stroke-linejoin:miter;stroke:rgb(0%,0%,0%);stroke-opacity:1;stroke-miterlimit:10;" d="M 76.537688 141.734969 C 76.537688 144.863875 73.998625 147.402938 70.865813 147.402938 C 67.736906 147.402938 65.197844 144.863875 65.197844 141.734969 C 65.197844 138.602156 67.736906 136.063094 70.865813 136.063094 C 73.998625 136.063094 76.537688 138.602156 76.537688 141.734969 Z M 76.537688 141.734969 " transform="matrix(1,0,0,-1,-53.858,144.567)"/>
</g>
<g clip-path="url(#clip9)" clip-rule="nonzero">
<path style=" stroke:none;fill-rule:nonzero;fill:rgb(50%,50%,50%);fill-opacity:1;" d="M 51.023438 116.21875 C 51.023438 113.089844 48.488281 110.550781 45.355469 110.550781 C 42.226562 110.550781 39.6875 113.089844 39.6875 116.21875 C 39.6875 119.351562 42.226562 121.890625 45.355469 121.890625 C 48.488281 121.890625 51.023438 119.351562 51.023438 116.21875 Z M 51.023438 116.21875 "/>
</g>
<g clip-path="url(#clip10)" clip-rule="nonzero">
<path style="fill:none;stroke-width:0.3985;stroke-linecap:butt;stroke-linejoin:miter;stroke:rgb(0%,0%,0%);stroke-opacity:1;stroke-miterlimit:10;" d="M 104.881438 28.34825 C 104.881438 31.477156 102.346281 34.016219 99.213469 34.016219 C 96.084563 34.016219 93.5455 31.477156 93.5455 28.34825 C 93.5455 25.215438 96.084563 22.676375 99.213469 22.676375 C 102.346281 22.676375 104.881438 25.215438 104.881438 28.34825 Z M 104.881438 28.34825 " transform="matrix(1,0,0,-1,-53.858,144.567)"/>
</g>
<path style="fill-rule:nonzero;fill:rgb(50%,50%,50%);fill-opacity:1;stroke-width:0.3985;stroke-linecap:butt;stroke-linejoin:miter;stroke:rgb(0%,0%,0%);stroke-opacity:1;stroke-miterlimit:10;" d="M 90.709563 56.692 C 90.709563 59.824813 88.1705 62.363875 85.041594 62.363875 C 81.908781 62.363875 79.369719 59.824813 79.369719 56.692 C 79.369719 53.563094 81.908781 51.024031 85.041594 51.024031 C 88.1705 51.024031 90.709563 53.563094 90.709563 56.692 Z M 90.709563 56.692 " transform="matrix(1,0,0,-1,-53.858,144.567)"/>
<path style="fill-rule:nonzero;fill:rgb(100%,0%,0%);fill-opacity:1;stroke-width:0.3985;stroke-linecap:butt;stroke-linejoin:miter;stroke:rgb(0%,0%,0%);stroke-opacity:1;stroke-miterlimit:10;" d="M 104.881438 85.039656 C 104.881438 88.172469 102.346281 90.711531 99.213469 90.711531 C 96.084563 90.711531 93.5455 88.172469 93.5455 85.039656 C 93.5455 81.91075 96.084563 79.371688 99.213469 79.371688 C 102.346281 79.371688 104.881438 81.91075 104.881438 85.039656 Z M 104.881438 85.039656 " transform="matrix(1,0,0,-1,-53.858,144.567)"/>
<path style="fill-rule:nonzero;fill:rgb(50%,50%,50%);fill-opacity:1;stroke-width:0.3985;stroke-linecap:butt;stroke-linejoin:miter;stroke:rgb(0%,0%,0%);stroke-opacity:1;stroke-miterlimit:10;" d="M 90.709563 113.387313 C 90.709563 116.520125 88.1705 119.055281 85.041594 119.055281 C 81.908781 119.055281 79.369719 116.520125 79.369719 113.387313 C 79.369719 110.2545 81.908781 107.719344 85.041594 107.719344 C 88.1705 107.719344 90.709563 110.2545 90.709563 113.387313 Z M 90.709563 113.387313 " transform="matrix(1,0,0,-1,-53.858,144.567)"/>
<g clip-path="url(#clip11)" clip-rule="nonzero">
<path style=" stroke:none;fill-rule:nonzero;fill:rgb(50%,50%,50%);fill-opacity:1;" d="M 51.023438 2.832031 C 51.023438 -0.296875 48.488281 -2.835938 45.355469 -2.835938 C 42.226562 -2.835938 39.6875 -0.296875 39.6875 2.832031 C 39.6875 5.964844 42.226562 8.503906 45.355469 8.503906 C 48.488281 8.503906 51.023438 5.964844 51.023438 2.832031 Z M 51.023438 2.832031 "/>
</g>
<g clip-path="url(#clip12)" clip-rule="nonzero">
<path style="fill:none;stroke-width:0.3985;stroke-linecap:butt;stroke-linejoin:miter;stroke:rgb(0%,0%,0%);stroke-opacity:1;stroke-miterlimit:10;" d="M 104.881438 141.734969 C 104.881438 144.863875 102.346281 147.402938 99.213469 147.402938 C 96.084563 147.402938 93.5455 144.863875 93.5455 141.734969 C 93.5455 138.602156 96.084563 136.063094 99.213469 136.063094 C 102.346281 136.063094 104.881438 138.602156 104.881438 141.734969 Z M 104.881438 141.734969 " transform="matrix(1,0,0,-1,-53.858,144.567)"/>
</g>
<g clip-path="url(#clip13)" clip-rule="nonzero">
<path style=" stroke:none;fill-rule:nonzero;fill:rgb(50%,50%,50%);fill-opacity:1;" d="M 79.371094 116.21875 C 79.371094 113.089844 76.832031 110.550781 73.703125 110.550781 C 70.570312 110.550781 68.035156 113.089844 68.035156 116.21875 C 68.035156 119.351562 70.570312 121.890625 73.703125 121.890625 C 76.832031 121.890625 79.371094 119.351562 79.371094 116.21875 Z M 79.371094 116.21875 "/>
</g>
<g clip-path="url(#clip14)" clip-rule="nonzero">
<path style="fill:none;stroke-width:0.3985;stroke-linecap:butt;stroke-linejoin:miter;stroke:rgb(0%,0%,0%);stroke-opacity:1;stroke-miterlimit:10;" d="M 133.229094 28.34825 C 133.229094 31.477156 130.690031 34.016219 127.561125 34.016219 C 124.428313 34.016219 121.893156 31.477156 121.893156 28.34825 C 121.893156 25.215438 124.428313 22.676375 127.561125 22.676375 C 130.690031 22.676375 133.229094 25.215438 133.229094 28.34825 Z M 133.229094 28.34825 " transform="matrix(1,0,0,-1,-53.858,144.567)"/>
</g>
<path style="fill-rule:nonzero;fill:rgb(100%,0%,0%);fill-opacity:1;stroke-width:0.3985;stroke-linecap:butt;stroke-linejoin:miter;stroke:rgb(0%,0%,0%);stroke-opacity:1;stroke-miterlimit:10;" d="M 119.057219 56.692 C 119.057219 59.824813 116.518156 62.363875 113.385344 62.363875 C 110.256438 62.363875 107.717375 59.824813 107.717375 56.692 C 107.717375 53.563094 110.256438 51.024031 113.385344 51.024031 C 116.518156 51.024031 119.057219 53.563094 119.057219 56.692 Z M 119.057219 56.692 " transform="matrix(1,0,0,-1,-53.858,144.567)"/>
<path style="fill-rule:nonzero;fill:rgb(89.99939%,89.99939%,89.99939%);fill-opacity:1;stroke-width:0.3985;stroke-linecap:butt;stroke-linejoin:miter;stroke:rgb(0%,0%,0%);stroke-opacity:1;stroke-miterlimit:10;" d="M 133.229094 85.039656 C 133.229094 88.172469 130.690031 90.711531 127.561125 90.711531 C 124.428313 90.711531 121.893156 88.172469 121.893156 85.039656 C 121.893156 81.91075 124.428313 79.371688 127.561125 79.371688 C 130.690031 79.371688 133.229094 81.91075 133.229094 85.039656 Z M 133.229094 85.039656 " transform="matrix(1,0,0,-1,-53.858,144.567)"/>
<path style="fill-rule:nonzero;fill:rgb(100%,0%,0%);fill-opacity:1;stroke-width:0.3985;stroke-linecap:butt;stroke-linejoin:miter;stroke:rgb(0%,0%,0%);stroke-opacity:1;stroke-miterlimit:10;" d="M 119.057219 113.387313 C 119.057219 116.520125 116.518156 119.055281 113.385344 119.055281 C 110.256438 119.055281 107.717375 116.520125 107.717375 113.387313 C 107.717375 110.2545 110.256438 107.719344 113.385344 107.719344 C 116.518156 107.719344 119.057219 110.2545 119.057219 113.387313 Z M 119.057219 113.387313 " transform="matrix(1,0,0,-1,-53.858,144.567)"/>
<g clip-path="url(#clip15)" clip-rule="nonzero">
<path style=" stroke:none;fill-rule:nonzero;fill:rgb(50%,50%,50%);fill-opacity:1;" d="M 79.371094 2.832031 C 79.371094 -0.296875 76.832031 -2.835938 73.703125 -2.835938 C 70.570312 -2.835938 68.035156 -0.296875 68.035156 2.832031 C 68.035156 5.964844 70.570312 8.503906 73.703125 8.503906 C 76.832031 8.503906 79.371094 5.964844 79.371094 2.832031 Z M 79.371094 2.832031 "/>
</g>
<g clip-path="url(#clip16)" clip-rule="nonzero">
<path style="fill:none;stroke-width:0.3985;stroke-linecap:butt;stroke-linejoin:miter;stroke:rgb(0%,0%,0%);stroke-opacity:1;stroke-miterlimit:10;" d="M 133.229094 141.734969 C 133.229094 144.863875 130.690031 147.402938 127.561125 147.402938 C 124.428313 147.402938 121.893156 144.863875 121.893156 141.734969 C 121.893156 138.602156 124.428313 136.063094 127.561125 136.063094 C 130.690031 136.063094 133.229094 138.602156 133.229094 141.734969 Z M 133.229094 141.734969 " transform="matrix(1,0,0,-1,-53.858,144.567)"/>
</g>
<g clip-path="url(#clip17)" clip-rule="nonzero">
<path style=" stroke:none;fill-rule:nonzero;fill:rgb(50%,50%,50%);fill-opacity:1;" d="M 107.71875 116.21875 C 107.71875 113.089844 105.179688 110.550781 102.050781 110.550781 C 98.917969 110.550781 96.378906 113.089844 96.378906 116.21875 C 96.378906 119.351562 98.917969 121.890625 102.050781 121.890625 C 105.179688 121.890625 107.71875 119.351562 107.71875 116.21875 Z M 107.71875 116.21875 "/>
</g>
<g clip-path="url(#clip18)" clip-rule="nonzero">
<path style="fill:none;stroke-width:0.3985;stroke-linecap:butt;stroke-linejoin:miter;stroke:rgb(0%,0%,0%);stroke-opacity:1;stroke-miterlimit:10;" d="M 161.57675 28.34825 C 161.57675 31.477156 159.037688 34.016219 155.908781 34.016219 C 152.775969 34.016219 150.236906 31.477156 150.236906 28.34825 C 150.236906 25.215438 152.775969 22.676375 155.908781 22.676375 C 159.037688 22.676375 161.57675 25.215438 161.57675 28.34825 Z M 161.57675 28.34825 " transform="matrix(1,0,0,-1,-53.858,144.567)"/>
</g>
<path style="fill-rule:nonzero;fill:rgb(100%,0%,0%);fill-opacity:1;stroke-width:0.3985;stroke-linecap:butt;stroke-linejoin:miter;stroke:rgb(0%,0%,0%);stroke-opacity:1;stroke-miterlimit:10;" d="M 147.404875 56.692 C 147.404875 59.824813 144.865813 62.363875 141.733 62.363875 C 138.604094 62.363875 136.065031 59.824813 136.065031 56.692 C 136.065031 53.563094 138.604094 51.024031 141.733 51.024031 C 144.865813 51.024031 147.404875 53.563094 147.404875 56.692 Z M 147.404875 56.692 " transform="matrix(1,0,0,-1,-53.858,144.567)"/>
<path style="fill-rule:nonzero;fill:rgb(100%,0%,0%);fill-opacity:1;stroke-width:0.3985;stroke-linecap:butt;stroke-linejoin:miter;stroke:rgb(0%,0%,0%);stroke-opacity:1;stroke-miterlimit:10;" d="M 161.57675 85.039656 C 161.57675 88.172469 159.037688 90.711531 155.908781 90.711531 C 152.775969 90.711531 150.236906 88.172469 150.236906 85.039656 C 150.236906 81.91075 152.775969 79.371688 155.908781 79.371688 C 159.037688 79.371688 161.57675 81.91075 161.57675 85.039656 Z M 161.57675 85.039656 " transform="matrix(1,0,0,-1,-53.858,144.567)"/>
<path style="fill-rule:nonzero;fill:rgb(100%,0%,0%);fill-opacity:1;stroke-width:0.3985;stroke-linecap:butt;stroke-linejoin:miter;stroke:rgb(0%,0%,0%);stroke-opacity:1;stroke-miterlimit:10;" d="M 147.404875 113.387313 C 147.404875 116.520125 144.865813 119.055281 141.733 119.055281 C 138.604094 119.055281 136.065031 116.520125 136.065031 113.387313 C 136.065031 110.2545 138.604094 107.719344 141.733 107.719344 C 144.865813 107.719344 147.404875 110.2545 147.404875 113.387313 Z M 147.404875 113.387313 " transform="matrix(1,0,0,-1,-53.858,144.567)"/>
<g clip-path="url(#clip19)" clip-rule="nonzero">
<path style=" stroke:none;fill-rule:nonzero;fill:rgb(50%,50%,50%);fill-opacity:1;" d="M 107.71875 2.832031 C 107.71875 -0.296875 105.179688 -2.835938 102.050781 -2.835938 C 98.917969 -2.835938 96.378906 -0.296875 96.378906 2.832031 C 96.378906 5.964844 98.917969 8.503906 102.050781 8.503906 C 105.179688 8.503906 107.71875 5.964844 107.71875 2.832031 Z M 107.71875 2.832031 "/>
</g>
<g clip-path="url(#clip20)" clip-rule="nonzero">
<path style="fill:none;stroke-width:0.3985;stroke-linecap:butt;stroke-linejoin:miter;stroke:rgb(0%,0%,0%);stroke-opacity:1;stroke-miterlimit:10;" d="M 161.57675 141.734969 C 161.57675 144.863875 159.037688 147.402938 155.908781 147.402938 C 152.775969 147.402938 150.236906 144.863875 150.236906 141.734969 C 150.236906 138.602156 152.775969 136.063094 155.908781 136.063094 C 159.037688 136.063094 161.57675 138.602156 161.57675 141.734969 Z M 161.57675 141.734969 " transform="matrix(1,0,0,-1,-53.858,144.567)"/>
</g>
<g clip-path="url(#clip21)" clip-rule="nonzero">
<path style=" stroke:none;fill-rule:nonzero;fill:rgb(50%,50%,50%);fill-opacity:1;" d="M 136.066406 116.21875 C 136.066406 113.089844 133.527344 110.550781 130.394531 110.550781 C 127.265625 110.550781 124.726562 113.089844 124.726562 116.21875 C 124.726562 119.351562 127.265625 121.890625 130.394531 121.890625 C 133.527344 121.890625 136.066406 119.351562 136.066406 116.21875 Z M 136.066406 116.21875 "/>
</g>
<g clip-path="url(#clip22)" clip-rule="nonzero">
<path style="fill:none;stroke-width:0.3985;stroke-linecap:butt;stroke-linejoin:miter;stroke:rgb(0%,0%,0%);stroke-opacity:1;stroke-miterlimit:10;" d="M 189.924406 28.34825 C 189.924406 31.477156 187.385344 34.016219 184.252531 34.016219 C 181.123625 34.016219 178.584563 31.477156 178.584563 28.34825 C 178.584563 25.215438 181.123625 22.676375 184.252531 22.676375 C 187.385344 22.676375 189.924406 25.215438 189.924406 28.34825 Z M 189.924406 28.34825 " transform="matrix(1,0,0,-1,-53.858,144.567)"/>
</g>
<path style="fill-rule:nonzero;fill:rgb(50%,50%,50%);fill-opacity:1;stroke-width:0.3985;stroke-linecap:butt;stroke-linejoin:miter;stroke:rgb(0%,0%,0%);stroke-opacity:1;stroke-miterlimit:10;" d="M 175.748625 56.692 C 175.748625 59.824813 173.213469 62.363875 170.080656 62.363875 C 166.947844 62.363875 164.412688 59.824813 164.412688 56.692 C 164.412688 53.563094 166.947844 51.024031 170.080656 51.024031 C 173.213469 51.024031 175.748625 53.563094 175.748625 56.692 Z M 175.748625 56.692 " transform="matrix(1,0,0,-1,-53.858,144.567)"/>
<path style="fill-rule:nonzero;fill:rgb(50%,50%,50%);fill-opacity:1;stroke-width:0.3985;stroke-linecap:butt;stroke-linejoin:miter;stroke:rgb(0%,0%,0%);stroke-opacity:1;stroke-miterlimit:10;" d="M 189.924406 85.039656 C 189.924406 88.172469 187.385344 90.711531 184.252531 90.711531 C 181.123625 90.711531 178.584563 88.172469 178.584563 85.039656 C 178.584563 81.91075 181.123625 79.371688 184.252531 79.371688 C 187.385344 79.371688 189.924406 81.91075 189.924406 85.039656 Z M 189.924406 85.039656 " transform="matrix(1,0,0,-1,-53.858,144.567)"/>
<path style="fill-rule:nonzero;fill:rgb(50%,50%,50%);fill-opacity:1;stroke-width:0.3985;stroke-linecap:butt;stroke-linejoin:miter;stroke:rgb(0%,0%,0%);stroke-opacity:1;stroke-miterlimit:10;" d="M 175.748625 113.387313 C 175.748625 116.520125 173.213469 119.055281 170.080656 119.055281 C 166.947844 119.055281 164.412688 116.520125 164.412688 113.387313 C 164.412688 110.2545 166.947844 107.719344 170.080656 107.719344 C 173.213469 107.719344 175.748625 110.2545 175.748625 113.387313 Z M 175.748625 113.387313 " transform="matrix(1,0,0,-1,-53.858,144.567)"/>
<g clip-path="url(#clip23)" clip-rule="nonzero">
<path style=" stroke:none;fill-rule:nonzero;fill:rgb(50%,50%,50%);fill-opacity:1;" d="M 136.066406 2.832031 C 136.066406 -0.296875 133.527344 -2.835938 130.394531 -2.835938 C 127.265625 -2.835938 124.726562 -0.296875 124.726562 2.832031 C 124.726562 5.964844 127.265625 8.503906 130.394531 8.503906 C 133.527344 8.503906 136.066406 5.964844 136.066406 2.832031 Z M 136.066406 2.832031 "/>
</g>
<g clip-path="url(#clip24)" clip-rule="nonzero">
<path style="fill:none;stroke-width:0.3985;stroke-linecap:butt;stroke-linejoin:miter;stroke:rgb(0%,0%,0%);stroke-opacity:1;stroke-miterlimit:10;" d="M 189.924406 141.734969 C 189.924406 144.863875 187.385344 147.402938 184.252531 147.402938 C 181.123625 147.402938 178.584563 144.863875 178.584563 141.734969 C 178.584563 138.602156 181.123625 136.063094 184.252531 136.063094 C 187.385344 136.063094 189.924406 138.602156 189.924406 141.734969 Z M 189.924406 141.734969 " transform="matrix(1,0,0,-1,-53.858,144.567)"/>
</g>
<g clip-path="url(#clip25)" clip-rule="nonzero">
<path style="fill:none;stroke-width:0.3985;stroke-linecap:butt;stroke-linejoin:miter;stroke:rgb(0%,0%,0%);stroke-opacity:1;stroke-dasharray:0.3985,0.99628;stroke-miterlimit:10;" d="M 59.455656 19.844344 C 59.455656 19.844344 58.959562 24.961531 58.096281 26.930281 C 57.229094 28.895125 54.729094 32.051375 53.225187 34.016219 C 51.721281 35.981063 48.658781 39.137313 47.26425 41.102156 C 45.869719 43.070906 43.76425 46.22325 43.166594 48.188094 C 42.572844 50.156844 42.471281 53.309188 42.971281 55.277938 C 43.471281 57.242781 45.424406 60.395125 46.772062 62.363875 C 48.119719 64.328719 51.158781 67.484969 52.682219 69.449813 C 54.209562 71.414656 56.822844 74.570906 57.772062 76.53575 C 58.717375 78.5045 59.611906 81.656844 59.510344 83.621688 C 59.408781 85.590438 58.13925 88.742781 57.037687 90.711531 C 55.936125 92.676375 53.131437 95.828719 51.580656 97.797469 C 50.025969 99.762313 47.080656 102.914656 45.846281 104.883406 C 44.611906 106.84825 42.986906 110.0045 42.682219 111.969344 C 42.381437 113.938094 42.881437 117.090438 43.658781 119.055281 C 44.436125 121.024031 46.818937 124.176375 48.291594 126.145125 C 49.76425 128.109969 52.842375 131.262313 54.279875 133.231063 C 55.717375 135.195906 57.963469 138.34825 58.650969 140.317 C 59.338469 142.281844 59.643156 145.438094 59.236906 147.402938 C 58.834562 149.371688 57.041594 152.524031 55.748625 154.488875 C 54.455656 156.457625 51.455656 159.609969 49.916594 161.574813 C 48.373625 163.543563 45.658781 166.695906 44.631437 168.664656 C 43.604094 170.6295 42.522062 173.781844 42.522062 175.750594 C 42.522062 177.715438 43.604094 180.871688 44.631437 182.836531 C 45.658781 184.805281 49.916594 189.922469 49.916594 189.922469 " transform="matrix(1,0,0,-1,-53.858,144.567)"/>
</g>
<g clip-path="url(#clip26)" clip-rule="nonzero">
<path style="fill:none;stroke-width:0.3985;stroke-linecap:butt;stroke-linejoin:miter;stroke:rgb(0%,0%,0%);stroke-opacity:1;stroke-dasharray:0.3985,0.99628;stroke-miterlimit:10;" d="M 87.803313 19.844344 C 87.803313 19.844344 87.307219 24.961531 86.440031 26.930281 C 85.57675 28.895125 83.072844 32.051375 81.572844 34.016219 C 80.068938 35.981063 77.006438 39.137313 75.611906 41.102156 C 74.213469 43.070906 72.111906 46.22325 71.51425 48.188094 C 70.9205 50.156844 70.818938 53.309188 71.318938 55.277938 C 71.818938 57.242781 73.772063 60.395125 75.119719 62.363875 C 76.467375 64.328719 79.502531 67.484969 81.029875 69.449813 C 82.557219 71.414656 85.1705 74.570906 86.115813 76.53575 C 87.065031 78.5045 87.959563 81.656844 87.858 83.621688 C 87.756438 85.590438 86.483 88.742781 85.385344 90.711531 C 84.283781 92.676375 81.479094 95.828719 79.928313 97.797469 C 78.373625 99.762313 75.428313 102.914656 74.193938 104.883406 C 72.959563 106.84825 71.334563 110.0045 71.029875 111.969344 C 70.729094 113.938094 71.229094 117.090438 72.006438 119.055281 C 72.783781 121.024031 75.166594 124.176375 76.63925 126.145125 C 78.111906 128.109969 81.186125 131.262313 82.623625 133.231063 C 84.061125 135.195906 86.311125 138.34825 86.998625 140.317 C 87.686125 142.281844 87.986906 145.438094 87.584563 147.402938 C 87.182219 149.371688 85.38925 152.524031 84.096281 154.488875 C 82.803313 156.457625 79.803313 159.609969 78.260344 161.574813 C 76.717375 163.543563 74.002531 166.695906 72.979094 168.664656 C 71.95175 170.6295 70.865813 173.781844 70.865813 175.750594 C 70.865813 177.715438 71.95175 180.871688 72.979094 182.836531 C 74.002531 184.805281 78.260344 189.922469 78.260344 189.922469 " transform="matrix(1,0,0,-1,-53.858,144.567)"/>
</g>
<g clip-path="url(#clip27)" clip-rule="nonzero">
<path style="fill:none;stroke-width:0.3985;stroke-linecap:butt;stroke-linejoin:miter;stroke:rgb(0%,0%,0%);stroke-opacity:1;stroke-dasharray:0.3985,0.99628;stroke-miterlimit:10;" d="M 116.147063 19.844344 C 116.147063 19.844344 115.650969 24.961531 114.787688 26.930281 C 113.924406 28.895125 111.4205 32.051375 109.9205 34.016219 C 108.416594 35.981063 105.354094 39.137313 103.955656 41.102156 C 102.561125 43.070906 100.455656 46.22325 99.861906 48.188094 C 99.268156 50.156844 99.166594 53.309188 99.666594 55.277938 C 100.166594 57.242781 102.119719 60.395125 103.467375 62.363875 C 104.815031 64.328719 107.850188 67.484969 109.377531 69.449813 C 110.900969 71.414656 113.518156 74.570906 114.463469 76.53575 C 115.412688 78.5045 116.303313 81.656844 116.20175 83.621688 C 116.100188 85.590438 114.830656 88.742781 113.733 90.711531 C 112.631438 92.676375 109.82675 95.828719 108.272063 97.797469 C 106.721281 99.762313 103.775969 102.914656 102.541594 104.883406 C 101.307219 106.84825 99.682219 110.0045 99.377531 111.969344 C 99.072844 113.938094 99.57675 117.090438 100.354094 119.055281 C 101.131438 121.024031 103.510344 124.176375 104.983 126.145125 C 106.459563 128.109969 109.533781 131.262313 110.971281 133.231063 C 112.408781 135.195906 114.654875 138.34825 115.346281 140.317 C 116.033781 142.281844 116.334563 145.438094 115.932219 147.402938 C 115.529875 149.371688 113.736906 152.524031 112.443938 154.488875 C 111.147063 156.457625 108.150969 159.609969 106.608 161.574813 C 105.065031 163.543563 102.350188 166.695906 101.322844 168.664656 C 100.299406 170.6295 99.213469 173.781844 99.213469 175.750594 C 99.213469 177.715438 100.299406 180.871688 101.322844 182.836531 C 102.350188 184.805281 106.608 189.922469 106.608 189.922469 " transform="matrix(1,0,0,-1,-53.858,144.567)"/>
</g>
<g clip-path="url(#clip28)" clip-rule="nonzero">
<path style="fill:none;stroke-width:0.3985;stroke-linecap:butt;stroke-linejoin:miter;stroke:rgb(0%,0%,0%);stroke-opacity:1;stroke-dasharray:0.3985,0.99628;stroke-miterlimit:10;" d="M 144.494719 19.844344 C 144.494719 19.844344 143.998625 24.961531 143.135344 26.930281 C 142.272063 28.895125 139.768156 32.051375 138.26425 34.016219 C 136.76425 35.981063 133.697844 39.137313 132.303313 41.102156 C 130.908781 43.070906 128.803313 46.22325 128.209563 48.188094 C 127.611906 50.156844 127.51425 53.309188 128.01425 55.277938 C 128.51425 57.242781 130.467375 60.395125 131.811125 62.363875 C 133.158781 64.328719 136.197844 67.484969 137.725188 69.449813 C 139.248625 71.414656 141.865813 74.570906 142.811125 76.53575 C 143.756438 78.5045 144.650969 81.656844 144.549406 83.621688 C 144.447844 85.590438 143.178313 88.742781 142.07675 90.711531 C 140.979094 92.676375 138.174406 95.828719 136.619719 97.797469 C 135.068938 99.762313 132.123625 102.914656 130.88925 104.883406 C 129.654875 106.84825 128.029875 110.0045 127.725188 111.969344 C 127.4205 113.938094 127.9205 117.090438 128.70175 119.055281 C 129.479094 121.024031 131.858 124.176375 133.330656 126.145125 C 134.803313 128.109969 137.881438 131.262313 139.318938 133.231063 C 140.756438 135.195906 143.002531 138.34825 143.690031 140.317 C 144.381438 142.281844 144.682219 145.438094 144.279875 147.402938 C 143.877531 149.371688 142.080656 152.524031 140.787688 154.488875 C 139.494719 156.457625 136.498625 159.609969 134.955656 161.574813 C 133.412688 163.543563 130.697844 166.695906 129.6705 168.664656 C 128.647063 170.6295 127.561125 173.781844 127.561125 175.750594 C 127.561125 177.715438 128.647063 180.871688 129.6705 182.836531 C 130.697844 184.805281 134.955656 189.922469 134.955656 189.922469 " transform="matrix(1,0,0,-1,-53.858,144.567)"/>
</g>
<g clip-path="url(#clip29)" clip-rule="nonzero">
<path style="fill:none;stroke-width:0.3985;stroke-linecap:butt;stroke-linejoin:miter;stroke:rgb(0%,0%,0%);stroke-opacity:1;stroke-dasharray:0.3985,0.99628;stroke-miterlimit:10;" d="M 172.842375 19.844344 C 172.842375 19.844344 172.346281 24.961531 171.483 26.930281 C 170.615813 28.895125 168.115813 32.051375 166.611906 34.016219 C 165.108 35.981063 162.0455 39.137313 160.650969 41.102156 C 159.256438 43.070906 157.150969 46.22325 156.557219 48.188094 C 155.959563 50.156844 155.858 53.309188 156.358 55.277938 C 156.858 57.242781 158.811125 60.395125 160.158781 62.363875 C 161.506438 64.328719 164.5455 67.484969 166.068938 69.449813 C 167.596281 71.414656 170.209563 74.570906 171.158781 76.53575 C 172.104094 78.5045 172.998625 81.656844 172.897063 83.621688 C 172.7955 85.590438 171.525969 88.742781 170.424406 90.711531 C 169.322844 92.676375 166.518156 95.828719 164.967375 97.797469 C 163.416594 99.762313 160.467375 102.914656 159.233 104.883406 C 158.002531 106.84825 156.373625 110.0045 156.072844 111.969344 C 155.768156 113.938094 156.268156 117.090438 157.0455 119.055281 C 157.82675 121.024031 160.205656 124.176375 161.678313 126.145125 C 163.150969 128.109969 166.229094 131.262313 167.666594 133.231063 C 169.104094 135.195906 171.350188 138.34825 172.037688 140.317 C 172.725188 142.281844 173.029875 145.438094 172.627531 147.402938 C 172.221281 149.371688 170.428313 152.524031 169.135344 154.488875 C 167.842375 156.457625 164.846281 159.609969 163.303313 161.574813 C 161.760344 163.543563 159.0455 166.695906 158.018156 168.664656 C 156.990813 170.6295 155.908781 173.781844 155.908781 175.750594 C 155.908781 177.715438 156.990813 180.871688 158.018156 182.836531 C 159.0455 184.805281 163.303313 189.922469 163.303313 189.922469 " transform="matrix(1,0,0,-1,-53.858,144.567)"/>
</g>
<g clip-path="url(#clip30)" clip-rule="nonzero">
<path style="fill:none;stroke-width:0.3985;stroke-linecap:butt;stroke-linejoin:miter;stroke:rgb(0%,0%,0%);stroke-opacity:1;stroke-dasharray:0.3985,0.99628;stroke-miterlimit:10;" d="M 201.190031 19.844344 C 201.190031 19.844344 200.693938 24.961531 199.82675 26.930281 C 198.963469 28.895125 196.463469 32.051375 194.959563 34.016219 C 193.455656 35.981063 190.393156 39.137313 188.998625 41.102156 C 187.600188 43.070906 185.498625 46.22325 184.900969 48.188094 C 184.307219 50.156844 184.205656 53.309188 184.705656 55.277938 C 185.205656 57.242781 187.158781 60.395125 188.506438 62.363875 C 189.854094 64.328719 192.88925 67.484969 194.416594 69.449813 C 195.943938 71.414656 198.557219 74.570906 199.506438 76.53575 C 200.45175 78.5045 201.346281 81.656844 201.244719 83.621688 C 201.143156 85.590438 199.873625 88.742781 198.772063 90.711531 C 197.6705 92.676375 194.865813 95.828719 193.315031 97.797469 C 191.760344 99.762313 188.815031 102.914656 187.580656 104.883406 C 186.346281 106.84825 184.721281 110.0045 184.416594 111.969344 C 184.115813 113.938094 184.615813 117.090438 185.393156 119.055281 C 186.1705 121.024031 188.553313 124.176375 190.025969 126.145125 C 191.498625 128.109969 194.57675 131.262313 196.01425 133.231063 C 197.447844 135.195906 199.697844 138.34825 200.385344 140.317 C 201.072844 142.281844 201.373625 145.438094 200.971281 147.402938 C 200.568938 149.371688 198.775969 152.524031 197.483 154.488875 C 196.190031 156.457625 193.190031 159.609969 191.647063 161.574813 C 190.108 163.543563 187.38925 166.695906 186.365813 168.664656 C 185.338469 170.6295 184.252531 173.781844 184.252531 175.750594 C 184.252531 177.715438 185.338469 180.871688 186.365813 182.836531 C 187.38925 184.805281 191.647063 189.922469 191.647063 189.922469 " transform="matrix(1,0,0,-1,-53.858,144.567)"/>
</g>
<g clip-path="url(#clip31)" clip-rule="nonzero">
<path style="fill:none;stroke-width:0.3985;stroke-linecap:butt;stroke-linejoin:miter;stroke:rgb(0%,0%,0%);stroke-opacity:1;stroke-dasharray:0.3985,0.99628;stroke-miterlimit:10;" d="M -0.001375 42.520125 L 255.119719 42.520125 " transform="matrix(1,0,0,-1,-53.858,144.567)"/>
</g>
<g clip-path="url(#clip32)" clip-rule="nonzero">
<path style="fill:none;stroke-width:0.3985;stroke-linecap:butt;stroke-linejoin:miter;stroke:rgb(0%,0%,0%);stroke-opacity:1;stroke-dasharray:0.3985,0.99628;stroke-miterlimit:10;" d="M -0.001375 70.867781 L 255.119719 70.867781 " transform="matrix(1,0,0,-1,-53.858,144.567)"/>
</g>
<g clip-path="url(#clip33)" clip-rule="nonzero">
<path style="fill:none;stroke-width:0.3985;stroke-linecap:butt;stroke-linejoin:miter;stroke:rgb(0%,0%,0%);stroke-opacity:1;stroke-dasharray:0.3985,0.99628;stroke-miterlimit:10;" d="M -0.001375 99.215438 L 255.119719 99.215438 " transform="matrix(1,0,0,-1,-53.858,144.567)"/>
</g>
<g clip-path="url(#clip34)" clip-rule="nonzero">
<path style="fill:none;stroke-width:0.3985;stroke-linecap:butt;stroke-linejoin:miter;stroke:rgb(0%,0%,0%);stroke-opacity:1;stroke-dasharray:0.3985,0.99628;stroke-miterlimit:10;" d="M -0.001375 127.559188 L 255.119719 127.559188 " transform="matrix(1,0,0,-1,-53.858,144.567)"/>
</g>
</g>
</svg>
