<?xml version="1.0" encoding="UTF-8"?>
<svg xmlns="http://www.w3.org/2000/svg" xmlns:xlink="http://www.w3.org/1999/xlink" width="62.947pt" height="63.257pt" viewBox="0 0 62.947 63.257" version="1.1">
<defs>
<clipPath id="clip1">
  <path d="M 0 0 L 62.945312 0 L 62.945312 63.257812 L 0 63.257812 Z M 0 0 "/>
</clipPath>
</defs>
<g id="surface1">
<g clip-path="url(#clip1)" clip-rule="nonzero">
<path style="fill:none;stroke-width:0.3985;stroke-linecap:butt;stroke-linejoin:miter;stroke:rgb(0%,0%,0%);stroke-opacity:1;stroke-miterlimit:10;" d="M 0.0005625 20.044062 C 0.0005625 20.044062 6.215406 26.184687 8.457594 27.239375 C 10.695875 28.294062 14.215406 28.481562 16.145094 27.633906 C 18.074781 26.78625 20.918531 23.669062 22.359938 21.13 C 23.80525 18.594844 25.715406 12.946406 26.539625 9.352656 C 27.363844 5.758906 28.168531 -1.006719 28.301344 -4.760625 C 28.434156 -8.510625 28.059156 -14.709844 27.484938 -17.686406 C 26.910719 -20.659063 25.391188 -24.741094 24.160719 -26.194219 C 22.934156 -27.647344 20.406813 -28.592656 18.641188 -28.162969 C 16.871656 -27.737188 13.566969 -25.3075 11.418531 -23.104375 C 9.270094 -20.90125 5.488844 -15.705938 3.156813 -12.27625 C 0.824781 -8.846563 -3.085375 -2.1825 -5.390062 1.618281 C -7.69475 5.415156 -11.38225 11.887812 -13.448656 15.106562 C -15.515062 18.325312 -18.640062 22.989375 -20.280687 24.825312 C -21.921312 26.66125 -24.202562 28.352656 -25.265062 28.344844 C -26.331469 28.340937 -27.558031 26.633906 -27.948656 24.790156 C -28.339281 22.946406 -28.401781 18.270625 -28.085375 15.047969 C -27.768969 11.821406 -26.659594 5.344844 -25.6635 1.544062 C -24.667406 -2.252813 -22.487719 -8.912969 -20.901781 -12.33875 C -19.31975 -15.764531 -16.268969 -20.948125 -14.237719 -23.147344 C -12.210375 -25.342656 -8.565844 -27.752813 -6.276781 -28.174688 C -3.987719 -28.592656 -0.0814687 -27.627813 2.254469 -26.166875 C 4.594313 -24.702031 8.406813 -20.608281 10.582594 -17.627813 C 12.762281 -14.647344 16.133375 -8.444219 17.949781 -4.690313 C 19.766188 -0.936406 22.387281 5.829219 23.676344 9.419062 C 24.965406 13.008906 26.602125 18.649531 27.250563 21.176875 C 27.895094 23.708125 28.395094 26.809687 28.3365 27.649531 C 28.281813 28.485469 27.598219 28.282344 26.844313 27.219844 C 26.090406 26.157344 24.289625 22.688594 22.906813 19.993281 C 21.524 17.294062 18.766188 11.434687 16.879469 7.774531 C 14.996656 4.114375 11.535719 -2.674688 9.316969 -6.381719 C 7.102125 -10.08875 3.250563 -16.116094 0.906813 -18.948125 C -1.440844 -21.77625 -5.327562 -25.534063 -7.589281 -26.784063 C -9.851 -28.030156 -13.421312 -28.580938 -15.390062 -27.9325 C -17.362719 -27.284063 -20.292406 -24.487188 -21.792406 -22.108281 C -23.292406 -19.725469 -25.315844 -14.284063 -26.206469 -10.764531 C -27.101 -7.245 -28.030687 -0.514531 -28.237719 3.266719 C -28.440844 7.044062 -28.19475 13.383906 -27.690844 16.481562 C -27.190844 19.575312 -25.784594 23.9425 -24.624437 25.579219 C -23.460375 27.219844 -21.030687 28.520625 -19.311937 28.294062 C -17.597094 28.0675 -14.358812 25.981562 -12.241625 23.946406 C -10.124437 21.91125 -6.378344 16.958125 -4.058031 13.618281 C -1.733812 10.282344 2.18025 3.696406 4.496656 -0.108281 C 6.816969 -3.912969 10.543531 -10.483281 12.645094 -13.8075 C 14.74275 -17.131719 17.945875 -22.049688 19.637281 -24.061406 C 21.328688 -26.073125 23.7115 -28.108281 24.840406 -28.3075 C 25.973219 -28.506719 27.316969 -27.15125 27.781813 -25.487188 C 28.250563 -23.823125 28.438063 -19.416875 28.195875 -16.303594 C 27.953688 -13.190313 26.9615 -6.834844 26.035719 -3.049688 C 25.106031 0.731562 23.035719 7.454219 21.504469 10.962031 C 19.977125 14.47375 17.004469 19.88 15.016188 22.239375 C 13.024 24.59875 9.426344 27.344844 7.156813 27.965937 C 4.887281 28.587031 0.99275 27.985469 -1.351 26.708125 C -3.69475 25.434687 -7.534594 21.633906 -9.737719 18.78625 C -11.940844 15.934687 -15.374437 9.887812 -17.237719 6.172969 C -19.101 2.458125 -21.815844 -4.330938 -23.167406 -7.983281 C -24.518969 -11.631719 -26.265062 -17.467656 -26.983812 -20.143438 C -27.702562 -22.823125 -28.323656 -26.245 -28.343187 -27.27625 C -28.362719 -28.311406 -27.804125 -28.467656 -27.120531 -27.600469 C -26.440844 -26.733281 -24.749437 -23.584844 -23.429125 -21.034063 C -22.108812 -18.483281 -19.440844 -12.815313 -17.601 -9.217656 C -15.761156 -5.616094 -12.358812 1.153437 -10.171312 4.903437 C -7.979906 8.649531 -4.151781 14.837031 -1.811937 17.797969 C 0.531813 20.758906 4.43025 24.813594 6.7115 26.251094 C 8.99275 27.684687 12.613844 28.594844 14.621656 28.149531 C 16.633375 27.700312 19.645094 25.239375 21.199781 23.020625 C 22.758375 20.801875 24.887281 15.583125 25.848219 12.145625 C 26.813063 8.708125 27.863844 2.03625 28.141188 -1.760625 C 28.422438 -5.5575 28.297438 -12.018438 27.871656 -15.229375 C 27.441969 -18.436406 26.156813 -23.073125 25.059156 -24.893438 C 23.965406 -26.71375 21.633375 -28.37 19.965406 -28.346563 C 18.301344 -28.319219 15.137281 -26.580938 13.05525 -24.721563 C 10.969313 -22.858281 7.262281 -18.159063 4.949781 -14.924688 C 2.641188 -11.690313 -1.272875 -5.202031 -3.601 -1.40125 C -5.929125 2.399531 -9.69475 9.051875 -11.827562 12.469844 C -13.960375 15.887812 -17.229906 21.047969 -18.976 23.227656 C -20.718187 25.41125 -23.198656 27.790156 -24.393969 28.188594 C -25.589281 28.590937 -27.050219 27.590937 -27.589281 26.110469 C -28.128344 24.63 -28.440844 20.508906 -28.272875 17.516719 C -28.104906 14.524531 -27.237719 8.305781 -26.378344 4.547969 C -25.522875 0.790156 -23.554125 -5.971563 -22.085375 -9.5575 C -20.612719 -13.139531 -17.726 -18.760625 -15.776781 -21.272344 C -13.827562 -23.787969 -10.280687 -26.862188 -8.030687 -27.6825 C -5.780687 -28.498906 -1.901781 -28.256719 0.445875 -27.178594 C 2.793531 -26.096563 6.652906 -22.600469 8.883375 -19.889531 C 11.109938 -17.178594 14.602125 -11.299688 16.508375 -7.635625 C 18.418531 -3.971563 21.219313 2.8175 22.633375 6.520625 C 24.047438 10.22375 25.902906 16.235469 26.691969 19.055781 C 27.484938 21.872187 28.227125 25.602656 28.320875 26.829219 C 28.418531 28.055781 27.981031 28.575312 27.371656 27.907344 C 26.762281 27.239375 25.184156 24.415156 23.926344 22.016719 C 22.668531 19.618281 20.094313 14.157344 18.301344 10.63 C 16.508375 7.102656 13.172438 0.368281 11.008375 -3.409063 C 8.848219 -7.186406 5.051344 -13.510625 2.715406 -16.596563 C 0.379469 -19.6825 -3.530687 -24.022344 -5.827562 -25.643438 C -8.124437 -27.264531 -11.792406 -28.530156 -13.839281 -28.284063 C -15.886156 -28.037969 -18.976 -25.920781 -20.589281 -23.87 C -22.202562 -21.815313 -24.433031 -16.83875 -25.464281 -13.491094 C -26.495531 -10.147344 -27.6635 -3.553594 -28.018969 0.251094 C -28.374437 4.055781 -28.022875 13.934687 -28.022875 13.934687 " transform="matrix(1,0,0,-1,31.476,31.63)"/>
</g>
</g>
</svg>
