<?xml version="1.0" encoding="UTF-8"?>
<svg xmlns="http://www.w3.org/2000/svg" xmlns:xlink="http://www.w3.org/1999/xlink" width="261.598pt" height="148.198pt" viewBox="0 0 261.598 148.198" version="1.1">
<defs>
<clipPath id="clip1">
  <path d="M 20 28 L 261.597656 28 L 261.597656 128 L 20 128 Z M 20 28 "/>
</clipPath>
<clipPath id="clip2">
  <path d="M 20 33 L 261.597656 33 L 261.597656 128 L 20 128 Z M 20 33 "/>
</clipPath>
</defs>
<g id="surface1">
<path style="fill:none;stroke-width:0.79701;stroke-linecap:butt;stroke-linejoin:miter;stroke:rgb(0%,0%,0%);stroke-opacity:1;stroke-miterlimit:10;" d="M -28.345625 0.0008125 L 226.068438 0.0008125 " transform="matrix(1,0,0,-1,31.58,116.618)"/>
<path style="fill:none;stroke-width:0.6376;stroke-linecap:round;stroke-linejoin:round;stroke:rgb(0%,0%,0%);stroke-opacity:1;stroke-miterlimit:10;" d="M -1.55336 2.071125 C -1.424454 1.293781 0.0013275 0.129719 0.388046 0.0008125 C 0.0013275 -0.128094 -1.424454 -1.296062 -1.55336 -2.073406 " transform="matrix(1,0,0,-1,257.64711,116.618)"/>
<path style="fill:none;stroke-width:0.79701;stroke-linecap:butt;stroke-linejoin:miter;stroke:rgb(0%,0%,0%);stroke-opacity:1;stroke-miterlimit:10;" d="M -0.001875 -28.346844 L -0.001875 112.6805 " transform="matrix(1,0,0,-1,31.58,116.618)"/>
<path style="fill:none;stroke-width:0.6376;stroke-linecap:round;stroke-linejoin:round;stroke:rgb(0%,0%,0%);stroke-opacity:1;stroke-miterlimit:10;" d="M -1.554057 2.072187 C -1.425151 1.294844 0.00063 0.130781 0.387349 0.001875 C 0.00063 -0.130938 -1.425151 -1.295 -1.554057 -2.072344 " transform="matrix(0,-1,-1,0,31.58,3.93813)"/>
<g clip-path="url(#clip1)" clip-rule="nonzero">
<path style="fill:none;stroke-width:0.79701;stroke-linecap:butt;stroke-linejoin:miter;stroke:rgb(0%,0%,100%);stroke-opacity:1;stroke-miterlimit:10;" d="M -0.001875 0.0008125 L 2.834063 29.907063 L 5.67 33.907063 L 8.505938 38.184406 L 11.337969 42.02425 L 14.173906 42.196125 L 17.009844 43.071125 L 19.845781 46.360188 L 22.677813 46.844563 L 25.51375 47.450031 L 28.349688 50.035969 L 31.181719 48.809406 L 34.017656 49.039875 L 36.853594 51.950031 L 39.689531 53.828938 L 42.521563 52.184406 L 45.3575 55.364094 L 48.193438 55.696125 L 51.025469 56.172688 L 53.861406 57.043781 L 56.697344 54.875813 L 59.533281 57.075031 L 62.365313 58.110188 L 65.20125 59.493 L 68.037188 56.789875 L 70.873125 61.485188 L 73.705156 59.594563 L 76.541094 59.160969 L 79.377031 61.602375 L 82.209063 58.735188 L 85.045 62.770344 L 87.880938 61.715656 L 90.716875 62.598469 L 93.548906 63.672688 L 96.384844 61.543781 L 99.220781 64.356281 L 102.052813 63.750813 L 104.88875 61.469563 L 107.724688 63.868 L 110.560625 62.543781 L 113.392656 62.758625 L 116.228594 66.442219 L 119.064531 66.196125 L 121.900469 68.735188 L 124.7325 68.629719 L 127.568438 65.184406 L 130.404375 65.973469 L 133.236406 65.496906 L 136.072344 67.051594 L 138.908281 68.258625 L 141.744219 67.067219 L 144.57625 70.414875 L 147.412188 66.008625 L 150.248125 67.996906 L 153.080156 67.539875 L 155.916094 66.758625 L 158.752031 69.743 L 161.587969 68.743 L 164.42 72.5555 L 167.255938 72.118 L 170.091875 69.137531 L 172.927813 71.141438 L 175.759844 71.844563 L 178.595781 70.582844 L 181.431719 72.332844 L 184.26375 71.516438 L 187.099688 72.871906 L 189.935625 69.907063 L 192.771563 70.293781 L 195.603594 75.039875 L 198.439531 70.422688 L 201.275469 75.473469 L 204.111406 71.020344 L 206.943438 73.125813 L 209.779375 71.047688 L 212.615313 73.184406 L 215.447344 72.637531 L 218.283281 71.653156 L 221.119219 73.567219 L 223.955156 74.047688 L 226.787188 76.719563 " transform="matrix(1,0,0,-1,31.58,116.618)"/>
</g>
<g clip-path="url(#clip2)" clip-rule="nonzero">
<path style="fill:none;stroke-width:0.79701;stroke-linecap:butt;stroke-linejoin:miter;stroke:rgb(100%,0%,0%);stroke-opacity:1;stroke-miterlimit:10;" d="M -0.001875 0.0008125 L 2.834063 28.727375 L 5.67 32.168781 L 8.505938 37.981281 L 11.337969 39.078938 L 14.173906 38.379719 L 17.009844 41.493 L 19.845781 40.801594 L 22.677813 46.758625 L 25.51375 47.082844 L 28.349688 44.563313 L 31.181719 46.950031 L 34.017656 48.660969 L 36.853594 49.813313 L 39.689531 49.844563 L 42.521563 49.543781 L 45.3575 53.422688 L 48.193438 50.110188 L 51.025469 52.46175 L 53.861406 53.485188 L 56.697344 54.133625 L 59.533281 55.309406 L 62.365313 51.657063 L 65.20125 53.192219 L 68.037188 53.235188 L 70.873125 57.9305 L 73.705156 56.395344 L 76.541094 55.641438 L 79.377031 54.973469 L 82.209063 58.887531 L 85.045 58.133625 L 87.880938 59.008625 L 90.716875 58.375813 L 93.548906 60.110188 L 96.384844 60.610188 L 99.220781 58.575031 L 102.052813 58.004719 L 104.88875 62.481281 L 107.724688 60.035969 L 110.560625 60.914875 L 113.392656 62.832844 L 116.228594 59.770344 L 119.064531 62.58675 L 121.900469 61.387531 L 124.7325 62.477375 L 127.568438 59.825031 L 130.404375 65.4305 L 133.236406 62.227375 L 136.072344 60.785969 L 138.908281 64.641438 L 141.744219 63.344563 L 144.57625 66.6805 L 147.412188 62.000813 L 150.248125 66.703938 L 153.080156 66.535969 L 155.916094 63.262531 L 158.752031 67.309406 L 161.587969 66.567219 L 164.42 68.39925 L 167.255938 67.364094 L 170.091875 66.946125 L 172.927813 68.325031 L 175.759844 69.094563 L 178.595781 64.383625 L 181.431719 68.891438 L 184.26375 65.922688 L 187.099688 67.489094 L 189.935625 67.52425 L 192.771563 68.293781 L 195.603594 66.539875 L 198.439531 65.539875 L 201.275469 69.434406 L 204.111406 68.71175 L 206.943438 68.973469 L 209.779375 71.231281 L 212.615313 68.559406 L 215.447344 66.758625 L 218.283281 69.582844 L 221.119219 71.793781 L 223.955156 68.614094 L 226.787188 69.953938 " transform="matrix(1,0,0,-1,31.58,116.618)"/>
</g>
</g>
</svg>
