<?xml version="1.0" encoding="UTF-8"?>
<svg xmlns="http://www.w3.org/2000/svg" xmlns:xlink="http://www.w3.org/1999/xlink" width="153.469pt" height="91.107pt" viewBox="0 0 153.469 91.107" version="1.1">
<defs>
<clipPath id="clip1">
  <path d="M 110 36 L 128 36 L 128 91.105469 L 110 91.105469 Z M 110 36 "/>
</clipPath>
<clipPath id="clip2">
  <path d="M 139 0 L 153.46875 0 L 153.46875 34 L 139 34 Z M 139 0 "/>
</clipPath>
<clipPath id="clip3">
  <path d="M 0 22 L 153.46875 22 L 153.46875 57 L 0 57 Z M 0 22 "/>
</clipPath>
</defs>
<g id="surface1">
<path style="fill:none;stroke-width:0.3985;stroke-linecap:butt;stroke-linejoin:miter;stroke:rgb(0%,0%,0%);stroke-opacity:1;stroke-miterlimit:10;" d="M 28.345187 28.346437 C 26.774875 28.463625 25.513156 28.959719 25.513156 29.549562 C 25.513156 30.143312 26.774875 30.639406 28.345187 30.756594 C 29.919406 30.873781 31.181125 30.612062 31.181125 30.2605 C 31.181125 29.905031 29.919406 29.647219 28.345187 29.764406 C 26.774875 29.881594 25.513156 30.377687 25.513156 30.967531 C 25.513156 31.557375 26.774875 32.053469 28.345187 32.174562 C 29.919406 32.29175 31.181125 32.030031 31.181125 31.678469 C 31.181125 31.323 29.919406 31.061281 28.345187 31.182375 C 26.774875 31.299562 25.513156 31.795656 25.513156 32.3855 C 25.513156 32.975344 26.774875 33.471437 28.345187 33.592531 C 29.919406 33.709719 31.181125 33.448 31.181125 33.096437 C 31.181125 32.740969 29.919406 32.47925 28.345187 32.600344 C 26.774875 32.717531 25.513156 33.213625 25.513156 33.803469 C 25.513156 34.393312 26.774875 34.889406 28.345187 35.006594 C 29.919406 35.127687 31.181125 34.865969 31.181125 34.5105 C 31.181125 34.158937 29.919406 33.897219 28.345187 34.014406 C 26.774875 34.1355 25.513156 34.631594 25.513156 35.221437 C 25.513156 35.811281 26.774875 36.307375 28.345187 36.424562 L 28.345187 37.537844 " transform="matrix(1,0,0,-1,-22.478,88.073)"/>
<path style="fill:none;stroke-width:0.3985;stroke-linecap:butt;stroke-linejoin:miter;stroke:rgb(0%,0%,0%);stroke-opacity:1;stroke-miterlimit:10;" d="M 56.692844 56.694094 C 58.267062 56.545656 59.528781 56.022219 59.528781 55.405031 C 59.528781 54.783937 58.267062 54.2605 56.692844 54.115969 C 55.118625 53.967531 53.860812 54.198 53.860812 54.526125 C 53.860812 54.850344 55.118625 55.080812 56.692844 54.936281 C 58.267062 54.787844 59.528781 54.264406 59.528781 53.647219 C 59.528781 53.026125 58.267062 52.502687 56.692844 52.358156 C 55.118625 52.209719 53.860812 52.444094 53.860812 52.768312 C 53.860812 53.092531 55.118625 53.326906 56.692844 53.178469 C 58.267062 53.033937 59.528781 52.506594 59.528781 51.889406 C 59.528781 51.272219 58.267062 50.744875 56.692844 50.600344 C 55.118625 50.451906 53.860812 50.686281 53.860812 51.0105 C 53.860812 51.334719 55.118625 51.569094 56.692844 51.420656 C 58.267062 51.276125 59.528781 50.748781 59.528781 50.131594 C 59.528781 49.514406 58.267062 48.987062 56.692844 48.842531 C 55.118625 48.694094 53.860812 48.928469 53.860812 49.252687 C 53.860812 49.576906 55.118625 49.811281 56.692844 49.662844 C 58.267062 49.518312 59.528781 48.990969 59.528781 48.373781 C 59.528781 47.756594 58.267062 47.22925 56.692844 47.084719 C 55.118625 46.936281 53.860812 47.170656 53.860812 47.494875 C 53.860812 47.819094 55.118625 48.053469 56.692844 47.905031 C 58.267062 47.7605 59.528781 47.233156 59.528781 46.615969 C 59.528781 45.998781 58.267062 45.471437 56.692844 45.326906 L 56.692844 45.237062 " transform="matrix(1,0,0,-1,-22.478,88.073)"/>
<path style="fill:none;stroke-width:0.3985;stroke-linecap:butt;stroke-linejoin:miter;stroke:rgb(0%,0%,0%);stroke-opacity:1;stroke-miterlimit:10;" d="M 85.0405 56.694094 C 86.614719 56.580812 87.876437 56.088625 87.876437 55.502687 C 87.876437 54.91675 86.614719 54.424562 85.0405 54.311281 C 83.466281 54.198 82.204562 54.463625 82.204562 54.823 C 82.204562 55.182375 83.466281 55.448 85.0405 55.334719 C 86.614719 55.221437 87.876437 54.72925 87.876437 54.143312 C 87.876437 53.557375 86.614719 53.065187 85.0405 52.951906 C 83.466281 52.838625 82.204562 53.10425 82.204562 53.463625 C 82.204562 53.819094 83.466281 54.084719 85.0405 53.971437 C 86.614719 53.858156 87.876437 53.365969 87.876437 52.780031 C 87.876437 52.198 86.614719 51.705812 85.0405 51.592531 C 83.466281 51.47925 82.204562 51.744875 82.204562 52.100344 C 82.204562 52.459719 83.466281 52.725344 85.0405 52.612062 C 86.614719 52.498781 87.876437 52.006594 87.876437 51.420656 C 87.876437 50.834719 86.614719 50.342531 85.0405 50.22925 C 83.466281 50.115969 82.204562 50.381594 82.204562 50.740969 C 82.204562 51.100344 83.466281 51.365969 85.0405 51.252687 C 86.614719 51.139406 87.876437 50.647219 87.876437 50.061281 C 87.876437 49.475344 86.614719 48.983156 85.0405 48.869875 L 85.0405 47.959719 " transform="matrix(1,0,0,-1,-22.478,88.073)"/>
<path style="fill:none;stroke-width:0.3985;stroke-linecap:butt;stroke-linejoin:miter;stroke:rgb(0%,0%,0%);stroke-opacity:1;stroke-miterlimit:10;" d="M 113.388156 56.694094 C 114.962375 56.569094 116.220187 56.065187 116.220187 55.467531 C 116.220187 54.869875 114.962375 54.365969 113.388156 54.240969 C 111.813937 54.115969 110.552219 54.369875 110.552219 54.717531 C 110.552219 55.065187 111.813937 55.315187 113.388156 55.190187 C 114.962375 55.065187 116.220187 54.561281 116.220187 53.963625 C 116.220187 53.369875 114.962375 52.865969 113.388156 52.740969 C 111.813937 52.615969 110.552219 52.865969 110.552219 53.213625 C 110.552219 53.561281 111.813937 53.815187 113.388156 53.690187 C 114.962375 53.565187 116.220187 53.061281 116.220187 52.463625 C 116.220187 51.865969 114.962375 51.362062 113.388156 51.237062 C 111.813937 51.112062 110.552219 51.365969 110.552219 51.713625 C 110.552219 52.057375 111.813937 52.311281 113.388156 52.186281 C 114.962375 52.061281 116.220187 51.557375 116.220187 50.959719 C 116.220187 50.362062 114.962375 49.858156 113.388156 49.733156 C 111.813937 49.608156 110.552219 49.862062 110.552219 50.209719 C 110.552219 50.557375 111.813937 50.811281 113.388156 50.682375 C 114.962375 50.557375 116.220187 50.053469 116.220187 49.459719 C 116.220187 48.862062 114.962375 48.358156 113.388156 48.233156 L 113.388156 46.924562 " transform="matrix(1,0,0,-1,-22.478,88.073)"/>
<g clip-path="url(#clip1)" clip-rule="nonzero">
<path style="fill:none;stroke-width:0.3985;stroke-linecap:butt;stroke-linejoin:miter;stroke:rgb(0%,0%,0%);stroke-opacity:1;stroke-miterlimit:10;" d="M 141.735813 -0.00121875 C 140.161594 0.584719 138.899875 1.549562 138.899875 2.608156 C 138.899875 3.66675 140.161594 4.631594 141.735813 5.213625 C 143.306125 5.799562 144.567844 6.0105 144.567844 6.123781 C 144.567844 6.237062 143.306125 6.444094 141.735813 7.030031 C 140.161594 7.615969 138.899875 8.580812 138.899875 9.639406 C 138.899875 10.694094 140.161594 11.658937 141.735813 12.244875 C 143.306125 12.830812 144.567844 13.037844 144.567844 13.151125 C 144.567844 13.264406 143.306125 13.475344 141.735813 14.061281 C 140.161594 14.647219 138.899875 15.608156 138.899875 16.66675 C 138.899875 17.725344 140.161594 18.690187 141.735813 19.276125 C 143.306125 19.862062 144.567844 20.069094 144.567844 20.182375 C 144.567844 20.295656 143.306125 20.502687 141.735813 21.088625 C 140.161594 21.674562 138.899875 22.639406 138.899875 23.698 C 138.899875 24.756594 140.161594 25.721437 141.735813 26.307375 C 143.306125 26.889406 144.567844 27.100344 144.567844 27.213625 C 144.567844 27.326906 143.306125 27.533937 141.735813 28.119875 C 140.161594 28.705812 138.899875 29.670656 138.899875 30.72925 C 138.899875 31.783937 140.161594 32.748781 141.735813 33.334719 C 143.306125 33.920656 144.567844 34.127687 144.567844 34.240969 C 144.567844 34.358156 143.306125 34.565187 141.735813 35.151125 C 140.161594 35.737062 138.899875 36.698 138.899875 37.756594 C 138.899875 38.815187 140.161594 39.780031 141.735813 40.365969 L 141.735813 45.615969 " transform="matrix(1,0,0,-1,-22.478,88.073)"/>
</g>
<g clip-path="url(#clip2)" clip-rule="nonzero">
<path style="fill:none;stroke-width:0.3985;stroke-linecap:butt;stroke-linejoin:miter;stroke:rgb(0%,0%,0%);stroke-opacity:1;stroke-miterlimit:10;" d="M 170.079563 85.04175 C 171.653781 84.721437 172.9155 84.026125 172.9155 83.233156 C 172.9155 82.444094 171.653781 81.744875 170.079563 81.424562 C 168.50925 81.108156 167.247531 81.16675 167.247531 81.319094 C 167.247531 81.471437 168.50925 81.533937 170.079563 81.213625 C 171.653781 80.893312 172.9155 80.198 172.9155 79.405031 C 172.9155 78.615969 171.653781 77.91675 170.079563 77.600344 C 168.50925 77.280031 167.247531 77.338625 167.247531 77.494875 C 167.247531 77.647219 168.50925 77.705812 170.079563 77.3855 C 171.653781 77.069094 172.9155 76.369875 172.9155 75.580812 C 172.9155 74.787844 171.653781 74.092531 170.079563 73.772219 C 168.50925 73.451906 167.247531 73.514406 167.247531 73.66675 C 167.247531 73.819094 168.50925 73.877687 170.079563 73.561281 C 171.653781 73.240969 172.9155 72.545656 172.9155 71.752687 C 172.9155 70.963625 171.653781 70.264406 170.079563 69.944094 C 168.50925 69.627687 167.247531 69.686281 167.247531 69.838625 C 167.247531 69.990969 168.50925 70.053469 170.079563 69.733156 C 171.653781 69.412844 172.9155 68.717531 172.9155 67.924562 C 172.9155 67.1355 171.653781 66.436281 170.079563 66.119875 C 168.50925 65.799562 167.247531 65.858156 167.247531 66.014406 C 167.247531 66.16675 168.50925 66.225344 170.079563 65.905031 C 171.653781 65.588625 172.9155 64.889406 172.9155 64.100344 C 172.9155 63.307375 171.653781 62.612062 170.079563 62.29175 L 170.079563 60.194094 " transform="matrix(1,0,0,-1,-22.478,88.073)"/>
</g>
<g clip-path="url(#clip3)" clip-rule="nonzero">
<path style="fill:none;stroke-width:0.3985;stroke-linecap:butt;stroke-linejoin:miter;stroke:rgb(0%,0%,0%);stroke-opacity:1;stroke-miterlimit:10;" d="M 28.345187 37.530031 C 28.345187 37.530031 50.399875 44.084719 56.692844 45.240969 C 62.985812 46.397219 78.747531 47.776125 85.0405 47.963625 C 91.333469 48.147219 107.095187 47.174562 113.388156 46.912844 C 119.681125 46.651125 135.442844 44.1355 141.735813 45.608156 C 148.024875 47.080812 170.079563 60.178469 170.079563 60.178469 " transform="matrix(1,0,0,-1,-22.478,88.073)"/>
</g>
</g>
</svg>
